<svg xmlns="http://www.w3.org/2000/svg" xmlns:xlink="http://www.w3.org/1999/xlink" contentStyleType="text/css" height="1580px" preserveAspectRatio="none" style="width:1251px;height:1580px;background:#FFFFFF;" version="1.1" viewBox="0 0 1251 1580" width="1251px" zoomAndPan="magnify"><title>State Diagram - CodeReview Entity Lifecycle</title><defs/><g><text fill="#000000" font-family="sans-serif" font-size="14" font-weight="bold" lengthAdjust="spacing" textLength="351.6201" x="442.8577" y="22.9951">State Diagram - CodeReview Entity Lifecycle</text><g id="PENDING"><rect fill="#E7F5FF" height="109.6328" rx="12.5" ry="12.5" style="stroke:#1E40AF;stroke-width:0.5;" width="196.3008" x="647.5" y="155.2969"/><line style="stroke:#1E40AF;stroke-width:0.5;" x1="647.5" x2="843.8008" y1="178.1016" y2="178.1016"/><text fill="#000000" font-family="sans-serif" font-size="11" lengthAdjust="spacing" textLength="50.2788" x="720.511" y="170.5073">PENDING</text><text fill="#000000" font-family="sans-serif" font-size="11" font-weight="bold" lengthAdjust="spacing" textLength="86.335" x="652.5" y="193.312">Entry actions:</text><text fill="#000000" font-family="sans-serif" font-size="11" lengthAdjust="spacing" textLength="153.6025" x="652.5" y="206.1167">&#8226; Create CodeReview entity</text><text fill="#000000" font-family="sans-serif" font-size="11" lengthAdjust="spacing" textLength="176.3008" x="652.5" y="218.9214">&#8226; Store encrypted code_content</text><text fill="#000000" font-family="sans-serif" font-size="11" lengthAdjust="spacing" textLength="137.8813" x="652.5" y="231.7261">&#8226; Set status = 'PENDING'</text><text fill="#000000" font-family="sans-serif" font-size="11" lengthAdjust="spacing" textLength="164.8281" x="652.5" y="244.5308">&#8226; Generate analysis_id (UUID)</text><text fill="#000000" font-family="sans-serif" font-size="11" lengthAdjust="spacing" textLength="153.0708" x="652.5" y="257.3354">&#8226; Set created_at timestamp</text></g><path d="M172,342.2969 L583.1499,342.2969 A12.5,12.5 0 0 1 595.6499,354.7969 L595.6499,549.3672 L159.5,549.3672 L159.5,354.7969 A12.5,12.5 0 0 1 172,342.2969 " fill="#FEF3C7" style="stroke:#FEF3C7;stroke-width:1;"/><rect fill="none" height="653.875" rx="12.5" ry="12.5" style="stroke:#1E40AF;stroke-width:0.5;" width="436.1499" x="159.5" y="342.2969"/><line style="stroke:#1E40AF;stroke-width:0.5;" x1="159.5" x2="595.6499" y1="549.3672" y2="549.3672"/><line style="stroke:#1E40AF;stroke-width:0.5;" x1="159.5" x2="595.6499" y1="365.1016" y2="365.1016"/><text fill="#000000" font-family="sans-serif" font-size="11" lengthAdjust="spacing" textLength="71.5269" x="341.8115" y="357.5073">PROCESSING</text><text fill="#000000" font-family="sans-serif" font-size="11" font-weight="bold" lengthAdjust="spacing" textLength="86.335" x="164.5" y="375.312">Entry actions:</text><text fill="#000000" font-family="sans-serif" font-size="11" lengthAdjust="spacing" textLength="183.1865" x="164.5" y="388.1167">&#8226; Emit ANALYSIS_STARTED event</text><text fill="#000000" font-family="sans-serif" font-size="11" lengthAdjust="spacing" textLength="185.7646" x="164.5" y="400.9214">&#8226; Initialize ThreadPoolExecutor(4)</text><text fill="#000000" font-family="sans-serif" font-size="11" lengthAdjust="spacing" textLength="159.1294" x="164.5" y="413.7261">&#8226; Set status = 'PROCESSING'</text><text fill="#000000" font-family="sans-serif" font-size="11" lengthAdjust="spacing" textLength="3.4966" x="164.5" y="426.5308">&#160;</text><text fill="#000000" font-family="sans-serif" font-size="11" font-weight="bold" lengthAdjust="spacing" textLength="46.2612" x="164.5" y="439.3354">During:</text><text fill="#000000" font-family="sans-serif" font-size="11" lengthAdjust="spacing" textLength="163.7539" x="164.5" y="452.1401">&#8226; Execute 4 agents in parallel</text><text fill="#000000" font-family="sans-serif" font-size="11" lengthAdjust="spacing" textLength="190.2012" x="164.5" y="464.9448">&#8226; Emit AGENT_COMPLETED events</text><text fill="#000000" font-family="sans-serif" font-size="11" lengthAdjust="spacing" textLength="167.9487" x="164.5" y="477.7495">&#8226; Handle agent timeouts (30s)</text><text fill="#000000" font-family="sans-serif" font-size="11" lengthAdjust="spacing" textLength="169.6245" x="164.5" y="490.5542">&#8226; Monitor progress percentage</text><text fill="#000000" font-family="sans-serif" font-size="11" lengthAdjust="spacing" textLength="3.4966" x="164.5" y="503.3589">&#160;</text><text fill="#000000" font-family="sans-serif" font-size="11" font-weight="bold" lengthAdjust="spacing" textLength="76.7744" x="164.5" y="516.1636">Exit actions:</text><text fill="#000000" font-family="sans-serif" font-size="11" lengthAdjust="spacing" textLength="131.0386" x="164.5" y="528.9683">&#8226; Aggregate all findings</text><text fill="#000000" font-family="sans-serif" font-size="11" lengthAdjust="spacing" textLength="175.0547" x="164.5" y="541.7729">&#8226; Shutdown executor gracefully</text><path d="M184,561.3672 L569.1499,561.3672 A12.5,12.5 0 0 1 581.6499,573.8672 L581.6499,584.1719 L171.5,584.1719 L171.5,573.8672 A12.5,12.5 0 0 1 184,561.3672 " fill="#F1F1F1" style="stroke:#F1F1F1;stroke-width:1;"/><rect fill="none" height="424.8047" rx="12.5" ry="12.5" style="stroke:#1E40AF;stroke-width:0.5;" width="410.1499" x="171.5" y="561.3672"/><line style="stroke:#1E40AF;stroke-width:0.5;" x1="171.5" x2="581.6499" y1="584.1719" y2="584.1719"/><text fill="#000000" font-family="sans-serif" font-size="11" lengthAdjust="spacing" textLength="90.374" x="331.3879" y="576.5776">Agent Execution</text><g id="PROCESSING.AgentExec.RunningAgents"><rect fill="#F1F1F1" height="84.0234" rx="12.5" ry="12.5" style="stroke:#1E40AF;stroke-width:0.5;" width="184.1299" x="273.5" y="652.1719"/><line style="stroke:#1E40AF;stroke-width:0.5;" x1="273.5" x2="457.6299" y1="674.9766" y2="674.9766"/><text fill="#000000" font-family="sans-serif" font-size="11" lengthAdjust="spacing" textLength="83.8589" x="323.6355" y="667.3823">RunningAgents</text><text fill="#000000" font-family="sans-serif" font-size="11" lengthAdjust="spacing" textLength="139.0093" x="278.5" y="690.187">SecurityAgent (Thread 1)</text><text fill="#000000" font-family="sans-serif" font-size="11" lengthAdjust="spacing" textLength="133.144" x="278.5" y="702.9917">QualityAgent (Thread 2)</text><text fill="#000000" font-family="sans-serif" font-size="11" lengthAdjust="spacing" textLength="164.1299" x="278.5" y="715.7964">PerformanceAgent (Thread 3)</text><text fill="#000000" font-family="sans-serif" font-size="11" lengthAdjust="spacing" textLength="121.4673" x="278.5" y="728.6011">StyleAgent (Thread 4)</text></g><ellipse cx="365.5" cy="605.1719" fill="#222222" rx="10" ry="10" style="stroke:#222222;stroke-width:1;"/><g id="PROCESSING.AgentExec.AgentTimeout"><rect fill="#F1F1F1" height="84.0234" rx="12.5" ry="12.5" style="stroke:#1E40AF;stroke-width:0.5;" width="180.0854" x="183.5" y="789.1719"/><line style="stroke:#1E40AF;stroke-width:0.5;" x1="183.5" x2="363.5854" y1="811.9766" y2="811.9766"/><text fill="#000000" font-family="sans-serif" font-size="11" lengthAdjust="spacing" textLength="77.8325" x="234.6265" y="804.3823">AgentTimeout</text><text fill="#000000" font-family="sans-serif" font-size="11" font-weight="bold" lengthAdjust="spacing" textLength="136.2432" x="188.5" y="827.187">Graceful degradation:</text><text fill="#000000" font-family="sans-serif" font-size="11" lengthAdjust="spacing" textLength="153.2427" x="188.5" y="839.9917">&#8226; Mark agent as 'timed_out'</text><text fill="#000000" font-family="sans-serif" font-size="11" lengthAdjust="spacing" textLength="116.4829" x="188.5" y="852.7964">&#8226; Save partial results</text><text fill="#000000" font-family="sans-serif" font-size="11" lengthAdjust="spacing" textLength="160.0854" x="188.5" y="865.6011">&#8226; Continue with other agents</text></g><g id="PROCESSING.AgentExec.AllComplete"><rect fill="#F1F1F1" height="50" rx="12.5" ry="12.5" style="stroke:#1E40AF;stroke-width:0.5;" width="86.6499" x="317" y="926.1719"/><line style="stroke:#1E40AF;stroke-width:0.5;" x1="317" x2="403.6499" y1="948.9766" y2="948.9766"/><text fill="#000000" font-family="sans-serif" font-size="11" lengthAdjust="spacing" textLength="66.6499" x="327" y="941.3823">AllComplete</text></g><!--link *start*AgentExec to RunningAgents--><g id="link_*start*AgentExec_RunningAgents"><path d="M365.5,615.4819 C365.5,624.3419 365.5,632.3019 365.5,645.9619 " fill="none" id="*start*AgentExec-to-RunningAgents" style="stroke:#181818;stroke-width:1;"/><polygon fill="#181818" points="365.5,651.9619,369.5,642.9619,365.5,646.9619,361.5,642.9619,365.5,651.9619" style="stroke:#181818;stroke-width:1;"/></g><!--link RunningAgents to AgentTimeout--><g id="link_RunningAgents_AgentTimeout"><path d="M298.61,736.4319 C293.21,741.8419 288.36,747.7619 284.5,754.1719 C278.24,764.5619 275.8032,771.2206 274.2732,783.1506 " fill="none" id="RunningAgents-to-AgentTimeout" style="stroke:#181818;stroke-width:1;"/><polygon fill="#181818" points="273.51,789.1019,278.6224,780.6838,274.146,784.1425,270.6874,779.6662,273.51,789.1019" style="stroke:#181818;stroke-width:1;"/><text fill="#000000" font-family="sans-serif" font-size="13" lengthAdjust="spacing" textLength="158.5645" x="285.5" y="767.2388">Timeout exceeded (30s)</text></g><!--link RunningAgents to AllComplete--><g id="link_RunningAgents_AllComplete"><path d="M432.06,736.4519 C436.99,741.8419 441.28,747.7419 444.5,754.1719 C475.17,815.3619 480.48,849.9519 444.5,908.1719 C435.5,922.7319 425.2996,930.141 409.8496,936.491 " fill="none" id="RunningAgents-to-AllComplete" style="stroke:#181818;stroke-width:1;"/><polygon fill="#181818" points="404.3,938.7719,414.1449,939.0503,408.9246,936.8711,411.1037,931.6508,404.3,938.7719" style="stroke:#181818;stroke-width:1;"/><text fill="#000000" font-family="sans-serif" font-size="13" lengthAdjust="spacing" textLength="101.1499" x="470.5" y="835.7388">All agents done</text></g><!--link AgentTimeout to AllComplete--><g id="link_AgentTimeout_AllComplete"><path d="M258.91,873.1819 C257.09,885.2519 257.81,897.9419 264.5,908.1719 C276.15,925.9819 291.4613,934.5404 310.8913,940.4704 " fill="none" id="AgentTimeout-to-AllComplete" style="stroke:#181818;stroke-width:1;"/><polygon fill="#181818" points="316.63,942.2219,309.1896,935.7689,311.8478,940.7623,306.8544,943.4205,316.63,942.2219" style="stroke:#181818;stroke-width:1;"/><text fill="#000000" font-family="sans-serif" font-size="13" lengthAdjust="spacing" textLength="178.1978" x="265.5" y="904.2388">Proceed with partial results</text></g><g id="COMPLETED"><rect fill="#D1FAE5" height="186.4609" rx="12.5" ry="12.5" style="stroke:#1E40AF;stroke-width:0.5;" width="249.292" x="525" y="1088.2969"/><line style="stroke:#1E40AF;stroke-width:0.5;" x1="525" x2="774.292" y1="1111.1016" y2="1111.1016"/><text fill="#000000" font-family="sans-serif" font-size="11" lengthAdjust="spacing" textLength="67.6812" x="615.8054" y="1103.5073">COMPLETED</text><text fill="#000000" font-family="sans-serif" font-size="11" font-weight="bold" lengthAdjust="spacing" textLength="86.335" x="530" y="1126.312">Entry actions:</text><text fill="#000000" font-family="sans-serif" font-size="11" lengthAdjust="spacing" textLength="181.8276" x="530" y="1139.1167">&#8226; Calculate quality_score (0-100)</text><text fill="#000000" font-family="sans-serif" font-size="11" lengthAdjust="spacing" textLength="162.8945" x="530" y="1151.9214">&#8226; Persist findings to database</text><text fill="#000000" font-family="sans-serif" font-size="11" lengthAdjust="spacing" textLength="169.2915" x="530" y="1164.7261">&#8226; Set completed_at timestamp</text><text fill="#000000" font-family="sans-serif" font-size="11" lengthAdjust="spacing" textLength="155.2837" x="530" y="1177.5308">&#8226; Set status = 'COMPLETED'</text><text fill="#000000" font-family="sans-serif" font-size="11" lengthAdjust="spacing" textLength="199.8584" x="530" y="1190.3354">&#8226; Emit ANALYSIS_COMPLETED event</text><text fill="#000000" font-family="sans-serif" font-size="11" lengthAdjust="spacing" textLength="3.4966" x="530" y="1203.1401">&#160;</text><text fill="#000000" font-family="sans-serif" font-size="11" font-weight="bold" lengthAdjust="spacing" textLength="96.3413" x="530" y="1215.9448">Postconditions:</text><text fill="#000000" font-family="sans-serif" font-size="11" lengthAdjust="spacing" textLength="143.0591" x="530" y="1228.7495">&#8226; quality_score &#8712; [0, 100]</text><text fill="#000000" font-family="sans-serif" font-size="11" lengthAdjust="spacing" textLength="229.292" x="530" y="1241.5542">&#8226; total_findings = COUNT(agent_findings)</text><text fill="#000000" font-family="sans-serif" font-size="11" lengthAdjust="spacing" textLength="158.0605" x="530" y="1254.3589">&#8226; Result cached for 24 hours</text><text fill="#000000" font-family="sans-serif" font-size="11" lengthAdjust="spacing" textLength="167.2612" x="530" y="1267.1636">&#8226; User can view/export results</text></g><g id="FAILED"><rect fill="#FEE2E2" height="173.6563" rx="12.5" ry="12.5" style="stroke:#1E40AF;stroke-width:0.5;" width="199.0132" x="7" y="1094.2969"/><line style="stroke:#1E40AF;stroke-width:0.5;" x1="7" x2="206.0132" y1="1117.1016" y2="1117.1016"/><text fill="#000000" font-family="sans-serif" font-size="11" lengthAdjust="spacing" textLength="38.645" x="87.1841" y="1109.5073">FAILED</text><text fill="#000000" font-family="sans-serif" font-size="11" font-weight="bold" lengthAdjust="spacing" textLength="86.335" x="12" y="1132.312">Entry actions:</text><text fill="#000000" font-family="sans-serif" font-size="11" lengthAdjust="spacing" textLength="173.7012" x="12" y="1145.1167">&#8226; Log error details (stack trace)</text><text fill="#000000" font-family="sans-serif" font-size="11" lengthAdjust="spacing" textLength="140.7764" x="12" y="1157.9214">&#8226; Set error_message field</text><text fill="#000000" font-family="sans-serif" font-size="11" lengthAdjust="spacing" textLength="126.2476" x="12" y="1170.7261">&#8226; Set status = 'FAILED'</text><text fill="#000000" font-family="sans-serif" font-size="11" lengthAdjust="spacing" textLength="170.8223" x="12" y="1183.5308">&#8226; Emit ANALYSIS_FAILED event</text><text fill="#000000" font-family="sans-serif" font-size="11" lengthAdjust="spacing" textLength="3.4966" x="12" y="1196.3354">&#160;</text><text fill="#000000" font-family="sans-serif" font-size="11" font-weight="bold" lengthAdjust="spacing" textLength="93.7793" x="12" y="1209.1401">Error handling:</text><text fill="#000000" font-family="sans-serif" font-size="11" lengthAdjust="spacing" textLength="178.8735" x="12" y="1221.9448">&#8226; Transient errors &#8594; retry queue</text><text fill="#000000" font-family="sans-serif" font-size="11" lengthAdjust="spacing" textLength="179.0132" x="12" y="1234.7495">&#8226; Fatal errors &#8594; user notification</text><text fill="#000000" font-family="sans-serif" font-size="11" lengthAdjust="spacing" textLength="144.6865" x="12" y="1247.5542">&#8226; Partial results preserved</text><text fill="#000000" font-family="sans-serif" font-size="11" lengthAdjust="spacing" textLength="147.2271" x="12" y="1260.3589">&#8226; Admin alerted (if critical)</text></g><ellipse cx="745.5" cy="53.2969" fill="#222222" rx="10" ry="10" style="stroke:#222222;stroke-width:1;"/><ellipse cx="425.5" cy="1469.7969" fill="none" rx="11" ry="11" style="stroke:#222222;stroke-width:1;"/><ellipse cx="425.5" cy="1469.7969" fill="#222222" rx="6" ry="6" style="stroke:#222222;stroke-width:1;"/><g id="elem_GMN2"><path d="M985,626.2969 L985,711.9609 L1244.3354,711.9609 L1244.3354,636.2969 L1234.3354,626.2969 L985,626.2969 " fill="#FEFFDD" style="stroke:#181818;stroke-width:0.5;"/><path d="M1234.3354,626.2969 L1234.3354,636.2969 L1244.3354,636.2969 L1234.3354,626.2969 " fill="#FEFFDD" style="stroke:#181818;stroke-width:1;"/><text fill="#000000" font-family="sans-serif" font-size="13" font-weight="bold" lengthAdjust="spacing" textLength="106.2026" x="991" y="643.3638">Preconditions:</text><text fill="#000000" font-family="sans-serif" font-size="13" lengthAdjust="spacing" textLength="235.4282" x="991" y="658.4966">&#8226; File validated (.py, &#8804;10MB, UTF-8)</text><text fill="#000000" font-family="sans-serif" font-size="13" lengthAdjust="spacing" textLength="210.6851" x="991" y="673.6294">&#8226; User authenticated (JWT valid)</text><text fill="#000000" font-family="sans-serif" font-size="13" lengthAdjust="spacing" textLength="238.3354" x="991" y="688.7622">&#8226; Daily quota not exceeded (10/day)</text><text fill="#000000" font-family="sans-serif" font-size="13" lengthAdjust="spacing" textLength="215.6235" x="991" y="703.895">&#8226; No concurrent analysis for user</text></g><g id="elem_GMN5"><path d="M631,618.7969 L631,665.2969 L595.7,669.2969 L631,673.2969 L631,719.5938 A0,0 0 0 0 631,719.5938 L949.6924,719.5938 A0,0 0 0 0 949.6924,719.5938 L949.6924,628.7969 L939.6924,618.7969 L631,618.7969 A0,0 0 0 0 631,618.7969 " fill="#FEFFDD" style="stroke:#181818;stroke-width:0.5;"/><path d="M939.6924,618.7969 L939.6924,628.7969 L949.6924,628.7969 L939.6924,618.7969 " fill="#FEFFDD" style="stroke:#181818;stroke-width:0.5;"/><text fill="#000000" font-family="sans-serif" font-size="13" font-weight="bold" lengthAdjust="spacing" textLength="137.2935" x="637" y="635.8638">Parallel Execution:</text><text fill="#000000" font-family="sans-serif" font-size="13" lengthAdjust="spacing" textLength="258.2925" x="637" y="650.9966">&#8226; ThreadPoolExecutor(max_workers=4)</text><text fill="#000000" font-family="sans-serif" font-size="13" lengthAdjust="spacing" textLength="222.168" x="637" y="666.1294">&#8226; Each agent timeout: 30 seconds</text><text fill="#000000" font-family="sans-serif" font-size="13" lengthAdjust="spacing" textLength="263.4912" x="637" y="681.2622">&#8226; WebSocket updates: every completion</text><text fill="#000000" font-family="sans-serif" font-size="13" lengthAdjust="spacing" textLength="222.4028" x="637" y="696.395">&#8226; Graceful degradation on failures</text><text fill="#000000" font-family="sans-serif" font-size="13" lengthAdjust="spacing" textLength="297.6924" x="637" y="711.5278">&#8226; Progress: 0% &#8594; 25% &#8594; 50% &#8594; 75% &#8594; 100%</text></g><g id="elem_GMN8"><path d="M526.5,1366.2969 L526.5,1573.0234 A0,0 0 0 0 526.5,1573.0234 L772.5498,1573.0234 A0,0 0 0 0 772.5498,1573.0234 L772.5498,1376.2969 L762.5498,1366.2969 L653.5,1366.2969 L649.5,1274.5269 L645.5,1366.2969 L526.5,1366.2969 A0,0 0 0 0 526.5,1366.2969 " fill="#FEFFDD" style="stroke:#181818;stroke-width:0.5;"/><path d="M762.5498,1366.2969 L762.5498,1376.2969 L772.5498,1376.2969 L762.5498,1366.2969 " fill="#FEFFDD" style="stroke:#181818;stroke-width:0.5;"/><text fill="#000000" font-family="sans-serif" font-size="13" font-weight="bold" lengthAdjust="spacing" textLength="168.4097" x="532.5" y="1383.3638">Quality Score Formula:</text><text fill="#000000" font-family="sans-serif" font-size="13" lengthAdjust="spacing" textLength="225.0498" x="532.5" y="1398.4966">score = max(0, 100 - &#931;(penalties))</text><text fill="#000000" font-family="sans-serif" font-size="13" lengthAdjust="spacing" textLength="4.1323" x="532.5" y="1413.6294">&#160;</text><text fill="#000000" font-family="sans-serif" font-size="13" font-weight="bold" lengthAdjust="spacing" textLength="73.252" x="532.5" y="1428.7622">Penalties:</text><text fill="#000000" font-family="sans-serif" font-size="13" lengthAdjust="spacing" textLength="131.0728" x="532.5" y="1443.895">&#8226; Critical: -10 points</text><text fill="#000000" font-family="sans-serif" font-size="13" lengthAdjust="spacing" textLength="107.2119" x="532.5" y="1459.0278">&#8226; High: -5 points</text><text fill="#000000" font-family="sans-serif" font-size="13" lengthAdjust="spacing" textLength="129.3145" x="532.5" y="1474.1606">&#8226; Medium: -2 points</text><text fill="#000000" font-family="sans-serif" font-size="13" lengthAdjust="spacing" textLength="96.3892" x="532.5" y="1489.2935">&#8226; Low: -1 point</text><text fill="#000000" font-family="sans-serif" font-size="13" lengthAdjust="spacing" textLength="4.1323" x="532.5" y="1504.4263">&#160;</text><text fill="#000000" font-family="sans-serif" font-size="13" font-weight="bold" lengthAdjust="spacing" textLength="75.0991" x="532.5" y="1519.5591">Examples:</text><text fill="#000000" font-family="sans-serif" font-size="13" lengthAdjust="spacing" textLength="163.4585" x="532.5" y="1534.6919">&#8226; 0 findings: score = 100</text><text fill="#000000" font-family="sans-serif" font-size="13" lengthAdjust="spacing" textLength="147.1704" x="532.5" y="1549.8247">&#8226; 1 critical: score = 90</text><text fill="#000000" font-family="sans-serif" font-size="13" lengthAdjust="spacing" textLength="207.0732" x="532.5" y="1564.9575">&#8226; 2 critical + 3 high: score = 65</text></g><g id="elem_GMN11"><path d="M241.5,1100.7969 L241.5,1177.2969 L206.15,1181.2969 L241.5,1185.2969 L241.5,1262.125 A0,0 0 0 0 241.5,1262.125 L489.7397,1262.125 A0,0 0 0 0 489.7397,1262.125 L489.7397,1110.7969 L479.7397,1100.7969 L241.5,1100.7969 A0,0 0 0 0 241.5,1100.7969 " fill="#FEFFDD" style="stroke:#181818;stroke-width:0.5;"/><path d="M479.7397,1100.7969 L479.7397,1110.7969 L489.7397,1110.7969 L479.7397,1100.7969 " fill="#FEFFDD" style="stroke:#181818;stroke-width:0.5;"/><text fill="#000000" font-family="sans-serif" font-size="13" font-weight="bold" lengthAdjust="spacing" textLength="159.8784" x="247.5" y="1117.8638">Common Fatal Errors:</text><text fill="#000000" font-family="sans-serif" font-size="13" lengthAdjust="spacing" textLength="195.3999" x="247.5" y="1132.9966">&#8226; SyntaxError (invalid Python)</text><text fill="#000000" font-family="sans-serif" font-size="13" lengthAdjust="spacing" textLength="193.3877" x="247.5" y="1148.1294">&#8226; MemoryError (file too large)</text><text fill="#000000" font-family="sans-serif" font-size="13" lengthAdjust="spacing" textLength="179.5879" x="247.5" y="1163.2622">&#8226; DatabaseConnectionError</text><text fill="#000000" font-family="sans-serif" font-size="13" lengthAdjust="spacing" textLength="165.8706" x="247.5" y="1178.395">&#8226; UnexpectedAgentCrash</text><text fill="#000000" font-family="sans-serif" font-size="13" lengthAdjust="spacing" textLength="4.1323" x="247.5" y="1193.5278">&#160;</text><text fill="#000000" font-family="sans-serif" font-size="13" font-weight="bold" lengthAdjust="spacing" textLength="131.7266" x="247.5" y="1208.6606">Recovery Actions:</text><text fill="#000000" font-family="sans-serif" font-size="13" lengthAdjust="spacing" textLength="99.1885" x="247.5" y="1223.7935">&#8226; Log to Sentry</text><text fill="#000000" font-family="sans-serif" font-size="13" lengthAdjust="spacing" textLength="214.7603" x="247.5" y="1238.9263">&#8226; Email admin if &#8805;3 failures/hour</text><text fill="#000000" font-family="sans-serif" font-size="13" lengthAdjust="spacing" textLength="227.2397" x="247.5" y="1254.0591">&#8226; User sees friendly error message</text></g><!--link *start* to PENDING--><g id="link_*start*_PENDING"><path d="M745.5,63.5269 C745.5,81.3169 745.5,115.5869 745.5,149.2969 " fill="none" id="*start*-to-PENDING" style="stroke:#181818;stroke-width:1;"/><polygon fill="#181818" points="745.5,155.2969,749.5,146.2969,745.5,150.2969,741.5,146.2969,745.5,155.2969" style="stroke:#181818;stroke-width:1;"/><text fill="#000000" font-family="sans-serif" font-size="13" lengthAdjust="spacing" textLength="108.7417" x="760.9441" y="106.3638">User uploads file</text><text fill="#000000" font-family="sans-serif" font-size="13" lengthAdjust="spacing" textLength="137.6299" x="746.5" y="121.4966">POST /api/v1/analyze</text></g><!--link PENDING to PROCESSING--><g id="link_PENDING_PROCESSING"><path d="M686.89,265.4569 C663.21,288.3469 636.17,315.8069 613.5,342.2969 C607.59,349.1969 605.5026,351.6122 599.5926,358.7622 " fill="none" id="PENDING-to-PROCESSING" style="stroke:#181818;stroke-width:1;"/><polygon fill="#181818" points="595.77,363.3869,604.587,358.9983,598.9555,359.533,598.4208,353.9015,595.77,363.3869" style="stroke:#181818;stroke-width:1;"/><text fill="#000000" font-family="sans-serif" font-size="13" lengthAdjust="spacing" textLength="228.3125" x="656.5" y="308.3638">OrchestratorAgent.analyze() called</text></g><!--link PROCESSING to COMPLETED--><g id="link_PROCESSING_COMPLETED"><path d="M551.49,996.5369 C569.17,1029.6669 583.0865,1055.7628 597.5665,1082.9128 " fill="none" id="PROCESSING-to-COMPLETED" style="stroke:#181818;stroke-width:1;"/><polygon fill="#181818" points="600.39,1088.2069,599.6841,1078.3833,598.0371,1083.7951,592.6253,1082.1481,600.39,1088.2069" style="stroke:#181818;stroke-width:1;"/><text fill="#000000" font-family="sans-serif" font-size="13" lengthAdjust="spacing" textLength="129.4287" x="585.5" y="1039.3638">All agents complete</text><text fill="#000000" font-family="sans-serif" font-size="13" lengthAdjust="spacing" textLength="125.1948" x="587.6169" y="1054.4966">AND no fatal errors</text></g><!--link PROCESSING to FAILED--><g id="link_PROCESSING_FAILED"><path d="M204.15,996.5369 C185.3,1032.0069 170.326,1060.1887 155.226,1088.5987 " fill="none" id="PROCESSING-to-FAILED" style="stroke:#181818;stroke-width:1;"/><polygon fill="#181818" points="152.41,1093.8969,160.1661,1087.827,154.7566,1089.4818,153.1019,1084.0723,152.41,1093.8969" style="stroke:#181818;stroke-width:1;"/><text fill="#000000" font-family="sans-serif" font-size="13" lengthAdjust="spacing" textLength="129.7969" x="218.1404" y="1039.3638">Fatal error occurred</text><text fill="#000000" font-family="sans-serif" font-size="13" lengthAdjust="spacing" textLength="189.0776" x="188.5" y="1054.4966">(parse error, DB unavailable)</text></g><!--link COMPLETED to *end*--><g id="link_COMPLETED_*end*"><path d="M552.97,1274.5069 C544.05,1284.2969 535.41,1294.3169 527.5,1304.2969 C483.88,1359.3369 446.2743,1428.8268 432.9143,1454.4468 " fill="none" id="COMPLETED-to-*end*" style="stroke:#181818;stroke-width:1;"/><polygon fill="#181818" points="430.14,1459.7669,437.8481,1453.6362,432.4519,1455.3335,430.7547,1449.9372,430.14,1459.7669" style="stroke:#181818;stroke-width:1;"/><text fill="#000000" font-family="sans-serif" font-size="13" lengthAdjust="spacing" textLength="112.3853" x="528.5" y="1317.3638">Analysis finalized</text><text fill="#000000" font-family="sans-serif" font-size="13" lengthAdjust="spacing" textLength="101.7402" x="533.8225" y="1332.4966">(terminal state)</text></g><!--link FAILED to *end*--><g id="link_FAILED_*end*"><path d="M202.64,1268.6469 C282.63,1340.4769 383.5366,1431.1072 413.0466,1457.6172 " fill="none" id="FAILED-to-*end*" style="stroke:#181818;stroke-width:1;"/><polygon fill="#181818" points="417.51,1461.6269,413.488,1452.6367,413.7905,1458.2855,408.1417,1458.588,417.51,1461.6269" style="stroke:#181818;stroke-width:1;"/><text fill="#000000" font-family="sans-serif" font-size="13" lengthAdjust="spacing" textLength="88.8926" x="283.9238" y="1317.3638">Error handled</text><text fill="#000000" font-family="sans-serif" font-size="13" lengthAdjust="spacing" textLength="101.7402" x="277.5" y="1332.4966">(terminal state)</text></g><!--link PENDING to GMN2--><g id="link_PENDING_GMN2"><path d="M843.51,251.7769 C886.19,273.4269 934.01,303.6669 967.5,342.2969 C1042.44,428.7269 1085.65,559.6169 1103.99,626.1969 " fill="none" id="PENDING-GMN2" style="stroke:#181818;stroke-width:1;stroke-dasharray:7.0,7.0;"/></g><!--SRC=[XLVRRXit47tNLmmI19PSkvPyQLeX2Q18AzU5BwfNHb0aWK3lZYJ2ArBXScqhHO0-5SbhFw6Nt-b7-4iw9FUYNQrJmx0jyWp9ENFculY6YoLJR07NBBYPAPc8i2yZgU3fq7uruXmHQwOHVcq0l2vZNxpWWclEebUluAdtV7X4PZMWfP81nZ4NCuCRUiE3_lCwN9m41cT0WywmvntLWL0fgTmvthwtRo1IXQZIntUymtRFl68eXVRvHuHEf_6fqT1SHmY-zMJ0sSpujGjz6U8btdAy0qyGP0MdV8h1AeYmqNYx_HvsTr_1o3iVd9mVGnUkObIGB2F9mXYcFC9tOdJXZs6FBVdURMUF2HQjFfAfOompNAV9i5WSkBrDrweLi41pAUBkzdPf- -6tFw6lq9orzbAqBzq0-begfCr0hPOQGmZ8OX8G2uJV1AEsOKrYU0bRwTxM1kmO1IfplVKivl64Xz2ykZePj6gF3EnZmmdJeFa2wOR5qh2V8IsTbnTzp_UTuOKAvWIZEwJgpUYbtwOSDbiGi2Z2C2UpCAieobAwVcWzg-i8yrvlmJNqpdkdl_Wd_iGVzox7tW3mDgMh2Zzn8JIA6i_9pN0aPUJTOv3Gqvk7hJgR2ilvzbOLlEd1857atMDFjzSY708pdCN01PXK9RwYnrqzzix7a_x5sUZKopsDw-0_CX5IijYpRHnbGdSq3zfnhPTdagYXtAEWp1H51PQe0Z8b-__tqxkdftqzKBqP7JkpAemYIZiH4ZEr3_VdYGxbdG1CumAKvm5EaoWo-KBVJajFhDHI6kdc9y1Yi6jcoGeA84l_oqG8kj1kntR7_d0dbJPJGwYiTaa70OLJhzorJQSVwBGUWV-SaCwgwFt7q2DKKwaMJ0HOjZXupCBNgwY2FNJOJuL_PID3XFrpxEH0fsH_uNs065B1oGHIQnj5VRbOHaYSTSsdJBcX55XSMhbYU_iuZH-4IA4CcOcMaya6s4gHgPjKjnJHBQFTS4BRMuyP-EmMJUgOr0OIRnAbCQx1zgcMSf4Wt74z1wddr0nOHHKbiqt7HwPk4LNsXCrhFzbQMQZQ750aR8ct83tqdUYT3q18c39DPzdk66Srix1TRwv6fUkdrfRBTO1rdaL14fb3FpXrJkB0z9jcUxVJRhTgB4YNr31qdh2W9L00sJMBiGPksqVgLAM1r8EBmfhlRjL0osM-Klug-0rYHZBMr493_XLcodmyVFuCRzixGAIyhm5hIL6Qv9Iy9C3L-RXfWvelrx5vQKL2FP7wPGYKyB1_27EPgBW6REUKW0amyy8UtY-bqhdCDYKsx9sSMjjXeI6G0TKiXU4xqIIXnkYMTs3m6XB1RXcFs7M4hKngwHd5V6PKbXzSAx5yrppvLCxIYqFKT3Zr6peuk05jAa2h2ZS2iF09YIGc-aXc68Lri48dRckh2Yeh9DtAv94ZA-xOfyvDeypRTEdGiM8YvgOGkPI4Xz__e10O4Zuac60LlqQzmoOcXa9gFkM1BNjLYr6vV53xHJAvnGqIUk62vWCMeJ9ZOPDFQKmZGTDurJ9YACHZj62w7XMQTDmpoMjd7YC3ZMfXFhhMrsgabnHMQwJK6ZJ87OHhgRLSW9ncyoEzbp9DOJNHB2qqPCCjFI5azl7VBbSxyF3bxqxxxFKEN8s7kz-tKgWLFKkeB0lZd8N_z6Rih3FGWAHb8a1fQCXTQrwTzbx8LXdkN58n4ZO3J2_9wI3_J60QA49ZZwbFYi_cshgKPvRpAXtAYb6ZSArcYbom-ycTL3TKELyUPa_nAENBirWN3jeGMxxY5FG6htqPt93SawMXAkuQ1PFOqfBgz6D7-fgE2lGz9MOIab0A6wN3N1VQpwmUzu_SxwFqy_FqCnMwPrKwYX3duh9qf8CD-BPK3cbgePRY677LyoKG1KrNFkdVit__QYwHkDSSurRBJN14QhPKSDbF1Tq5waQmbDmrPJlCKcXe-QYyUeOXJnQqlbzUFvLtvWotc5tetJD3ujfzxRohTVENqvFJtKwUOCNk3zdcVhu9ty01pEtpCjHtHuygosMRVGyD50kAc2iPDkdMdkQlQFA-TwdOvCAg7qOhFPUYbJk_a6gLGio_iTIM94HCpR384zUeQUOHQ8ksXMUf9gYdq3A6TjxfAnRFCx8kIPTMURsWaikcnDCCuADf1Pcu5oGxOBP2KM5w-FBFGQx4FTFUrfCxHgGKL5HLGqfYrotIyb_GzXy0]--></g></svg>