<svg xmlns="http://www.w3.org/2000/svg" xmlns:xlink="http://www.w3.org/1999/xlink" contentStyleType="text/css" height="1952px" preserveAspectRatio="none" style="width:1242px;height:1952px;background:#FFFFFF;" version="1.1" viewBox="0 0 1242 1952" width="1242px" zoomAndPan="magnify"><title>State Diagram - Analysis Status (User Perspective)</title><defs/><g><text fill="#000000" font-family="sans-serif" font-size="14" font-weight="bold" lengthAdjust="spacing" textLength="402.9648" x="412.9507" y="22.9951">State Diagram - Analysis Status (User Perspective)</text><g id="SUBMITTED"><rect fill="#E7F5FF" height="135.2422" rx="12.5" ry="12.5" style="stroke:#1E40AF;stroke-width:0.5;" width="178.9521" x="540" y="140.2969"/><line style="stroke:#1E40AF;stroke-width:0.5;" x1="540" x2="718.9521" y1="163.1016" y2="163.1016"/><text fill="#000000" font-family="sans-serif" font-size="11" lengthAdjust="spacing" textLength="64.1738" x="597.3892" y="155.5073">SUBMITTED</text><text fill="#000000" font-family="sans-serif" font-size="11" font-weight="bold" lengthAdjust="spacing" textLength="64.6089" x="545" y="178.312">User sees:</text><text fill="#000000" font-family="sans-serif" font-size="11" lengthAdjust="spacing" textLength="154.0269" x="545" y="191.1167">"File uploaded successfully"</text><text fill="#000000" font-family="sans-serif" font-size="11" lengthAdjust="spacing" textLength="130.3833" x="545" y="203.9214">"Queued for analysis..."</text><text fill="#000000" font-family="sans-serif" font-size="11" lengthAdjust="spacing" textLength="3.4966" x="545" y="216.7261">&#160;</text><text fill="#000000" font-family="sans-serif" font-size="11" font-weight="bold" lengthAdjust="spacing" textLength="50.2197" x="545" y="229.5308">System:</text><text fill="#000000" font-family="sans-serif" font-size="11" lengthAdjust="spacing" textLength="83.8374" x="545" y="242.3354">&#8226; File validated</text><text fill="#000000" font-family="sans-serif" font-size="11" lengthAdjust="spacing" textLength="158.9521" x="545" y="255.1401">&#8226; CodeReview entity created</text><text fill="#000000" font-family="sans-serif" font-size="11" lengthAdjust="spacing" textLength="130.3726" x="545" y="267.9448">&#8226; analysis_id generated</text></g><path d="M284.5,367.2969 L510.7412,367.2969 A12.5,12.5 0 0 1 523.2412,379.7969 L523.2412,535.9531 L272,535.9531 L272,379.7969 A12.5,12.5 0 0 1 284.5,367.2969 " fill="#FEF3C7" style="stroke:#FEF3C7;stroke-width:1;"/><rect fill="none" height="688.4609" rx="12.5" ry="12.5" style="stroke:#1E40AF;stroke-width:0.5;" width="251.2412" x="272" y="367.2969"/><line style="stroke:#1E40AF;stroke-width:0.5;" x1="272" x2="523.2412" y1="535.9531" y2="535.9531"/><line style="stroke:#1E40AF;stroke-width:0.5;" x1="272" x2="523.2412" y1="390.1016" y2="390.1016"/><text fill="#000000" font-family="sans-serif" font-size="11" lengthAdjust="spacing" textLength="76.9893" x="359.126" y="382.5073">IN_PROGRESS</text><text fill="#000000" font-family="sans-serif" font-size="11" font-weight="bold" lengthAdjust="spacing" textLength="64.6089" x="277" y="400.312">User sees:</text><text fill="#000000" font-family="sans-serif" font-size="11" lengthAdjust="spacing" textLength="156.186" x="277" y="413.1167">Real-time progress updates:</text><text fill="#000000" font-family="sans-serif" font-size="11" lengthAdjust="spacing" textLength="201.1206" x="277" y="425.9214">&#8226; "Security Agent: Running..." (25%)</text><text fill="#000000" font-family="sans-serif" font-size="11" lengthAdjust="spacing" textLength="195.2554" x="277" y="438.7261">&#8226; "Quality Agent: Running..." (50%)</text><text fill="#000000" font-family="sans-serif" font-size="11" lengthAdjust="spacing" textLength="226.2412" x="277" y="451.5308">&#8226; "Performance Agent: Running..." (75%)</text><text fill="#000000" font-family="sans-serif" font-size="11" lengthAdjust="spacing" textLength="190.5771" x="277" y="464.3354">&#8226; "Style Agent: Running..." (100%)</text><text fill="#000000" font-family="sans-serif" font-size="11" lengthAdjust="spacing" textLength="3.4966" x="277" y="477.1401">&#160;</text><text fill="#000000" font-family="sans-serif" font-size="11" font-weight="bold" lengthAdjust="spacing" textLength="50.2197" x="277" y="489.9448">System:</text><text fill="#000000" font-family="sans-serif" font-size="11" lengthAdjust="spacing" textLength="173.814" x="277" y="502.7495">&#8226; 4 agents executing in parallel</text><text fill="#000000" font-family="sans-serif" font-size="11" lengthAdjust="spacing" textLength="171.6763" x="277" y="515.5542">&#8226; WebSocket events streaming</text><text fill="#000000" font-family="sans-serif" font-size="11" lengthAdjust="spacing" textLength="138.3916" x="277" y="528.3589">&#8226; Progress bar animating</text><path d="M296.5,547.9531 L415.3511,547.9531 A12.5,12.5 0 0 1 427.8511,560.4531 L427.8511,570.7578 L284,570.7578 L284,560.4531 A12.5,12.5 0 0 1 296.5,547.9531 " fill="#F1F1F1" style="stroke:#F1F1F1;stroke-width:1;"/><rect fill="none" height="497.8047" rx="12.5" ry="12.5" style="stroke:#1E40AF;stroke-width:0.5;" width="143.8511" x="284" y="547.9531"/><line style="stroke:#1E40AF;stroke-width:0.5;" x1="284" x2="427.8511" y1="570.7578" y2="570.7578"/><text fill="#000000" font-family="sans-serif" font-size="11" lengthAdjust="spacing" textLength="83.6763" x="314.0874" y="563.1636">Agent Progress</text><ellipse cx="357.5" cy="591.7578" fill="#222222" rx="10" ry="10" style="stroke:#222222;stroke-width:1;"/><g id="IN_PROGRESS.Progress.Agent1"><rect fill="#F1F1F1" height="58.4141" rx="12.5" ry="12.5" style="stroke:#1E40AF;stroke-width:0.5;" width="97.7305" x="308.5" y="637.7578"/><line style="stroke:#1E40AF;stroke-width:0.5;" x1="308.5" x2="406.2305" y1="660.5625" y2="660.5625"/><text fill="#000000" font-family="sans-serif" font-size="11" lengthAdjust="spacing" textLength="39.5581" x="337.5862" y="652.9683">Agent1</text><text fill="#000000" font-family="sans-serif" font-size="11" lengthAdjust="spacing" textLength="77.7305" x="313.5" y="675.7729">SecurityAgent</text><text fill="#000000" font-family="sans-serif" font-size="11" lengthAdjust="spacing" textLength="66.6929" x="313.5" y="688.5776">(0% &#8594; 25%)</text></g><g id="IN_PROGRESS.Progress.Agent2"><rect fill="#F1F1F1" height="58.4141" rx="12.5" ry="12.5" style="stroke:#1E40AF;stroke-width:0.5;" width="93.6914" x="310.5" y="731.7578"/><line style="stroke:#1E40AF;stroke-width:0.5;" x1="310.5" x2="404.1914" y1="754.5625" y2="754.5625"/><text fill="#000000" font-family="sans-serif" font-size="11" lengthAdjust="spacing" textLength="39.5581" x="337.5667" y="746.9683">Agent2</text><text fill="#000000" font-family="sans-serif" font-size="11" lengthAdjust="spacing" textLength="71.8652" x="315.5" y="769.7729">QualityAgent</text><text fill="#000000" font-family="sans-serif" font-size="11" lengthAdjust="spacing" textLength="73.6914" x="315.5" y="782.5776">(25% &#8594; 50%)</text></g><g id="IN_PROGRESS.Progress.Agent3"><rect fill="#F1F1F1" height="58.4141" rx="12.5" ry="12.5" style="stroke:#1E40AF;stroke-width:0.5;" width="122.8511" x="296" y="825.7578"/><line style="stroke:#1E40AF;stroke-width:0.5;" x1="296" x2="418.8511" y1="848.5625" y2="848.5625"/><text fill="#000000" font-family="sans-serif" font-size="11" lengthAdjust="spacing" textLength="39.5581" x="337.6465" y="840.9683">Agent3</text><text fill="#000000" font-family="sans-serif" font-size="11" lengthAdjust="spacing" textLength="102.8511" x="301" y="863.7729">PerformanceAgent</text><text fill="#000000" font-family="sans-serif" font-size="11" lengthAdjust="spacing" textLength="73.6914" x="301" y="876.5776">(50% &#8594; 75%)</text></g><g id="IN_PROGRESS.Progress.Agent4"><rect fill="#F1F1F1" height="58.4141" rx="12.5" ry="12.5" style="stroke:#1E40AF;stroke-width:0.5;" width="100.6899" x="307" y="919.7578"/><line style="stroke:#1E40AF;stroke-width:0.5;" x1="307" x2="407.6899" y1="942.5625" y2="942.5625"/><text fill="#000000" font-family="sans-serif" font-size="11" lengthAdjust="spacing" textLength="39.5581" x="337.5659" y="934.9683">Agent4</text><text fill="#000000" font-family="sans-serif" font-size="11" lengthAdjust="spacing" textLength="60.1885" x="312" y="957.7729">StyleAgent</text><text fill="#000000" font-family="sans-serif" font-size="11" lengthAdjust="spacing" textLength="80.6899" x="312" y="970.5776">(75% &#8594; 100%)</text></g><ellipse cx="357.5" cy="1024.7578" fill="none" rx="11" ry="11" style="stroke:#222222;stroke-width:1;"/><ellipse cx="357.5" cy="1024.7578" fill="#222222" rx="6" ry="6" style="stroke:#222222;stroke-width:1;"/><!--link *start*Progress to Agent1--><g id="link_*start*Progress_Agent1"><path d="M357.5,602.0078 C357.5,610.9778 357.5,619.0678 357.5,631.7178 " fill="none" id="*start*Progress-to-Agent1" style="stroke:#181818;stroke-width:1;"/><polygon fill="#181818" points="357.5,637.7178,361.5,628.7178,357.5,632.7178,353.5,628.7178,357.5,637.7178" style="stroke:#181818;stroke-width:1;"/></g><!--link Agent1 to Agent2--><g id="link_Agent1_Agent2"><path d="M357.5,695.8578 C357.5,707.1678 357.5,714.1878 357.5,725.5078 " fill="none" id="Agent1-to-Agent2" style="stroke:#181818;stroke-width:1;"/><polygon fill="#181818" points="357.5,731.5078,361.5,722.5078,357.5,726.5078,353.5,722.5078,357.5,731.5078" style="stroke:#181818;stroke-width:1;"/></g><!--link Agent2 to Agent3--><g id="link_Agent2_Agent3"><path d="M357.5,789.8578 C357.5,801.1678 357.5,808.1878 357.5,819.5078 " fill="none" id="Agent2-to-Agent3" style="stroke:#181818;stroke-width:1;"/><polygon fill="#181818" points="357.5,825.5078,361.5,816.5078,357.5,820.5078,353.5,816.5078,357.5,825.5078" style="stroke:#181818;stroke-width:1;"/></g><!--link Agent3 to Agent4--><g id="link_Agent3_Agent4"><path d="M357.5,883.8578 C357.5,895.1678 357.5,902.1878 357.5,913.5078 " fill="none" id="Agent3-to-Agent4" style="stroke:#181818;stroke-width:1;"/><polygon fill="#181818" points="357.5,919.5078,361.5,910.5078,357.5,914.5078,353.5,910.5078,357.5,919.5078" style="stroke:#181818;stroke-width:1;"/></g><!--link Agent4 to *end*Progress--><g id="link_Agent4_*end*Progress"><path d="M357.5,978.1578 C357.5,990.5478 357.5,998.2978 357.5,1007.4278 " fill="none" id="Agent4-to-*end*Progress" style="stroke:#181818;stroke-width:1;"/><polygon fill="#181818" points="357.5,1013.4278,361.5,1004.4278,357.5,1008.4278,353.5,1004.4278,357.5,1013.4278" style="stroke:#181818;stroke-width:1;"/></g><g id="COMPLETED"><rect fill="#D1FAE5" height="173.6563" rx="12.5" ry="12.5" style="stroke:#1E40AF;stroke-width:0.5;" width="199.4482" x="75" y="1185.2969"/><line style="stroke:#1E40AF;stroke-width:0.5;" x1="75" x2="274.4482" y1="1208.1016" y2="1208.1016"/><text fill="#000000" font-family="sans-serif" font-size="11" lengthAdjust="spacing" textLength="67.6812" x="140.8835" y="1200.5073">COMPLETED</text><text fill="#000000" font-family="sans-serif" font-size="11" font-weight="bold" lengthAdjust="spacing" textLength="64.6089" x="80" y="1223.312">User sees:</text><text fill="#000000" font-family="sans-serif" font-size="11" lengthAdjust="spacing" textLength="126.457" x="80" y="1236.1167">"&#9989; Analysis Complete!"</text><text fill="#000000" font-family="sans-serif" font-size="11" lengthAdjust="spacing" textLength="129.873" x="80" y="1248.9214">"Quality Score: 72/100"</text><text fill="#000000" font-family="sans-serif" font-size="11" lengthAdjust="spacing" textLength="156.041" x="80" y="1261.7261">"11 issues found (1 critical)"</text><text fill="#000000" font-family="sans-serif" font-size="11" lengthAdjust="spacing" textLength="168.0669" x="80" y="1274.5308">[View Detailed Results button]</text><text fill="#000000" font-family="sans-serif" font-size="11" lengthAdjust="spacing" textLength="3.4966" x="80" y="1287.3354">&#160;</text><text fill="#000000" font-family="sans-serif" font-size="11" font-weight="bold" lengthAdjust="spacing" textLength="50.2197" x="80" y="1300.1401">System:</text><text fill="#000000" font-family="sans-serif" font-size="11" lengthAdjust="spacing" textLength="179.4482" x="80" y="1312.9448">&#8226; Findings persisted to database</text><text fill="#000000" font-family="sans-serif" font-size="11" lengthAdjust="spacing" textLength="142.8066" x="80" y="1325.7495">&#8226; Quality score calculated</text><text fill="#000000" font-family="sans-serif" font-size="11" lengthAdjust="spacing" textLength="169.5225" x="80" y="1338.5542">&#8226; WebSocket sends final event</text><text fill="#000000" font-family="sans-serif" font-size="11" lengthAdjust="spacing" textLength="149.6763" x="80" y="1351.3589">&#8226; Results ready for viewing</text></g><g id="COMPLETED_WITH_WARNINGS"><rect fill="#FDE68A" height="186.4609" rx="12.5" ry="12.5" style="stroke:#1E40AF;stroke-width:0.5;" width="325.0083" x="309" y="1179.2969"/><line style="stroke:#1E40AF;stroke-width:0.5;" x1="309" x2="634.0083" y1="1202.1016" y2="1202.1016"/><text fill="#000000" font-family="sans-serif" font-size="11" lengthAdjust="spacing" textLength="169.0444" x="386.9819" y="1194.5073">COMPLETED_WITH_WARNINGS</text><text fill="#000000" font-family="sans-serif" font-size="11" font-weight="bold" lengthAdjust="spacing" textLength="64.6089" x="314" y="1217.312">User sees:</text><text fill="#000000" font-family="sans-serif" font-size="11" lengthAdjust="spacing" textLength="221.1763" x="314" y="1230.1167">"&#9888;&#65039; Analysis Completed (with warnings)"</text><text fill="#000000" font-family="sans-serif" font-size="11" lengthAdjust="spacing" textLength="177.3643" x="314" y="1242.9214">"Quality Score: 65/100 (partial)"</text><text fill="#000000" font-family="sans-serif" font-size="11" lengthAdjust="spacing" textLength="89.6274" x="314" y="1255.7261">"8 issues found"</text><text fill="#000000" font-family="sans-serif" font-size="11" lengthAdjust="spacing" textLength="3.4966" x="314" y="1268.5308">&#160;</text><text fill="#000000" font-family="sans-serif" font-size="11" font-weight="bold" lengthAdjust="spacing" textLength="115.2905" x="314" y="1281.3354">Warning message:</text><text fill="#000000" font-family="sans-serif" font-size="11" lengthAdjust="spacing" textLength="305.0083" x="314" y="1294.1401">"SecurityAgent timed out. Results may be incomplete."</text><text fill="#000000" font-family="sans-serif" font-size="11" lengthAdjust="spacing" textLength="3.4966" x="314" y="1306.9448">&#160;</text><text fill="#000000" font-family="sans-serif" font-size="11" font-weight="bold" lengthAdjust="spacing" textLength="50.2197" x="314" y="1319.7495">System:</text><text fill="#000000" font-family="sans-serif" font-size="11" lengthAdjust="spacing" textLength="128.396" x="314" y="1332.5542">&#8226; Partial findings saved</text><text fill="#000000" font-family="sans-serif" font-size="11" lengthAdjust="spacing" textLength="200.374" x="314" y="1345.3589">&#8226; Quality score marked as degraded</text><text fill="#000000" font-family="sans-serif" font-size="11" lengthAdjust="spacing" textLength="150.439" x="314" y="1358.1636">&#8226; User can still view results</text></g><g id="FAILED"><rect fill="#FEE2E2" height="250.4844" rx="12.5" ry="12.5" style="stroke:#1E40AF;stroke-width:0.5;" width="232.8081" x="711" y="1147.2969"/><line style="stroke:#1E40AF;stroke-width:0.5;" x1="711" x2="943.8081" y1="1170.1016" y2="1170.1016"/><text fill="#000000" font-family="sans-serif" font-size="11" lengthAdjust="spacing" textLength="38.645" x="808.0815" y="1162.5073">FAILED</text><text fill="#000000" font-family="sans-serif" font-size="11" font-weight="bold" lengthAdjust="spacing" textLength="64.6089" x="716" y="1185.312">User sees:</text><text fill="#000000" font-family="sans-serif" font-size="11" lengthAdjust="spacing" textLength="101.9648" x="716" y="1198.1167">"&#10060; Analysis Failed"</text><text fill="#000000" font-family="sans-serif" font-size="11" lengthAdjust="spacing" textLength="183.165" x="716" y="1210.9214">"We couldn't analyze your code."</text><text fill="#000000" font-family="sans-serif" font-size="11" lengthAdjust="spacing" textLength="3.4966" x="716" y="1223.7261">&#160;</text><text fill="#000000" font-family="sans-serif" font-size="11" font-weight="bold" lengthAdjust="spacing" textLength="73.8848" x="716" y="1236.5308">Error types:</text><text fill="#000000" font-family="sans-serif" font-size="11" lengthAdjust="spacing" textLength="204.2896" x="716" y="1249.3354">&#8226; "Syntax Error: Invalid Python code"</text><text fill="#000000" font-family="sans-serif" font-size="11" lengthAdjust="spacing" textLength="212.8081" x="716" y="1262.1401">&#8226; "File Too Large: Exceeds 10MB limit"</text><text fill="#000000" font-family="sans-serif" font-size="11" lengthAdjust="spacing" textLength="187.5962" x="716" y="1274.9448">&#8226; "System Error: Please try again"</text><text fill="#000000" font-family="sans-serif" font-size="11" lengthAdjust="spacing" textLength="3.4966" x="716" y="1287.7495">&#160;</text><text fill="#000000" font-family="sans-serif" font-size="11" font-weight="bold" lengthAdjust="spacing" textLength="110.3115" x="716" y="1300.5542">Actions available:</text><text fill="#000000" font-family="sans-serif" font-size="11" lengthAdjust="spacing" textLength="126.9351" x="716" y="1313.3589">[Retry Analysis button]</text><text fill="#000000" font-family="sans-serif" font-size="11" lengthAdjust="spacing" textLength="161.7183" x="716" y="1326.1636">[Upload Different File button]</text><text fill="#000000" font-family="sans-serif" font-size="11" lengthAdjust="spacing" textLength="3.4966" x="716" y="1338.9683">&#160;</text><text fill="#000000" font-family="sans-serif" font-size="11" font-weight="bold" lengthAdjust="spacing" textLength="50.2197" x="716" y="1351.7729">System:</text><text fill="#000000" font-family="sans-serif" font-size="11" lengthAdjust="spacing" textLength="130.5283" x="716" y="1364.5776">&#8226; error_message stored</text><text fill="#000000" font-family="sans-serif" font-size="11" lengthAdjust="spacing" textLength="149.8267" x="716" y="1377.3823">&#8226; Admin notified (if critical)</text><text fill="#000000" font-family="sans-serif" font-size="11" lengthAdjust="spacing" textLength="90.9111" x="716" y="1390.187">&#8226; Metrics logged</text></g><g id="VIEWING_RESULTS"><rect fill="#F1F1F1" height="186.4609" rx="12.5" ry="12.5" style="stroke:#1E40AF;stroke-width:0.5;" width="224.9233" x="256" y="1474.2969"/><line style="stroke:#1E40AF;stroke-width:0.5;" x1="256" x2="480.9233" y1="1497.1016" y2="1497.1016"/><text fill="#000000" font-family="sans-serif" font-size="11" lengthAdjust="spacing" textLength="103.5493" x="316.687" y="1489.5073">VIEWING_RESULTS</text><text fill="#000000" font-family="sans-serif" font-size="11" font-weight="bold" lengthAdjust="spacing" textLength="64.6089" x="261" y="1512.312">User sees:</text><text fill="#000000" font-family="sans-serif" font-size="11" lengthAdjust="spacing" textLength="154.7896" x="261" y="1525.1167">&#8226; Quality score visualization</text><text fill="#000000" font-family="sans-serif" font-size="11" lengthAdjust="spacing" textLength="200.4707" x="261" y="1537.9214">&#8226; Findings table (sortable, filterable)</text><text fill="#000000" font-family="sans-serif" font-size="11" lengthAdjust="spacing" textLength="180.603" x="261" y="1550.7261">&#8226; Code viewer with line numbers</text><text fill="#000000" font-family="sans-serif" font-size="11" lengthAdjust="spacing" textLength="204.9233" x="261" y="1563.5308">&#8226; AI explanations (expandable cards)</text><text fill="#000000" font-family="sans-serif" font-size="11" lengthAdjust="spacing" textLength="157.6201" x="261" y="1576.3354">&#8226; Export options (JSON, PDF)</text><text fill="#000000" font-family="sans-serif" font-size="11" lengthAdjust="spacing" textLength="3.4966" x="261" y="1589.1401">&#160;</text><text fill="#000000" font-family="sans-serif" font-size="11" font-weight="bold" lengthAdjust="spacing" textLength="81.501" x="261" y="1601.9448">User actions:</text><text fill="#000000" font-family="sans-serif" font-size="11" lengthAdjust="spacing" textLength="102.6899" x="261" y="1614.7495">&#8226; Filter by severity</text><text fill="#000000" font-family="sans-serif" font-size="11" lengthAdjust="spacing" textLength="90.2881" x="261" y="1627.5542">&#8226; Filter by agent</text><text fill="#000000" font-family="sans-serif" font-size="11" lengthAdjust="spacing" textLength="191.2593" x="261" y="1640.3589">&#8226; Click finding &#8594; view detail modal</text><text fill="#000000" font-family="sans-serif" font-size="11" lengthAdjust="spacing" textLength="83.3271" x="261" y="1653.1636">&#8226; Export report</text></g><g id="EXPORTED"><rect fill="#F1F1F1" height="109.6328" rx="12.5" ry="12.5" style="stroke:#1E40AF;stroke-width:0.5;" width="293.3457" x="97" y="1737.2969"/><line style="stroke:#1E40AF;stroke-width:0.5;" x1="97" x2="390.3457" y1="1760.1016" y2="1760.1016"/><text fill="#000000" font-family="sans-serif" font-size="11" lengthAdjust="spacing" textLength="59.5601" x="213.8928" y="1752.5073">EXPORTED</text><text fill="#000000" font-family="sans-serif" font-size="11" font-weight="bold" lengthAdjust="spacing" textLength="64.6089" x="102" y="1775.312">User sees:</text><text fill="#000000" font-family="sans-serif" font-size="11" lengthAdjust="spacing" textLength="187.5049" x="102" y="1788.1167">"Report downloaded successfully"</text><text fill="#000000" font-family="sans-serif" font-size="11" lengthAdjust="spacing" textLength="3.4966" x="102" y="1800.9214">&#160;</text><text fill="#000000" font-family="sans-serif" font-size="11" font-weight="bold" lengthAdjust="spacing" textLength="55.5854" x="102" y="1813.7261">Formats:</text><text fill="#000000" font-family="sans-serif" font-size="11" lengthAdjust="spacing" textLength="159.9297" x="102" y="1826.5308">&#8226; JSON: codereview_123.json</text><text fill="#000000" font-family="sans-serif" font-size="11" lengthAdjust="spacing" textLength="273.3457" x="102" y="1839.3354">&#8226; PDF: codereview_123.pdf (with AI explanations)</text></g><ellipse cx="629.5" cy="53.2969" fill="#222222" rx="10" ry="10" style="stroke:#222222;stroke-width:1;"/><ellipse cx="351.5" cy="1935.2969" fill="none" rx="11" ry="11" style="stroke:#222222;stroke-width:1;"/><ellipse cx="351.5" cy="1935.2969" fill="#222222" rx="6" ry="6" style="stroke:#222222;stroke-width:1;"/><g id="elem_GMN2"><path d="M754,164.7969 L754,203.7969 L719.36,207.7969 L754,211.7969 L754,250.4609 A0,0 0 0 0 754,250.4609 L936.624,250.4609 A0,0 0 0 0 936.624,250.4609 L936.624,174.7969 L926.624,164.7969 L754,164.7969 A0,0 0 0 0 754,164.7969 " fill="#FEFFDD" style="stroke:#181818;stroke-width:0.5;"/><path d="M926.624,164.7969 L926.624,174.7969 L936.624,174.7969 L926.624,164.7969 " fill="#FEFFDD" style="stroke:#181818;stroke-width:0.5;"/><text fill="#000000" font-family="sans-serif" font-size="13" font-weight="bold" lengthAdjust="spacing" textLength="91.5522" x="760" y="181.8638">Initial State:</text><text fill="#000000" font-family="sans-serif" font-size="13" lengthAdjust="spacing" textLength="161.624" x="760" y="196.9966">&#8226; File uploaded to server</text><text fill="#000000" font-family="sans-serif" font-size="13" lengthAdjust="spacing" textLength="127.1499" x="760" y="212.1294">&#8226; Validation passed</text><text fill="#000000" font-family="sans-serif" font-size="13" lengthAdjust="spacing" textLength="122.2749" x="760" y="227.2622">&#8226; Waiting in queue</text><text fill="#000000" font-family="sans-serif" font-size="13" lengthAdjust="spacing" textLength="131.917" x="760" y="242.395">&#8226; Duration: &lt;100ms</text></g><g id="elem_GMN5"><path d="M558.5,668.2969 L558.5,707.2969 L523.2,711.2969 L558.5,715.2969 L558.5,753.9609 A0,0 0 0 0 558.5,753.9609 L792.4321,753.9609 A0,0 0 0 0 792.4321,753.9609 L792.4321,678.2969 L782.4321,668.2969 L558.5,668.2969 A0,0 0 0 0 558.5,668.2969 " fill="#FEFFDD" style="stroke:#181818;stroke-width:0.5;"/><path d="M782.4321,668.2969 L782.4321,678.2969 L792.4321,678.2969 L782.4321,668.2969 " fill="#FEFFDD" style="stroke:#181818;stroke-width:0.5;"/><text fill="#000000" font-family="sans-serif" font-size="13" font-weight="bold" lengthAdjust="spacing" textLength="94.834" x="564.5" y="685.3638">Active State:</text><text fill="#000000" font-family="sans-serif" font-size="13" lengthAdjust="spacing" textLength="208.3936" x="564.5" y="700.4966">&#8226; Real-time WebSocket updates</text><text fill="#000000" font-family="sans-serif" font-size="13" lengthAdjust="spacing" textLength="179.2324" x="564.5" y="715.6294">&#8226; Progress bar: 0% &#8594; 100%</text><text fill="#000000" font-family="sans-serif" font-size="13" lengthAdjust="spacing" textLength="196.0156" x="564.5" y="730.7622">&#8226; Agent status cards updating</text><text fill="#000000" font-family="sans-serif" font-size="13" lengthAdjust="spacing" textLength="212.9321" x="564.5" y="745.895">&#8226; Duration: 3-8 seconds (typical)</text></g><g id="elem_GMN8"><path d="M6,1524.2969 L6,1609.9609 A0,0 0 0 0 6,1609.9609 L220.5718,1609.9609 A0,0 0 0 0 220.5718,1609.9609 L220.5718,1534.2969 L210.5718,1524.2969 L126.29,1524.2969 L156.53,1359.6169 L118.29,1524.2969 L6,1524.2969 A0,0 0 0 0 6,1524.2969 " fill="#FEFFDD" style="stroke:#181818;stroke-width:0.5;"/><path d="M210.5718,1524.2969 L210.5718,1534.2969 L220.5718,1534.2969 L210.5718,1524.2969 " fill="#FEFFDD" style="stroke:#181818;stroke-width:0.5;"/><text fill="#000000" font-family="sans-serif" font-size="13" font-weight="bold" lengthAdjust="spacing" textLength="188.4175" x="12" y="1541.3638">Success State (Terminal):</text><text fill="#000000" font-family="sans-serif" font-size="13" lengthAdjust="spacing" textLength="150.9536" x="12" y="1556.4966">&#8226; User can view results</text><text fill="#000000" font-family="sans-serif" font-size="13" lengthAdjust="spacing" textLength="127.6768" x="12" y="1571.6294">&#8226; Can export report</text><text fill="#000000" font-family="sans-serif" font-size="13" lengthAdjust="spacing" textLength="170.4155" x="12" y="1586.7622">&#8226; Can analyze another file</text><text fill="#000000" font-family="sans-serif" font-size="13" lengthAdjust="spacing" textLength="193.5718" x="12" y="1601.895">&#8226; Results cached for 24 hours</text></g><g id="elem_GMN11"><path d="M516.5,1524.2969 L516.5,1609.9609 L774.3057,1609.9609 L774.3057,1534.2969 L764.3057,1524.2969 L516.5,1524.2969 " fill="#FEFFDD" style="stroke:#181818;stroke-width:0.5;"/><path d="M764.3057,1524.2969 L764.3057,1534.2969 L774.3057,1534.2969 L764.3057,1524.2969 " fill="#FEFFDD" style="stroke:#181818;stroke-width:1;"/><text fill="#000000" font-family="sans-serif" font-size="13" font-weight="bold" lengthAdjust="spacing" textLength="160.564" x="522.5" y="1541.3638">Partial Success State:</text><text fill="#000000" font-family="sans-serif" font-size="13" lengthAdjust="spacing" textLength="164.3027" x="522.5" y="1556.4966">&#8226; Some agents timed out</text><text fill="#000000" font-family="sans-serif" font-size="13" lengthAdjust="spacing" textLength="164.0171" x="522.5" y="1571.6294">&#8226; Partial results available</text><text fill="#000000" font-family="sans-serif" font-size="13" lengthAdjust="spacing" textLength="236.8057" x="522.5" y="1586.7622">&#8226; Quality score marked as degraded</text><text fill="#000000" font-family="sans-serif" font-size="13" lengthAdjust="spacing" textLength="204.2803" x="522.5" y="1601.895">&#8226; User warned but can proceed</text></g><g id="elem_GMN14"><path d="M979,1229.2969 L979,1268.2969 L944.26,1272.2969 L979,1276.2969 L979,1314.9609 A0,0 0 0 0 979,1314.9609 L1235.8662,1314.9609 A0,0 0 0 0 1235.8662,1314.9609 L1235.8662,1239.2969 L1225.8662,1229.2969 L979,1229.2969 A0,0 0 0 0 979,1229.2969 " fill="#FEFFDD" style="stroke:#181818;stroke-width:0.5;"/><path d="M1225.8662,1229.2969 L1225.8662,1239.2969 L1235.8662,1239.2969 L1225.8662,1229.2969 " fill="#FEFFDD" style="stroke:#181818;stroke-width:0.5;"/><text fill="#000000" font-family="sans-serif" font-size="13" font-weight="bold" lengthAdjust="spacing" textLength="167.1401" x="985" y="1246.3638">Error State (Terminal):</text><text fill="#000000" font-family="sans-serif" font-size="13" lengthAdjust="spacing" textLength="171.2153" x="985" y="1261.4966">&#8226; Analysis cannot proceed</text><text fill="#000000" font-family="sans-serif" font-size="13" lengthAdjust="spacing" textLength="225.2974" x="985" y="1276.6294">&#8226; User can retry or upload new file</text><text fill="#000000" font-family="sans-serif" font-size="13" lengthAdjust="spacing" textLength="228.96" x="985" y="1291.7622">&#8226; Admin notified if &#8805;3 failures/hour</text><text fill="#000000" font-family="sans-serif" font-size="13" lengthAdjust="spacing" textLength="235.8662" x="985" y="1306.895">&#8226; Error logged to monitoring system</text></g><!--link *start* to SUBMITTED--><g id="link_*start*_SUBMITTED"><path d="M629.5,63.3769 C629.5,78.5769 629.5,104.4369 629.5,134.2769 " fill="none" id="*start*-to-SUBMITTED" style="stroke:#181818;stroke-width:1;"/><polygon fill="#181818" points="629.5,140.2769,633.5,131.2769,629.5,135.2769,625.5,131.2769,629.5,140.2769" style="stroke:#181818;stroke-width:1;"/><text fill="#000000" font-family="sans-serif" font-size="13" lengthAdjust="spacing" textLength="174.313" x="630.5" y="106.3638">User clicks "Analyze Code"</text></g><!--link SUBMITTED to IN_PROGRESS--><g id="link_SUBMITTED_IN_PROGRESS"><path d="M589.84,275.3569 C573.77,303.3569 555.5,336.5169 540.5,367.2969 C534.71,379.1869 531.4589,385.9358 525.7189,398.2858 " fill="none" id="SUBMITTED-to-IN_PROGRESS" style="stroke:#181818;stroke-width:1;"/><polygon fill="#181818" points="523.19,403.7269,530.6107,397.2512,525.2974,399.1927,523.3559,393.8794,523.19,403.7269" style="stroke:#181818;stroke-width:1;"/><text fill="#000000" font-family="sans-serif" font-size="13" lengthAdjust="spacing" textLength="94.7451" x="620.4126" y="318.3638">Analysis starts</text><text fill="#000000" font-family="sans-serif" font-size="13" lengthAdjust="spacing" textLength="186.5703" x="574.5" y="333.4966">(OrchestratorAgent invoked)</text></g><!--link IN_PROGRESS to COMPLETED--><g id="link_IN_PROGRESS_COMPLETED"><path d="M271.99,1026.9269 C248.76,1085.1469 228.5835,1135.7241 211.1235,1179.4841 " fill="none" id="IN_PROGRESS-to-COMPLETED" style="stroke:#181818;stroke-width:1;"/><polygon fill="#181818" points="208.9,1185.0569,215.9505,1178.18,210.7529,1180.4129,208.5201,1175.2153,208.9,1185.0569" style="stroke:#181818;stroke-width:1;"/><text fill="#000000" font-family="sans-serif" font-size="13" lengthAdjust="spacing" textLength="129.4287" x="253.5432" y="1098.3638">All agents complete</text><text fill="#000000" font-family="sans-serif" font-size="13" lengthAdjust="spacing" textLength="139.5151" x="248.5" y="1113.4966">AND no critical errors</text></g><!--link IN_PROGRESS to COMPLETED_WITH_WARNINGS--><g id="link_IN_PROGRESS_COMPLETED_WITH_WARNINGS"><path d="M442.94,1055.5769 C448.93,1100.8169 453.8228,1137.7587 458.5128,1173.1987 " fill="none" id="IN_PROGRESS-to-COMPLETED_WITH_WARNINGS" style="stroke:#181818;stroke-width:1;"/><polygon fill="#181818" points="459.3,1179.1469,462.0847,1169.6999,458.644,1174.1901,454.1538,1170.7494,459.3,1179.1469" style="stroke:#181818;stroke-width:1;"/><text fill="#000000" font-family="sans-serif" font-size="13" lengthAdjust="spacing" textLength="152.5024" x="466.8169" y="1098.3638">Some agents timed out</text><text fill="#000000" font-family="sans-serif" font-size="13" lengthAdjust="spacing" textLength="183.1362" x="451.5" y="1113.4966">BUT partial results available</text></g><!--link IN_PROGRESS to FAILED--><g id="link_IN_PROGRESS_FAILED"><path d="M523.25,1038.2669 C528.76,1044.2069 534.51,1049.8969 540.5,1055.2969 C574.96,1086.3669 600.63,1061.5569 640.5,1085.2969 C657.32,1095.3169 679.5059,1115.1557 707.2759,1142.7757 " fill="none" id="IN_PROGRESS-to-FAILED" style="stroke:#181818;stroke-width:1;"/><polygon fill="#181818" points="711.53,1147.0069,707.9696,1137.8241,707.9849,1143.4809,702.3281,1143.4962,711.53,1147.0069" style="stroke:#181818;stroke-width:1;"/><text fill="#000000" font-family="sans-serif" font-size="13" lengthAdjust="spacing" textLength="129.7969" x="690.2976" y="1098.3638">Fatal error occurred</text><text fill="#000000" font-family="sans-serif" font-size="13" lengthAdjust="spacing" textLength="149.3921" x="680.5" y="1113.4966">(parse error, DB crash)</text></g><!--link COMPLETED to VIEWING_RESULTS--><g id="link_COMPLETED_VIEWING_RESULTS"><path d="M196.93,1359.7169 C206.55,1388.0469 219.55,1418.7769 236.5,1444.2969 C243.32,1454.5669 247.2216,1460.0578 255.6316,1469.6378 " fill="none" id="COMPLETED-to-VIEWING_RESULTS" style="stroke:#181818;stroke-width:1;"/><polygon fill="#181818" points="259.59,1474.1469,256.6585,1464.7444,256.2914,1470.3893,250.6464,1470.0222,259.59,1474.1469" style="stroke:#181818;stroke-width:1;"/><text fill="#000000" font-family="sans-serif" font-size="13" lengthAdjust="spacing" textLength="168.4668" x="237.5" y="1440.3638">User clicks "View Results"</text></g><!--link COMPLETED_WITH_WARNINGS to VIEWING_RESULTS--><g id="link_COMPLETED_WITH_WARNINGS_VIEWING_RESULTS"><path d="M439.05,1365.5969 C426.87,1400.2369 415.0298,1433.9264 402.8598,1468.5464 " fill="none" id="COMPLETED_WITH_WARNINGS-to-VIEWING_RESULTS" style="stroke:#181818;stroke-width:1;"/><polygon fill="#181818" points="400.87,1474.2069,407.6284,1467.0428,402.5282,1469.4898,400.0811,1464.3897,400.87,1474.2069" style="stroke:#181818;stroke-width:1;"/><text fill="#000000" font-family="sans-serif" font-size="13" lengthAdjust="spacing" textLength="168.4668" x="418.5" y="1440.3638">User clicks "View Results"</text></g><!--link VIEWING_RESULTS to EXPORTED--><g id="link_VIEWING_RESULTS_EXPORTED"><path d="M316.76,1660.6069 C302.18,1686.6069 289.7336,1708.8129 276.8536,1731.7929 " fill="none" id="VIEWING_RESULTS-to-EXPORTED" style="stroke:#181818;stroke-width:1;"/><polygon fill="#181818" points="273.92,1737.0269,281.8096,1731.1317,276.3646,1732.6653,274.831,1727.2202,273.92,1737.0269" style="stroke:#181818;stroke-width:1;"/><text fill="#000000" font-family="sans-serif" font-size="13" lengthAdjust="spacing" textLength="126.9976" x="300.5" y="1703.3638">User exports report</text></g><!--link FAILED to SUBMITTED--><g id="link_FAILED_SUBMITTED"><path d="M847.29,1146.9869 C870.71,969.2169 896.53,634.3669 810.5,367.2969 C800.37,335.8569 792.63,328.8769 769.5,305.2969 C754.51,290.0169 741.6603,279.1612 723.9403,266.4112 " fill="none" id="FAILED-to-SUBMITTED" style="stroke:#181818;stroke-width:1;"/><polygon fill="#181818" points="719.07,262.9069,724.0392,271.4102,723.1286,265.8271,728.7117,264.9165,719.07,262.9069" style="stroke:#181818;stroke-width:1;"/><text fill="#000000" font-family="sans-serif" font-size="13" lengthAdjust="spacing" textLength="120.8403" x="870.5" y="715.8638">User clicks "Retry"</text></g><!--link EXPORTED to *end*--><g id="link_EXPORTED_*end*"><path d="M284.95,1847.4069 C307.55,1876.9169 329.611,1905.724 341.371,1921.074 " fill="none" id="EXPORTED-to-*end*" style="stroke:#181818;stroke-width:1;"/><polygon fill="#181818" points="345.02,1925.8369,342.7218,1916.2599,341.9792,1921.8678,336.3713,1921.1252,345.02,1925.8369" style="stroke:#181818;stroke-width:1;"/><text fill="#000000" font-family="sans-serif" font-size="13" lengthAdjust="spacing" textLength="84.9951" x="321.5" y="1890.3638">Session ends</text></g><!--link VIEWING_RESULTS to *end*--><g id="link_VIEWING_RESULTS_*end*"><path d="M425.25,1660.5669 C429.4,1670.3369 432.95,1680.3469 435.5,1690.2969 C451.37,1752.1669 561.33,1659.3069 414.5,1894.2969 C402.28,1913.8569 382.235,1923.4961 367.715,1928.8061 " fill="none" id="VIEWING_RESULTS-to-*end*" style="stroke:#181818;stroke-width:1;"/><polygon fill="#181818" points="362.08,1930.8669,371.9063,1931.5324,366.7758,1929.1496,369.1587,1924.0191,362.08,1930.8669" style="stroke:#181818;stroke-width:1;"/><text fill="#000000" font-family="sans-serif" font-size="13" lengthAdjust="spacing" textLength="135.751" x="491.5" y="1796.8638">User navigates away</text></g><!--link COMPLETED_WITH_WARNINGS to GMN11--><g id="link_COMPLETED_WITH_WARNINGS_GMN11"><path d="M553.81,1365.4569 C568.93,1385.0369 583.65,1406.1969 595.5,1427.2969 C612.76,1458.0469 625.91,1495.8669 634.38,1524.2869 " fill="none" id="COMPLETED_WITH_WARNINGS-GMN11" style="stroke:#181818;stroke-width:1;stroke-dasharray:7.0,7.0;"/></g><!--SRC=[fLZlQYH54F- -Jr6EY4cun6p-c2CS1vlihgxS9RbiSX5E2RqplPisCzDhzypcLZdmYu8W27uK1H5y1vydB-0hMDNTytysT-8Hk6JwLrLTLR-ghcvzA-8vKoo22VDlPqgcSN0iGwdW_Q7vrz4vGYSiuV1j1-2eYdtov8w9HCIpfq_X_S71S1_5Ma1p9NskjSCD1yFTuuCsd4vzmX6etnts1ljj8AwKL5RFO6UmqsgFgKImq83wWuyVzmWaLS2Lyx0xsDlkqLQ7Cax6uXiEtMxdJQUJY2JaC3RkzWMRaVERq8jPkDH2cuLKmzgbvWhEkD9pxYTYmTSxdLSRNyBcvbCONnuz7rrS3Ffm20RcXyA_rU0P9MZeM0RSwtHiI0jqEP8KwBAUZGsZINEk3pSsQelUKE2MqtaeMS03S26Sfc6uzEhG5obF4JF5433dqzRMLXtMi3vUweH7JTFtt_q9nlg2XI90Vu8M0FbxpXU2tm6FCRvBy1LVWSqsTIq2cF6OAuF3l1H0Yl7evFhi_FIJyy5uZ89vTZ2aAj5Vn6kdoh_XEa5fgNge9m4HB-Gj3zQpk9SrrEX9mQyQQ8I_kdpEMRYPY8W3wfafL8JPe6ZemmQMdFJ6t4yL1SBi3HMaSOosAHEmjhF_mNgxs8iKexn2QdzxbHIo5DCTiTZdhP87A-sDasNOBjFTRZFN4hSoSPeMze2HSWtyDKQ4k8zv0keuOSZ3Lf4hFXbB_vOdm1T65BFCMOIYhV2pB24JHemN4Kii57yi4JpBZmpe0TE555418AjiW-oQJ_PND9Abqdn0vcr_0FS__08kYJam5zyflkwWk4jf9erYHjnbCmVcuhl5rrqKB-KsKx7lTd1GsS5keMAl-Bf73b2IC-43Pp_BRuuZQGm3Vdf3rLWED2qTdpu_UpQmPTmBmoojlepc8K_u5t7lf0-nnCB73kUp44mBrran5kBb4u22NrRSgCBoedV_s_T58pXsXj_pwh2iXiQ-LFmG3dO-GbyRg6uNXDOfrzWfyL11mkTRNw-3NxsapjRd2SD6660pq6c8la_I997nbpLmmwLoWPHNR6UD0sIhXZaUD09n0IGIiB6m2TEyHI1pJfDpW9lrqz0rsZgqg2FDum3z536bXMgg1PqvXQKMBCtfGUsSAkaXCbnVZIu-lRxgdP-CJZwXYXnBx96E6zGl0v0fqkxeyWBSWOqMh2Msm72oISWR7AbfBP_r5SOqhA_cJmFgtV_wnpz__zma55BXJYGtSCSKTKDTPKDJJurk7-yJtM3DRVbjqeyhB7mO_1RNh-o68SBQmWoyDG2LlbOaQokdGiIMCE7OhxCYt_fV-skjWmREj7J7b6bM7PejgXHl5QlMHiGKJWFKwmEECrxm3WhiBCTYF3S4jZWpppYsjbN1i3TwPkfdYFNg6Xv87wEgU82j5YcWkVty2Ff7s5-Olid74oTTpBf4xLnbWydvYdV_-qy5QuUc9NaLm1Ks1fc6GVnXOgSjd4YNCaNNS4pRgc2h9WV6WsGvRnYrmy8oJjXhCAX36CLc8eIpPN8ZOwFRQuYOoV52IdZ6558I1gzzph4NTRUV7q4e8f5uBMQ89vcPiv1Z9uH4BR6jC14_iFqUpkaoBZMMcXElpZcfoMDNzEy2ScbcRBmNJATSKLqO3rgGLTDbRbUyCSczTYM9l49c1dLCBy3X1i_EH4m5jHynBOwYElOvkY1y3Q6SpUpON3HoukJBqU0A6NsD9BryTZ6kNr3CGURgs-kigeR_hCXHkYv3Z6xgQL2x2MbMyq9e-liRHYbUAPCVfmcb7zQqLEQtHzXAmWIl6lZx-affkiMOeiVTcICW5367E8qcU3YlbEgDSBQTXrXebdrh-1UB0xC1dwb0hpOuU3t73OASEydFngSdZ-2iFsmNUIYQp7B_eO0EJGXWWY758O0w_pj0pL6-EcB4XgnDcx7IzCp0J4eGoO25RtDUSVgFY5o74Gi7dv-TdfSksjm8wKpAyIv74U5A8WscbTQySwC20daNhxXMbz1rlKCQoPEcLdACidXe-g4oL-BhxixkrbVQqBO6nLGtaFDWwYQG6hFMAKYk6Jpu2c7QdDV9RRd9tbnby0QCpPhcmTPuMvZH5hE5cD4D5zWTMtOws9yuA36xGS9E2-FerCR6A1Rcm3QFAZOe-Rj1_cg1WotgHUQvrPVsGO7sCsTQcxvevbRxHaBtnA_fBSDzxgVAW0_X2GvOaUwW4zGqUNrhfMFQRAvddc_gUojkzCMSxAxq3b6-M1x2Td5jSkjsRjBskSXKkbLWRv_LBUzkFaRdVKbp-1eUiBQtrpoOI3nb8d8XRyp6WR7bfNkoMhlWAg9HVhrm9XzSAYEBNJl6pxnIQyNtR3fWQFy6LM2Nv7byx13eC__6FIVjxC4DZX7w7VPTFL2C5zbGL_6cSA7ruf1bOkND0TvryCkZH6CzhkA9RW9cdeKGiOfCjjwC0tOwMfs4VAv0lQWaLrrBaJ9326goXG4nPgmKzzemWBF0_Oz_xS8KFKxH_uye0mvgDsGd0QgkI68PIaMreyqyKdZrBm00]--></g></svg>