<svg xmlns="http://www.w3.org/2000/svg" xmlns:xlink="http://www.w3.org/1999/xlink" contentStyleType="text/css" height="1411px" preserveAspectRatio="none" style="width:1964px;height:1411px;background:#FFFFFF;" version="1.1" viewBox="0 0 1964 1411" width="1964px" zoomAndPan="magnify"><title>Entity-Relationship Diagram - CodeGuard AI Database</title><defs/><g><text fill="#000000" font-family="sans-serif" font-size="14" font-weight="bold" lengthAdjust="spacing" textLength="426.166" x="762.2229" y="22.9951">Entity-Relationship Diagram - CodeGuard AI Database</text><!--class users--><g id="elem_users"><rect codeLine="19" fill="#E7F5FF" height="243.5625" id="users" rx="2.5" ry="2.5" style="stroke:#1E40AF;stroke-width:0.5;" width="255.7764" x="1426.5" y="44.2969"/><ellipse cx="1531.2231" cy="60.2969" fill="#ADD1B2" rx="11" ry="11" style="stroke:#181818;stroke-width:1;"/><path d="M1534.1919,65.9375 Q1533.6138,66.2344 1532.9731,66.375 Q1532.3325,66.5313 1531.6294,66.5313 Q1529.1294,66.5313 1527.8013,64.8906 Q1526.4888,63.2344 1526.4888,60.1094 Q1526.4888,56.9844 1527.8013,55.3281 Q1529.1294,53.6719 1531.6294,53.6719 Q1532.3325,53.6719 1532.9731,53.8281 Q1533.6294,53.9844 1534.1919,54.2813 L1534.1919,57 Q1533.5669,56.4219 1532.9731,56.1563 Q1532.3794,55.875 1531.7544,55.875 Q1530.4106,55.875 1529.7231,56.9531 Q1529.0356,58.0156 1529.0356,60.1094 Q1529.0356,62.2031 1529.7231,63.2813 Q1530.4106,64.3438 1531.7544,64.3438 Q1532.3794,64.3438 1532.9731,64.0781 Q1533.5669,63.7969 1534.1919,63.2188 L1534.1919,65.9375 Z " fill="#000000"/><text fill="#000000" font-family="sans-serif" font-size="14" lengthAdjust="spacing" textLength="37.8301" x="1551.7231" y="65.1436">users</text><line style="stroke:#1E40AF;stroke-width:0.5;" x1="1427.5" x2="1681.2764" y1="76.2969" y2="76.2969"/><text fill="#000000" font-family="sans-serif" font-size="14" font-weight="bold" lengthAdjust="spacing" textLength="46.4023" x="1432.5" y="93.292">PK: id</text><text fill="#000000" font-family="sans-serif" font-size="14" lengthAdjust="spacing" textLength="115.3018" x="1478.9023" y="93.292">: VARCHAR(255)</text><text fill="#000000" font-family="sans-serif" font-size="14" lengthAdjust="spacing" text-decoration="underline" textLength="38.6094" x="1432.5" y="109.5889">email</text><text fill="#000000" font-family="sans-serif" font-size="14" lengthAdjust="spacing" textLength="115.3018" x="1471.1094" y="109.5889">: VARCHAR(255)</text><text fill="#000000" font-family="sans-serif" font-size="14" lengthAdjust="spacing" textLength="155.0049" x="1432.5" y="125.8857">name: VARCHAR(255)</text><text fill="#000000" font-family="sans-serif" font-size="14" lengthAdjust="spacing" textLength="186.0879" x="1432.5" y="142.1826">avatar_url: VARCHAR(500)</text><text fill="#000000" font-family="sans-serif" font-size="14" lengthAdjust="spacing" textLength="243.7764" x="1432.5" y="158.4795">role: ENUM('DEVELOPER', 'ADMIN')</text><text fill="#000000" font-family="sans-serif" font-size="14" lengthAdjust="spacing" textLength="214.2998" x="1432.5" y="174.7764">daily_analysis_count: INTEGER</text><text fill="#000000" font-family="sans-serif" font-size="14" lengthAdjust="spacing" textLength="174.4258" x="1432.5" y="191.0732">last_analysis_date: DATE</text><text fill="#000000" font-family="sans-serif" font-size="14" lengthAdjust="spacing" textLength="165.0127" x="1432.5" y="207.3701">created_at: TIMESTAMP</text><text fill="#000000" font-family="sans-serif" font-size="14" lengthAdjust="spacing" textLength="169.5928" x="1432.5" y="223.667">updated_at: TIMESTAMP</text><line style="stroke:#1E40AF;stroke-width:1;" x1="1427.5" x2="1681.2764" y1="230.9688" y2="230.9688"/><text fill="#000000" font-family="sans-serif" font-size="14" lengthAdjust="spacing" textLength="59.4111" x="1432.5" y="247.9639">Indexes:</text><text fill="#000000" font-family="sans-serif" font-size="14" lengthAdjust="spacing" textLength="124.209" x="1432.5" y="264.2607">&#8226; idx_users_email</text><text fill="#000000" font-family="sans-serif" font-size="14" lengthAdjust="spacing" textLength="112.4238" x="1432.5" y="280.5576">&#8226; idx_users_role</text></g><!--class code_reviews--><g id="elem_code_reviews"><rect codeLine="35" fill="#E7F5FF" height="316.75" id="code_reviews" rx="2.5" ry="2.5" style="stroke:#1E40AF;stroke-width:0.5;" width="401.1973" x="423" y="365.2969"/><ellipse cx="572.0166" cy="381.2969" fill="#ADD1B2" rx="11" ry="11" style="stroke:#181818;stroke-width:1;"/><path d="M574.9854,386.9375 Q574.4072,387.2344 573.7666,387.375 Q573.126,387.5313 572.4229,387.5313 Q569.9229,387.5313 568.5947,385.8906 Q567.2822,384.2344 567.2822,381.1094 Q567.2822,377.9844 568.5947,376.3281 Q569.9229,374.6719 572.4229,374.6719 Q573.126,374.6719 573.7666,374.8281 Q574.4229,374.9844 574.9854,375.2813 L574.9854,378 Q574.3604,377.4219 573.7666,377.1563 Q573.1729,376.875 572.5479,376.875 Q571.2041,376.875 570.5166,377.9531 Q569.8291,379.0156 569.8291,381.1094 Q569.8291,383.2031 570.5166,384.2813 Q571.2041,385.3438 572.5479,385.3438 Q573.1729,385.3438 573.7666,385.0781 Q574.3604,384.7969 574.9854,384.2188 L574.9854,386.9375 Z " fill="#000000"/><text fill="#000000" font-family="sans-serif" font-size="14" lengthAdjust="spacing" textLength="94.6641" x="592.5166" y="386.1436">code_reviews</text><line style="stroke:#1E40AF;stroke-width:0.5;" x1="424" x2="823.1973" y1="397.2969" y2="397.2969"/><text fill="#000000" font-family="sans-serif" font-size="14" font-weight="bold" lengthAdjust="spacing" textLength="46.4023" x="429" y="414.292">PK: id</text><text fill="#000000" font-family="sans-serif" font-size="14" lengthAdjust="spacing" textLength="44.5703" x="475.4023" y="414.292">: UUID</text><text fill="#000000" font-family="sans-serif" font-size="14" font-style="italic" lengthAdjust="spacing" textLength="76.7129" x="429" y="430.5889">FK: user_id</text><text fill="#000000" font-family="sans-serif" font-size="14" lengthAdjust="spacing" textLength="115.3018" x="505.7129" y="430.5889">: VARCHAR(255)</text><text fill="#000000" font-family="sans-serif" font-size="14" lengthAdjust="spacing" textLength="176.3262" x="429" y="446.8857">filename: VARCHAR(500)</text><text fill="#000000" font-family="sans-serif" font-size="14" lengthAdjust="spacing" textLength="235.1357" x="429" y="463.1826">code_content: BYTEA (encrypted)</text><text fill="#000000" font-family="sans-serif" font-size="14" lengthAdjust="spacing" textLength="219.4609" x="429" y="479.4795">quality_score: INTEGER (0-100)</text><text fill="#000000" font-family="sans-serif" font-size="14" lengthAdjust="spacing" textLength="93.8301" x="429" y="495.7764">status: ENUM</text><text fill="#000000" font-family="sans-serif" font-size="14" lengthAdjust="spacing" textLength="165.1221" x="429" y="512.0732">total_findings: INTEGER</text><text fill="#000000" font-family="sans-serif" font-size="14" lengthAdjust="spacing" textLength="149.0713" x="429" y="528.3701">error_message: TEXT</text><text fill="#000000" font-family="sans-serif" font-size="14" lengthAdjust="spacing" textLength="165.0127" x="429" y="544.667">created_at: TIMESTAMP</text><text fill="#000000" font-family="sans-serif" font-size="14" lengthAdjust="spacing" textLength="185.6572" x="429" y="560.9639">completed_at: TIMESTAMP</text><line style="stroke:#1E40AF;stroke-width:1;" x1="424" x2="823.1973" y1="568.2656" y2="568.2656"/><text fill="#000000" font-family="sans-serif" font-size="14" lengthAdjust="spacing" textLength="59.4111" x="429" y="585.2607">Indexes:</text><text fill="#000000" font-family="sans-serif" font-size="14" lengthAdjust="spacing" textLength="151.9834" x="429" y="601.5576">&#8226; idx_reviews_user_id</text><text fill="#000000" font-family="sans-serif" font-size="14" lengthAdjust="spacing" textLength="144.6895" x="429" y="617.8545">&#8226; idx_reviews_status</text><text fill="#000000" font-family="sans-serif" font-size="14" lengthAdjust="spacing" textLength="194.7969" x="429" y="634.1514">&#8226; idx_reviews_created_desc</text><line style="stroke:#1E40AF;stroke-width:1;" x1="424" x2="823.1973" y1="641.4531" y2="641.4531"/><text fill="#000000" font-family="sans-serif" font-size="14" lengthAdjust="spacing" textLength="84.5947" x="429" y="658.4482">Constraints:</text><text fill="#000000" font-family="sans-serif" font-size="14" lengthAdjust="spacing" textLength="389.1973" x="429" y="674.7451">CHECK (quality_score &gt;= 0 AND quality_score &lt;= 100)</text></g><!--class agent_findings--><g id="elem_agent_findings"><rect codeLine="56" fill="#E7F5FF" height="325.0469" id="agent_findings" rx="2.5" ry="2.5" style="stroke:#1E40AF;stroke-width:0.5;" width="206.0176" x="520.5" y="759.2969"/><ellipse cx="567.7773" cy="775.2969" fill="#ADD1B2" rx="11" ry="11" style="stroke:#181818;stroke-width:1;"/><path d="M570.7461,780.9375 Q570.168,781.2344 569.5273,781.375 Q568.8867,781.5313 568.1836,781.5313 Q565.6836,781.5313 564.3555,779.8906 Q563.043,778.2344 563.043,775.1094 Q563.043,771.9844 564.3555,770.3281 Q565.6836,768.6719 568.1836,768.6719 Q568.8867,768.6719 569.5273,768.8281 Q570.1836,768.9844 570.7461,769.2813 L570.7461,772 Q570.1211,771.4219 569.5273,771.1563 Q568.9336,770.875 568.3086,770.875 Q566.9648,770.875 566.2773,771.9531 Q565.5898,773.0156 565.5898,775.1094 Q565.5898,777.2031 566.2773,778.2813 Q566.9648,779.3438 568.3086,779.3438 Q568.9336,779.3438 569.5273,779.0781 Q570.1211,778.7969 570.7461,778.2188 L570.7461,780.9375 Z " fill="#000000"/><text fill="#000000" font-family="sans-serif" font-size="14" lengthAdjust="spacing" textLength="102.9629" x="588.2773" y="780.1436">agent_findings</text><line style="stroke:#1E40AF;stroke-width:0.5;" x1="521.5" x2="725.5176" y1="791.2969" y2="791.2969"/><text fill="#000000" font-family="sans-serif" font-size="14" font-weight="bold" lengthAdjust="spacing" textLength="46.4023" x="526.5" y="808.292">PK: id</text><text fill="#000000" font-family="sans-serif" font-size="14" lengthAdjust="spacing" textLength="44.5703" x="572.9023" y="808.292">: UUID</text><text fill="#000000" font-family="sans-serif" font-size="14" font-style="italic" lengthAdjust="spacing" textLength="92.7842" x="526.5" y="824.5889">FK: review_id</text><text fill="#000000" font-family="sans-serif" font-size="14" lengthAdjust="spacing" textLength="44.5703" x="619.2842" y="824.5889">: UUID</text><text fill="#000000" font-family="sans-serif" font-size="14" lengthAdjust="spacing" textLength="194.0176" x="526.5" y="840.8857">agent_type: VARCHAR(100)</text><text fill="#000000" font-family="sans-serif" font-size="14" lengthAdjust="spacing" textLength="107.0371" x="526.5" y="857.1826">severity: ENUM</text><text fill="#000000" font-family="sans-serif" font-size="14" lengthAdjust="spacing" textLength="189.54" x="526.5" y="873.4795">issue_type: VARCHAR(200)</text><text fill="#000000" font-family="sans-serif" font-size="14" lengthAdjust="spacing" textLength="157.4932" x="526.5" y="889.7764">line_number: INTEGER</text><text fill="#000000" font-family="sans-serif" font-size="14" lengthAdjust="spacing" textLength="137.4023" x="526.5" y="906.0732">code_snippet: TEXT</text><text fill="#000000" font-family="sans-serif" font-size="14" lengthAdjust="spacing" textLength="107.625" x="526.5" y="922.3701">message: TEXT</text><text fill="#000000" font-family="sans-serif" font-size="14" lengthAdjust="spacing" textLength="121.3721" x="526.5" y="938.667">suggestion: TEXT</text><text fill="#000000" font-family="sans-serif" font-size="14" lengthAdjust="spacing" textLength="105.6563" x="526.5" y="954.9639">metrics: JSONB</text><text fill="#000000" font-family="sans-serif" font-size="14" lengthAdjust="spacing" textLength="155.2715" x="526.5" y="971.2607">ai_explanation: JSONB</text><text fill="#000000" font-family="sans-serif" font-size="14" lengthAdjust="spacing" textLength="167.6104" x="526.5" y="987.5576">mcp_references: TEXT[]</text><text fill="#000000" font-family="sans-serif" font-size="14" lengthAdjust="spacing" textLength="165.0127" x="526.5" y="1003.8545">created_at: TIMESTAMP</text><line style="stroke:#1E40AF;stroke-width:1;" x1="521.5" x2="725.5176" y1="1011.1563" y2="1011.1563"/><text fill="#000000" font-family="sans-serif" font-size="14" lengthAdjust="spacing" textLength="59.4111" x="526.5" y="1028.1514">Indexes:</text><text fill="#000000" font-family="sans-serif" font-size="14" lengthAdjust="spacing" textLength="169.6748" x="526.5" y="1044.4482">&#8226; idx_findings_review_id</text><text fill="#000000" font-family="sans-serif" font-size="14" lengthAdjust="spacing" textLength="159.5166" x="526.5" y="1060.7451">&#8226; idx_findings_severity</text><text fill="#000000" font-family="sans-serif" font-size="14" lengthAdjust="spacing" textLength="182.0068" x="526.5" y="1077.042">&#8226; idx_findings_agent_type</text></g><!--class agent_configs--><g id="elem_agent_configs"><rect codeLine="77" fill="#E7F5FF" height="178.375" id="agent_configs" rx="2.5" ry="2.5" style="stroke:#1E40AF;stroke-width:0.5;" width="236.0889" x="1289.5" y="434.7969"/><ellipse cx="1354.5063" cy="450.7969" fill="#ADD1B2" rx="11" ry="11" style="stroke:#181818;stroke-width:1;"/><path d="M1357.4751,456.4375 Q1356.897,456.7344 1356.2563,456.875 Q1355.6157,457.0313 1354.9126,457.0313 Q1352.4126,457.0313 1351.0845,455.3906 Q1349.772,453.7344 1349.772,450.6094 Q1349.772,447.4844 1351.0845,445.8281 Q1352.4126,444.1719 1354.9126,444.1719 Q1355.6157,444.1719 1356.2563,444.3281 Q1356.9126,444.4844 1357.4751,444.7813 L1357.4751,447.5 Q1356.8501,446.9219 1356.2563,446.6563 Q1355.6626,446.375 1355.0376,446.375 Q1353.6938,446.375 1353.0063,447.4531 Q1352.3188,448.5156 1352.3188,450.6094 Q1352.3188,452.7031 1353.0063,453.7813 Q1353.6938,454.8438 1355.0376,454.8438 Q1355.6626,454.8438 1356.2563,454.5781 Q1356.8501,454.2969 1357.4751,453.7188 L1357.4751,456.4375 Z " fill="#000000"/><text fill="#000000" font-family="sans-serif" font-size="14" lengthAdjust="spacing" textLength="97.5762" x="1375.0063" y="455.6436">agent_configs</text><line style="stroke:#1E40AF;stroke-width:0.5;" x1="1290.5" x2="1524.5889" y1="466.7969" y2="466.7969"/><text fill="#000000" font-family="sans-serif" font-size="14" font-weight="bold" lengthAdjust="spacing" textLength="46.4023" x="1295.5" y="483.792">PK: id</text><text fill="#000000" font-family="sans-serif" font-size="14" lengthAdjust="spacing" textLength="44.5703" x="1341.9023" y="483.792">: UUID</text><text fill="#000000" font-family="sans-serif" font-size="14" lengthAdjust="spacing" text-decoration="underline" textLength="78.7158" x="1295.5" y="500.0889">agent_type</text><text fill="#000000" font-family="sans-serif" font-size="14" lengthAdjust="spacing" textLength="115.3018" x="1374.2158" y="500.0889">: VARCHAR(100)</text><text fill="#000000" font-family="sans-serif" font-size="14" lengthAdjust="spacing" textLength="152.0313" x="1295.5" y="516.3857">is_enabled: BOOLEAN</text><text fill="#000000" font-family="sans-serif" font-size="14" lengthAdjust="spacing" textLength="131.7422" x="1295.5" y="532.6826">config_json: JSONB</text><text fill="#000000" font-family="sans-serif" font-size="14" font-style="italic" lengthAdjust="spacing" textLength="108.7871" x="1295.5" y="548.9795">FK: updated_by</text><text fill="#000000" font-family="sans-serif" font-size="14" lengthAdjust="spacing" textLength="115.3018" x="1404.2871" y="548.9795">: VARCHAR(255)</text><text fill="#000000" font-family="sans-serif" font-size="14" lengthAdjust="spacing" textLength="169.5928" x="1295.5" y="565.2764">updated_at: TIMESTAMP</text><line style="stroke:#1E40AF;stroke-width:1;" x1="1290.5" x2="1524.5889" y1="572.5781" y2="572.5781"/><text fill="#000000" font-family="sans-serif" font-size="14" lengthAdjust="spacing" textLength="59.4111" x="1295.5" y="589.5732">Indexes:</text><text fill="#000000" font-family="sans-serif" font-size="14" lengthAdjust="spacing" textLength="176.6201" x="1295.5" y="605.8701">&#8226; idx_configs_agent_type</text></g><!--class ai_config--><g id="elem_ai_config"><rect codeLine="89" fill="#E7F5FF" height="194.6719" id="ai_config" rx="2.5" ry="2.5" style="stroke:#1E40AF;stroke-width:0.5;" width="281.1787" x="1561" y="426.2969"/><ellipse cx="1666.1846" cy="442.2969" fill="#ADD1B2" rx="11" ry="11" style="stroke:#181818;stroke-width:1;"/><path d="M1669.1533,447.9375 Q1668.5752,448.2344 1667.9346,448.375 Q1667.2939,448.5313 1666.5908,448.5313 Q1664.0908,448.5313 1662.7627,446.8906 Q1661.4502,445.2344 1661.4502,442.1094 Q1661.4502,438.9844 1662.7627,437.3281 Q1664.0908,435.6719 1666.5908,435.6719 Q1667.2939,435.6719 1667.9346,435.8281 Q1668.5908,435.9844 1669.1533,436.2813 L1669.1533,439 Q1668.5283,438.4219 1667.9346,438.1563 Q1667.3408,437.875 1666.7158,437.875 Q1665.3721,437.875 1664.6846,438.9531 Q1663.9971,440.0156 1663.9971,442.1094 Q1663.9971,444.2031 1664.6846,445.2813 Q1665.3721,446.3438 1666.7158,446.3438 Q1667.3408,446.3438 1667.9346,446.0781 Q1668.5283,445.7969 1669.1533,445.2188 L1669.1533,447.9375 Z " fill="#000000"/><text fill="#000000" font-family="sans-serif" font-size="14" lengthAdjust="spacing" textLength="62.3096" x="1686.6846" y="447.1436">ai_config</text><line style="stroke:#1E40AF;stroke-width:0.5;" x1="1562" x2="1841.1787" y1="458.2969" y2="458.2969"/><text fill="#000000" font-family="sans-serif" font-size="14" font-weight="bold" lengthAdjust="spacing" textLength="46.4023" x="1567" y="475.292">PK: id</text><text fill="#000000" font-family="sans-serif" font-size="14" lengthAdjust="spacing" textLength="44.5703" x="1613.4023" y="475.292">: UUID</text><text fill="#000000" font-family="sans-serif" font-size="14" lengthAdjust="spacing" textLength="153.3164" x="1567" y="491.5889">ai_enabled: BOOLEAN</text><text fill="#000000" font-family="sans-serif" font-size="14" lengthAdjust="spacing" textLength="132.6787" x="1567" y="507.8857">model_type: ENUM</text><text fill="#000000" font-family="sans-serif" font-size="14" lengthAdjust="spacing" textLength="177.3516" x="1567" y="524.1826">rate_limit_daily: INTEGER</text><text fill="#000000" font-family="sans-serif" font-size="14" lengthAdjust="spacing" textLength="269.1787" x="1567" y="540.4795">budget_threshold_usd: DECIMAL(10,2)</text><text fill="#000000" font-family="sans-serif" font-size="14" lengthAdjust="spacing" textLength="246.9141" x="1567" y="556.7764">current_spend_usd: DECIMAL(10,6)</text><text fill="#000000" font-family="sans-serif" font-size="14" font-style="italic" lengthAdjust="spacing" textLength="108.7871" x="1567" y="573.0732">FK: updated_by</text><text fill="#000000" font-family="sans-serif" font-size="14" lengthAdjust="spacing" textLength="115.3018" x="1675.7871" y="573.0732">: VARCHAR(255)</text><text fill="#000000" font-family="sans-serif" font-size="14" lengthAdjust="spacing" textLength="169.5928" x="1567" y="589.3701">updated_at: TIMESTAMP</text><line style="stroke:#1E40AF;stroke-width:1;" x1="1562" x2="1841.1787" y1="596.6719" y2="596.6719"/><text fill="#000000" font-family="sans-serif" font-size="14" lengthAdjust="spacing" textLength="155.4766" x="1567" y="613.667">Note: Single row table</text></g><!--class ai_usage_metrics--><g id="elem_ai_usage_metrics"><rect codeLine="102" fill="#E7F5FF" height="259.8594" id="ai_usage_metrics" rx="2.5" ry="2.5" style="stroke:#1E40AF;stroke-width:0.5;" width="214.6377" x="7" y="791.7969"/><ellipse cx="49.6957" cy="807.7969" fill="#ADD1B2" rx="11" ry="11" style="stroke:#181818;stroke-width:1;"/><path d="M52.6644,813.4375 Q52.0863,813.7344 51.4457,813.875 Q50.805,814.0313 50.1019,814.0313 Q47.6019,814.0313 46.2738,812.3906 Q44.9613,810.7344 44.9613,807.6094 Q44.9613,804.4844 46.2738,802.8281 Q47.6019,801.1719 50.1019,801.1719 Q50.805,801.1719 51.4457,801.3281 Q52.1019,801.4844 52.6644,801.7813 L52.6644,804.5 Q52.0394,803.9219 51.4457,803.6563 Q50.8519,803.375 50.2269,803.375 Q48.8832,803.375 48.1957,804.4531 Q47.5082,805.5156 47.5082,807.6094 Q47.5082,809.7031 48.1957,810.7813 Q48.8832,811.8438 50.2269,811.8438 Q50.8519,811.8438 51.4457,811.5781 Q52.0394,811.2969 52.6644,810.7188 L52.6644,813.4375 Z " fill="#000000"/><text fill="#000000" font-family="sans-serif" font-size="14" lengthAdjust="spacing" textLength="121.0918" x="69.8502" y="812.6436">ai_usage_metrics</text><line style="stroke:#1E40AF;stroke-width:0.5;" x1="8" x2="220.6377" y1="823.7969" y2="823.7969"/><text fill="#000000" font-family="sans-serif" font-size="14" font-weight="bold" lengthAdjust="spacing" textLength="46.4023" x="13" y="840.792">PK: id</text><text fill="#000000" font-family="sans-serif" font-size="14" lengthAdjust="spacing" textLength="82.7148" x="59.4023" y="840.792">: BIGSERIAL</text><text fill="#000000" font-family="sans-serif" font-size="14" font-style="italic" lengthAdjust="spacing" textLength="92.7842" x="13" y="857.0889">FK: review_id</text><text fill="#000000" font-family="sans-serif" font-size="14" lengthAdjust="spacing" textLength="44.5703" x="105.7842" y="857.0889">: UUID</text><text fill="#000000" font-family="sans-serif" font-size="14" lengthAdjust="spacing" textLength="199.5615" x="13" y="873.3857">model_used: VARCHAR(100)</text><text fill="#000000" font-family="sans-serif" font-size="14" lengthAdjust="spacing" textLength="175.752" x="13" y="889.6826">prompt_tokens: INTEGER</text><text fill="#000000" font-family="sans-serif" font-size="14" lengthAdjust="spacing" textLength="202.6377" x="13" y="905.9795">completion_tokens: INTEGER</text><text fill="#000000" font-family="sans-serif" font-size="14" lengthAdjust="spacing" textLength="156.543" x="13" y="922.2764">total_tokens: INTEGER</text><text fill="#000000" font-family="sans-serif" font-size="14" lengthAdjust="spacing" textLength="175.3486" x="13" y="938.5732">cost_usd: DECIMAL(10,6)</text><text fill="#000000" font-family="sans-serif" font-size="14" lengthAdjust="spacing" textLength="149.9463" x="13" y="954.8701">latency_ms: INTEGER</text><text fill="#000000" font-family="sans-serif" font-size="14" lengthAdjust="spacing" textLength="144.2178" x="13" y="971.167">cache_hit: BOOLEAN</text><text fill="#000000" font-family="sans-serif" font-size="14" lengthAdjust="spacing" textLength="165.0127" x="13" y="987.4639">created_at: TIMESTAMP</text><line style="stroke:#1E40AF;stroke-width:1;" x1="8" x2="220.6377" y1="994.7656" y2="994.7656"/><text fill="#000000" font-family="sans-serif" font-size="14" lengthAdjust="spacing" textLength="59.4111" x="13" y="1011.7607">Indexes:</text><text fill="#000000" font-family="sans-serif" font-size="14" lengthAdjust="spacing" textLength="166.5303" x="13" y="1028.0576">&#8226; idx_metrics_review_id</text><text fill="#000000" font-family="sans-serif" font-size="14" lengthAdjust="spacing" textLength="193.2725" x="13" y="1044.3545">&#8226; idx_metrics_created_desc</text></g><!--class mcp_context_logs--><g id="elem_mcp_context_logs"><rect codeLine="119" fill="#E7F5FF" height="243.5625" id="mcp_context_logs" rx="2.5" ry="2.5" style="stroke:#1E40AF;stroke-width:0.5;" width="208.8408" x="374" y="1161.2969"/><ellipse cx="411.9368" cy="1177.2969" fill="#ADD1B2" rx="11" ry="11" style="stroke:#181818;stroke-width:1;"/><path d="M414.9056,1182.9375 Q414.3274,1183.2344 413.6868,1183.375 Q413.0462,1183.5313 412.3431,1183.5313 Q409.8431,1183.5313 408.5149,1181.8906 Q407.2024,1180.2344 407.2024,1177.1094 Q407.2024,1173.9844 408.5149,1172.3281 Q409.8431,1170.6719 412.3431,1170.6719 Q413.0462,1170.6719 413.6868,1170.8281 Q414.3431,1170.9844 414.9056,1171.2813 L414.9056,1174 Q414.2806,1173.4219 413.6868,1173.1563 Q413.0931,1172.875 412.4681,1172.875 Q411.1243,1172.875 410.4368,1173.9531 Q409.7493,1175.0156 409.7493,1177.1094 Q409.7493,1179.2031 410.4368,1180.2813 Q411.1243,1181.3438 412.4681,1181.3438 Q413.0931,1181.3438 413.6868,1181.0781 Q414.2806,1180.7969 414.9056,1180.2188 L414.9056,1182.9375 Z " fill="#000000"/><text fill="#000000" font-family="sans-serif" font-size="14" lengthAdjust="spacing" textLength="125.8701" x="431.0339" y="1182.1436">mcp_context_logs</text><line style="stroke:#1E40AF;stroke-width:0.5;" x1="375" x2="581.8408" y1="1193.2969" y2="1193.2969"/><text fill="#000000" font-family="sans-serif" font-size="14" font-weight="bold" lengthAdjust="spacing" textLength="46.4023" x="380" y="1210.292">PK: id</text><text fill="#000000" font-family="sans-serif" font-size="14" lengthAdjust="spacing" textLength="82.7148" x="426.4023" y="1210.292">: BIGSERIAL</text><text fill="#000000" font-family="sans-serif" font-size="14" font-style="italic" lengthAdjust="spacing" textLength="94.4043" x="380" y="1226.5889">FK: finding_id</text><text fill="#000000" font-family="sans-serif" font-size="14" lengthAdjust="spacing" textLength="44.5703" x="474.4043" y="1226.5889">: UUID</text><text fill="#000000" font-family="sans-serif" font-size="14" lengthAdjust="spacing" textLength="196.8408" x="380" y="1242.8857">mcp_server: VARCHAR(100)</text><text fill="#000000" font-family="sans-serif" font-size="14" lengthAdjust="spacing" textLength="85.1211" x="380" y="1259.1826">query: TEXT</text><text fill="#000000" font-family="sans-serif" font-size="14" lengthAdjust="spacing" textLength="117.1748" x="380" y="1275.4795">response: JSONB</text><text fill="#000000" font-family="sans-serif" font-size="14" lengthAdjust="spacing" textLength="149.9463" x="380" y="1291.7764">latency_ms: INTEGER</text><text fill="#000000" font-family="sans-serif" font-size="14" lengthAdjust="spacing" textLength="132.2686" x="380" y="1308.0732">success: BOOLEAN</text><text fill="#000000" font-family="sans-serif" font-size="14" lengthAdjust="spacing" textLength="149.0713" x="380" y="1324.3701">error_message: TEXT</text><text fill="#000000" font-family="sans-serif" font-size="14" lengthAdjust="spacing" textLength="165.0127" x="380" y="1340.667">created_at: TIMESTAMP</text><line style="stroke:#1E40AF;stroke-width:1;" x1="375" x2="581.8408" y1="1347.9688" y2="1347.9688"/><text fill="#000000" font-family="sans-serif" font-size="14" lengthAdjust="spacing" textLength="59.4111" x="380" y="1364.9639">Indexes:</text><text fill="#000000" font-family="sans-serif" font-size="14" lengthAdjust="spacing" textLength="145.9951" x="380" y="1381.2607">&#8226; idx_mcp_finding_id</text><text fill="#000000" font-family="sans-serif" font-size="14" lengthAdjust="spacing" textLength="122.3086" x="380" y="1397.5576">&#8226; idx_mcp_server</text></g><!--class event_logs--><g id="elem_event_logs"><rect codeLine="135" fill="#E7F5FF" height="194.6719" id="event_logs" rx="2.5" ry="2.5" style="stroke:#1E40AF;stroke-width:0.5;" width="214.4463" x="761.5" y="824.2969"/><ellipse cx="826.7183" cy="840.2969" fill="#ADD1B2" rx="11" ry="11" style="stroke:#181818;stroke-width:1;"/><path d="M829.687,845.9375 Q829.1089,846.2344 828.4683,846.375 Q827.8276,846.5313 827.1245,846.5313 Q824.6245,846.5313 823.2964,844.8906 Q821.9839,843.2344 821.9839,840.1094 Q821.9839,836.9844 823.2964,835.3281 Q824.6245,833.6719 827.1245,833.6719 Q827.8276,833.6719 828.4683,833.8281 Q829.1245,833.9844 829.687,834.2813 L829.687,837 Q829.062,836.4219 828.4683,836.1563 Q827.8745,835.875 827.2495,835.875 Q825.9058,835.875 825.2183,836.9531 Q824.5308,838.0156 824.5308,840.1094 Q824.5308,842.2031 825.2183,843.2813 Q825.9058,844.3438 827.2495,844.3438 Q827.8745,844.3438 828.4683,844.0781 Q829.062,843.7969 829.687,843.2188 L829.687,845.9375 Z " fill="#000000"/><text fill="#000000" font-family="sans-serif" font-size="14" lengthAdjust="spacing" textLength="75.5098" x="847.2183" y="845.1436">event_logs</text><line style="stroke:#1E40AF;stroke-width:0.5;" x1="762.5" x2="974.9463" y1="856.2969" y2="856.2969"/><text fill="#000000" font-family="sans-serif" font-size="14" font-weight="bold" lengthAdjust="spacing" textLength="46.4023" x="767.5" y="873.292">PK: id</text><text fill="#000000" font-family="sans-serif" font-size="14" lengthAdjust="spacing" textLength="82.7148" x="813.9023" y="873.292">: BIGSERIAL</text><text fill="#000000" font-family="sans-serif" font-size="14" font-style="italic" lengthAdjust="spacing" textLength="92.7842" x="767.5" y="889.5889">FK: review_id</text><text fill="#000000" font-family="sans-serif" font-size="14" lengthAdjust="spacing" textLength="44.5703" x="860.2842" y="889.5889">: UUID</text><text fill="#000000" font-family="sans-serif" font-size="14" lengthAdjust="spacing" textLength="193.4502" x="767.5" y="905.8857">event_type: VARCHAR(100)</text><text fill="#000000" font-family="sans-serif" font-size="14" lengthAdjust="spacing" textLength="202.4463" x="767.5" y="922.1826">agent_name: VARCHAR(100)</text><text fill="#000000" font-family="sans-serif" font-size="14" lengthAdjust="spacing" textLength="131.6875" x="767.5" y="938.4795">event_data: JSONB</text><text fill="#000000" font-family="sans-serif" font-size="14" lengthAdjust="spacing" textLength="165.0127" x="767.5" y="954.7764">created_at: TIMESTAMP</text><line style="stroke:#1E40AF;stroke-width:1;" x1="762.5" x2="974.9463" y1="962.0781" y2="962.0781"/><text fill="#000000" font-family="sans-serif" font-size="14" lengthAdjust="spacing" textLength="59.4111" x="767.5" y="979.0732">Indexes:</text><text fill="#000000" font-family="sans-serif" font-size="14" lengthAdjust="spacing" textLength="161.3213" x="767.5" y="995.3701">&#8226; idx_events_review_id</text><text fill="#000000" font-family="sans-serif" font-size="14" lengthAdjust="spacing" textLength="126.2119" x="767.5" y="1011.667">&#8226; idx_events_type</text></g><!--class analysis_export_logs--><g id="elem_analysis_export_logs"><rect codeLine="148" fill="#E7F5FF" height="210.9688" id="analysis_export_logs" rx="2.5" ry="2.5" style="stroke:#1E40AF;stroke-width:0.5;" width="259.3652" x="1517" y="816.2969"/><ellipse cx="1569.9751" cy="832.2969" fill="#ADD1B2" rx="11" ry="11" style="stroke:#181818;stroke-width:1;"/><path d="M1572.9438,837.9375 Q1572.3657,838.2344 1571.7251,838.375 Q1571.0845,838.5313 1570.3813,838.5313 Q1567.8813,838.5313 1566.5532,836.8906 Q1565.2407,835.2344 1565.2407,832.1094 Q1565.2407,828.9844 1566.5532,827.3281 Q1567.8813,825.6719 1570.3813,825.6719 Q1571.0845,825.6719 1571.7251,825.8281 Q1572.3813,825.9844 1572.9438,826.2813 L1572.9438,829 Q1572.3188,828.4219 1571.7251,828.1563 Q1571.1313,827.875 1570.5063,827.875 Q1569.1626,827.875 1568.4751,828.9531 Q1567.7876,830.0156 1567.7876,832.1094 Q1567.7876,834.2031 1568.4751,835.2813 Q1569.1626,836.3438 1570.5063,836.3438 Q1571.1313,836.3438 1571.7251,836.0781 Q1572.3188,835.7969 1572.9438,835.2188 L1572.9438,837.9375 Z " fill="#000000"/><text fill="#000000" font-family="sans-serif" font-size="14" lengthAdjust="spacing" textLength="144.915" x="1590.4751" y="837.1436">analysis_export_logs</text><line style="stroke:#1E40AF;stroke-width:0.5;" x1="1518" x2="1775.3652" y1="848.2969" y2="848.2969"/><text fill="#000000" font-family="sans-serif" font-size="14" font-weight="bold" lengthAdjust="spacing" textLength="46.4023" x="1523" y="865.292">PK: id</text><text fill="#000000" font-family="sans-serif" font-size="14" lengthAdjust="spacing" textLength="44.5703" x="1569.4023" y="865.292">: UUID</text><text fill="#000000" font-family="sans-serif" font-size="14" font-style="italic" lengthAdjust="spacing" textLength="92.7842" x="1523" y="881.5889">FK: review_id</text><text fill="#000000" font-family="sans-serif" font-size="14" lengthAdjust="spacing" textLength="44.5703" x="1615.7842" y="881.5889">: UUID</text><text fill="#000000" font-family="sans-serif" font-size="14" font-style="italic" lengthAdjust="spacing" textLength="76.7129" x="1523" y="897.8857">FK: user_id</text><text fill="#000000" font-family="sans-serif" font-size="14" lengthAdjust="spacing" textLength="115.3018" x="1599.7129" y="897.8857">: VARCHAR(255)</text><text fill="#000000" font-family="sans-serif" font-size="14" lengthAdjust="spacing" textLength="247.3652" x="1523" y="914.1826">export_format: ENUM('JSON', 'PDF')</text><text fill="#000000" font-family="sans-serif" font-size="14" lengthAdjust="spacing" textLength="175.4512" x="1523" y="930.4795">file_path: VARCHAR(500)</text><text fill="#000000" font-family="sans-serif" font-size="14" lengthAdjust="spacing" textLength="171.623" x="1523" y="946.7764">file_size_bytes: INTEGER</text><text fill="#000000" font-family="sans-serif" font-size="14" lengthAdjust="spacing" textLength="165.0127" x="1523" y="963.0732">created_at: TIMESTAMP</text><line style="stroke:#1E40AF;stroke-width:1;" x1="1518" x2="1775.3652" y1="970.375" y2="970.375"/><text fill="#000000" font-family="sans-serif" font-size="14" lengthAdjust="spacing" textLength="59.4111" x="1523" y="987.3701">Indexes:</text><text fill="#000000" font-family="sans-serif" font-size="14" lengthAdjust="spacing" textLength="150.9717" x="1523" y="1003.667">&#8226; idx_exports_user_id</text><text fill="#000000" font-family="sans-serif" font-size="14" lengthAdjust="spacing" textLength="167.043" x="1523" y="1019.9639">&#8226; idx_exports_review_id</text></g><g id="elem_GMN20"><path d="M1718,130.7969 L1718,162.2969 L1682.64,166.2969 L1718,170.2969 L1718,201.3281 A0,0 0 0 0 1718,201.3281 L1930.731,201.3281 A0,0 0 0 0 1930.731,201.3281 L1930.731,140.7969 L1920.731,130.7969 L1718,130.7969 A0,0 0 0 0 1718,130.7969 " fill="#FEFFDD" style="stroke:#181818;stroke-width:0.5;"/><path d="M1920.731,130.7969 L1920.731,140.7969 L1930.731,140.7969 L1920.731,130.7969 " fill="#FEFFDD" style="stroke:#181818;stroke-width:0.5;"/><text fill="#000000" font-family="sans-serif" font-size="13" font-weight="bold" lengthAdjust="spacing" textLength="191.731" x="1724" y="147.8638">Central User Management</text><text fill="#000000" font-family="sans-serif" font-size="13" lengthAdjust="spacing" textLength="154.3813" x="1724" y="162.9966">&#8226; Linked to Clerk OAuth</text><text fill="#000000" font-family="sans-serif" font-size="13" lengthAdjust="spacing" textLength="181.7461" x="1724" y="178.1294">&#8226; Role-based access control</text><text fill="#000000" font-family="sans-serif" font-size="13" lengthAdjust="spacing" textLength="143.6538" x="1724" y="193.2622">&#8226; Daily quota tracking</text></g><g id="elem_GMN23"><path d="M859,488.2969 L859,519.7969 L824.35,523.7969 L859,527.7969 L859,558.8281 A0,0 0 0 0 859,558.8281 L1254.042,558.8281 A0,0 0 0 0 1254.042,558.8281 L1254.042,498.2969 L1244.042,488.2969 L859,488.2969 A0,0 0 0 0 859,488.2969 " fill="#FEFFDD" style="stroke:#181818;stroke-width:0.5;"/><path d="M1244.042,488.2969 L1244.042,498.2969 L1254.042,498.2969 L1244.042,488.2969 " fill="#FEFFDD" style="stroke:#181818;stroke-width:0.5;"/><text fill="#000000" font-family="sans-serif" font-size="13" font-weight="bold" lengthAdjust="spacing" textLength="115.6226" x="865" y="505.3638">Aggregate Root</text><text fill="#000000" font-family="sans-serif" font-size="13" lengthAdjust="spacing" textLength="236.1772" x="865" y="520.4966">&#8226; Encrypted code storage (AES-256)</text><text fill="#000000" font-family="sans-serif" font-size="13" lengthAdjust="spacing" textLength="139.5088" x="865" y="535.6294">&#8226; Quality score 0-100</text><text fill="#000000" font-family="sans-serif" font-size="13" lengthAdjust="spacing" textLength="374.042" x="865" y="550.7622">&#8226; Status: PENDING &#8594; PROCESSING &#8594; COMPLETED/FAILED</text></g><g id="elem_GMN26"><path d="M618.5,1247.7969 L618.5,1318.3281 A0,0 0 0 0 618.5,1318.3281 L918.1875,1318.3281 A0,0 0 0 0 918.1875,1318.3281 L918.1875,1257.7969 L908.1875,1247.7969 L758.54,1247.7969 L688.68,1084.4069 L750.54,1247.7969 L618.5,1247.7969 A0,0 0 0 0 618.5,1247.7969 " fill="#FEFFDD" style="stroke:#181818;stroke-width:0.5;"/><path d="M908.1875,1247.7969 L908.1875,1257.7969 L918.1875,1257.7969 L908.1875,1247.7969 " fill="#FEFFDD" style="stroke:#181818;stroke-width:0.5;"/><text fill="#000000" font-family="sans-serif" font-size="13" font-weight="bold" lengthAdjust="spacing" textLength="170.1934" x="624.5" y="1264.8638">Sprint 3: AI Integration</text><text fill="#000000" font-family="sans-serif" font-size="13" lengthAdjust="spacing" textLength="233.0542" x="624.5" y="1279.9966">&#8226; ai_explanation: Gemini-generated</text><text fill="#000000" font-family="sans-serif" font-size="13" lengthAdjust="spacing" textLength="278.6875" x="624.5" y="1295.1294">&#8226; mcp_references: OWASP/CVE/Custom KB</text><text fill="#000000" font-family="sans-serif" font-size="13" lengthAdjust="spacing" textLength="195.0381" x="624.5" y="1310.2622">&#8226; Metrics: agent-specific JSON</text></g><g id="elem_GMN29"><path d="M257.5,886.2969 L257.5,917.7969 L222.17,921.7969 L257.5,925.7969 L257.5,956.8281 A0,0 0 0 0 257.5,956.8281 L485.1099,956.8281 A0,0 0 0 0 485.1099,956.8281 L485.1099,896.2969 L475.1099,886.2969 L257.5,886.2969 A0,0 0 0 0 257.5,886.2969 " fill="#FEFFDD" style="stroke:#181818;stroke-width:0.5;"/><path d="M475.1099,886.2969 L475.1099,896.2969 L485.1099,896.2969 L475.1099,886.2969 " fill="#FEFFDD" style="stroke:#181818;stroke-width:0.5;"/><text fill="#000000" font-family="sans-serif" font-size="13" font-weight="bold" lengthAdjust="spacing" textLength="100.3691" x="263.5" y="903.3638">Cost Tracking</text><text fill="#000000" font-family="sans-serif" font-size="13" lengthAdjust="spacing" textLength="163.3887" x="263.5" y="918.4966">&#8226; Tracks every AI API call</text><text fill="#000000" font-family="sans-serif" font-size="13" lengthAdjust="spacing" textLength="206.6099" x="263.5" y="933.6294">&#8226; Calculates current_spend_usd</text><text fill="#000000" font-family="sans-serif" font-size="13" lengthAdjust="spacing" textLength="162.2397" x="263.5" y="948.7622">&#8226; Monitors cache hit rate</text></g><!--link users to code_reviews--><g id="link_users_code_reviews"><path codeLine="166" d="M1426.33,188.6769 C1279.72,216.2969 1034.99,272.2469 841.5,365.2969 C835.71,368.0769 835.2189,368.2024 829.4389,371.2724 " fill="none" id="users-to-code_reviews" style="stroke:#059669;stroke-width:1;"/><polygon fill="#059669" points="824.14,374.0869,833.9647,373.3978,828.5558,371.7415,830.2121,366.3325,824.14,374.0869" style="stroke:#059669;stroke-width:1;"/><text fill="#000000" font-family="sans-serif" font-size="13" lengthAdjust="spacing" textLength="48.3247" x="934.5" y="331.3638">creates</text><text fill="#000000" font-family="sans-serif" font-size="13" lengthAdjust="spacing" textLength="8.271" x="1410.291" y="186.6679">1</text><text fill="#000000" font-family="sans-serif" font-size="13" lengthAdjust="spacing" textLength="23.0356" x="832.4236" y="365.0202">0..*</text></g><!--link users to analysis_export_logs--><g id="link_users_analysis_export_logs"><path codeLine="167" d="M1682.6,276.2469 C1688.56,280.4269 1694.55,284.4669 1700.5,288.2969 C1766.54,330.7669 1817.8,298.7669 1859.5,365.2969 C1934.33,484.6769 1909.72,550.6669 1859.5,682.2969 C1840.5,732.0869 1809.9223,773.7172 1773.9623,811.7472 " fill="none" id="users-to-analysis_export_logs" style="stroke:#059669;stroke-width:1;"/><polygon fill="#059669" points="1769.84,816.1069,1778.9299,812.3157,1773.2753,812.4738,1773.1171,806.8192,1769.84,816.1069" style="stroke:#059669;stroke-width:1;"/><text fill="#000000" font-family="sans-serif" font-size="13" lengthAdjust="spacing" textLength="49.1118" x="1907.5" y="528.3638">exports</text><text fill="#000000" font-family="sans-serif" font-size="13" lengthAdjust="spacing" textLength="8.271" x="1690.2513" y="279.2531">1</text><text fill="#000000" font-family="sans-serif" font-size="13" lengthAdjust="spacing" textLength="23.0356" x="1754.6922" y="805.2209">0..*</text></g><!--link users to agent_configs--><g id="link_users_agent_configs"><path codeLine="168" d="M1504.32,288.6469 C1484.53,336.5169 1464.5022,384.932 1446.2922,428.982 " fill="none" id="users-to-agent_configs" style="stroke:#059669;stroke-width:1;"/><polygon fill="#059669" points="1444,434.5269,1451.1349,427.7377,1445.9102,429.9061,1443.7417,424.6814,1444,434.5269" style="stroke:#059669;stroke-width:1;"/><text fill="#000000" font-family="sans-serif" font-size="13" lengthAdjust="spacing" textLength="52.5776" x="1491.5" y="331.3638">updates</text><text fill="#000000" font-family="sans-serif" font-size="13" lengthAdjust="spacing" textLength="8.271" x="1493.3706" y="307.8305">1</text><text fill="#000000" font-family="sans-serif" font-size="13" lengthAdjust="spacing" textLength="23.0356" x="1422.9901" y="423.8728">0..*</text></g><!--link users to ai_config--><g id="link_users_ai_config"><path codeLine="169" d="M1604.68,288.6469 C1623.23,333.4969 1641.6871,378.1523 1659.2171,420.5423 " fill="none" id="users-to-ai_config" style="stroke:#059669;stroke-width:1;"/><polygon fill="#059669" points="1661.51,426.0869,1661.767,416.2414,1659.5992,421.4664,1654.3742,419.2986,1661.51,426.0869" style="stroke:#059669;stroke-width:1;"/><text fill="#000000" font-family="sans-serif" font-size="13" lengthAdjust="spacing" textLength="52.5776" x="1624.5" y="331.3638">updates</text><text fill="#000000" font-family="sans-serif" font-size="13" lengthAdjust="spacing" textLength="8.271" x="1599.219" y="307.8305">1</text><text fill="#000000" font-family="sans-serif" font-size="13" lengthAdjust="spacing" textLength="23.0356" x="1634.5623" y="415.1163">0..*</text></g><!--link code_reviews to agent_findings--><g id="link_code_reviews_agent_findings"><path codeLine="171" d="M623.5,682.4469 C623.5,707.6769 623.5,727.8269 623.5,753.1569 " fill="none" id="code_reviews-to-agent_findings" style="stroke:#059669;stroke-width:1;"/><polygon fill="#059669" points="623.5,759.1569,627.5,750.1569,623.5,754.1569,619.5,750.1569,623.5,759.1569" style="stroke:#059669;stroke-width:1;"/><text fill="#000000" font-family="sans-serif" font-size="13" lengthAdjust="spacing" textLength="55.0278" x="624.5" y="725.3638">contains</text><text fill="#000000" font-family="sans-serif" font-size="13" lengthAdjust="spacing" textLength="8.271" x="615.3204" y="702.0511">1</text><text fill="#000000" font-family="sans-serif" font-size="13" lengthAdjust="spacing" textLength="23.0356" x="599.9434" y="747.9847">0..*</text></g><!--link code_reviews to ai_usage_metrics--><g id="link_code_reviews_ai_usage_metrics"><path codeLine="172" d="M422.52,628.8269 C360.51,665.6969 294.21,710.3169 239.5,759.2969 C228.41,769.2269 221.6036,775.7869 211.2636,787.2769 " fill="none" id="code_reviews-to-ai_usage_metrics" style="stroke:#059669;stroke-width:1;"/><polygon fill="#059669" points="207.25,791.7369,216.2437,787.7227,210.5946,788.0202,210.2971,782.3712,207.25,791.7369" style="stroke:#059669;stroke-width:1;"/><text fill="#000000" font-family="sans-serif" font-size="13" lengthAdjust="spacing" textLength="22.9785" x="297.5" y="725.3638">has</text><text fill="#000000" font-family="sans-serif" font-size="13" lengthAdjust="spacing" textLength="8.271" x="406.5144" y="629.711">1</text><text fill="#000000" font-family="sans-serif" font-size="13" lengthAdjust="spacing" textLength="23.0356" x="188.9588" y="780.859">0..*</text></g><!--link code_reviews to event_logs--><g id="link_code_reviews_event_logs"><path codeLine="173" d="M721.03,682.4469 C750.66,730.3269 779.1634,776.3943 805.5234,819.0043 " fill="none" id="code_reviews-to-event_logs" style="stroke:#059669;stroke-width:1;"/><polygon fill="#059669" points="808.68,824.1069,807.3468,814.3487,806.0495,819.8548,800.5434,818.5575,808.68,824.1069" style="stroke:#059669;stroke-width:1;"/><text fill="#000000" font-family="sans-serif" font-size="13" lengthAdjust="spacing" textLength="39.8569" x="747.5" y="725.3638">tracks</text><text fill="#000000" font-family="sans-serif" font-size="13" lengthAdjust="spacing" textLength="8.271" x="717.2697" y="702.0511">1</text><text fill="#000000" font-family="sans-serif" font-size="13" lengthAdjust="spacing" textLength="23.0356" x="780.2038" y="813.1378">0..*</text></g><!--link code_reviews to analysis_export_logs--><g id="link_code_reviews_analysis_export_logs"><path codeLine="174" d="M824.2,673.3769 C829.97,676.4869 835.74,679.4669 841.5,682.2969 C1066.83,793.0469 1347.504,861.5233 1510.874,895.2633 " fill="none" id="code_reviews-to-analysis_export_logs" style="stroke:#059669;stroke-width:1;"/><polygon fill="#059669" points="1516.75,896.4769,1508.745,890.7392,1511.8533,895.4656,1507.127,898.5739,1516.75,896.4769" style="stroke:#059669;stroke-width:1;"/><text fill="#000000" font-family="sans-serif" font-size="13" lengthAdjust="spacing" textLength="77.4604" x="946.5" y="725.3638">exported as</text><text fill="#000000" font-family="sans-serif" font-size="13" lengthAdjust="spacing" textLength="8.271" x="832.1975" y="676.0012">1</text><text fill="#000000" font-family="sans-serif" font-size="13" lengthAdjust="spacing" textLength="23.0356" x="1486.0164" y="891.7534">0..*</text></g><!--link agent_findings to mcp_context_logs--><g id="link_agent_findings_mcp_context_logs"><path codeLine="176" d="M558.32,1084.4069 C547.9,1110.2369 539.5135,1131.0121 529.5635,1155.6921 " fill="none" id="agent_findings-to-mcp_context_logs" style="stroke:#059669;stroke-width:1;"/><polygon fill="#059669" points="527.32,1161.2569,534.3951,1154.4054,529.1896,1156.6196,526.9754,1151.414,527.32,1161.2569" style="stroke:#059669;stroke-width:1;"/><text fill="#000000" font-family="sans-serif" font-size="13" lengthAdjust="spacing" textLength="76.9082" x="543.5" y="1127.3638">enriched by</text><text fill="#000000" font-family="sans-serif" font-size="13" lengthAdjust="spacing" textLength="8.271" x="547.191" y="1104.1838">1</text><text fill="#000000" font-family="sans-serif" font-size="13" lengthAdjust="spacing" textLength="23.0356" x="506.7171" y="1150.0434">0..*</text></g><!--SRC=[hLXTSjis47xNAH3tmPB7YXMtJYSQHpEqHDjiz5U9JjlfT3WG2LEe-1S0TAnsCjEd7g17wD5oaYv0K1GfMeayrODjOHV0xhUxtoxymYFtD2B8nek0D2CSabEFSBU5t01pZkG2mXmToSKZT7c9clRfDzVN1dnQgDThlD3x4qP3pDREYgoRZorqkUXDttNHu-NPej2vZncXVhJHeRthJ8SMEcb4FwH4YTCUYD9Uey5ND4emmo5QO7VbipYDl7uSn0o19VApfP6P_MS3eQkghldzzGNeWYHc7c5wzPNvNSUGgmPZyKUzsBbuy_hrcyQdHaDG4H1aHl1xtPwH00iQHtn94pIWs9Stjb4_ziXDYfc730iDiC0Bp4cZSOpU7l81VNDiMxPbpW_UsiZSJZbXcVFRuQ1UgulU6xF-hJ5hdbzSj42kOIOXfi6kL4PzPn4_W6VCILbGY2uw7IbYSG3wvlXkr3mUcE_DuMHgpevFqR4n65dZOwdYmKLh1qSuM7FA7HVY8hh86jlcZJa3ETWl2h671HmuC6mJH2uZyDLpC6omhP4vjutHLFgGUBNhxJRyi2AFF1BUXJy___KlejwZez1nbCixgz836UuCHnS2wZ3oGCd79-2ykxC6iBwTqV8WfmxhUngGCg8QDdMD6qU2I2okVh5D0pL9vB9r0dv9ZGyf3Y3n7Ex2HHkuKBFJVfKTmGKMAS-mXwyY5ZXme90y6lby6ry2sSsSa72EVJZ9Dd-szq3hnc4Ia4F0rMWv6eKQIMPgZI0tGb9CVaCVYammJ2EXRkdVclrtg5c20_NUeWuoneCoIkZoBLBWRA893aTY0yfNnpCppzaMPoU9TR8LopmGv84mC68J2ifvIYgwvvbk04JdH6cu86mxH2eTU4IJX8XDXAeHuwdl4ov9Q4j5CEf2j7-OJyPNqapgaCSaW6hAzFBrq4q0z7l28CSWUch_hx_jIOEdWfrZwMmmgXFcaDJ92YIhSO9wkATV29Dch-AGrauyW4IWwA2dUL1PaydGDCOAOdcuyplVXgLKn9fJ5kiQpZoGRxGdzRvIBTxhfmpahXCXv4cWCqid6mF3d826L3YAQBVJQf5wFe7xbupmPHnuKA9mtC3iMoDZ272TdYikIXcJPlA4HBighrl_5qxZM3Bx7980sYeqN2IaVoLWKfdmZixgUdokh9kvERECuPThDaCBQCdRoP640Sq1Cl6AHBnSYOh-e7XgX1d7rcs23bOB70mDK75h9ophOtT9d2KLfGGzi18rIhM5cCjA_Be1MfA1wZsFmWbY_q2WTI6NaOOJWVqV9AjLa8PgPUiDOK4Y9i3lf2Z1UeHuwW9FyMry3cjZJw86bXOUL0IP2mLGm6BHSo2goSNigDh-aP54UKpGecmNr1Gk03lKOtL6VPfeKOMVyaaC6adCzhd_TPtpgmObVHVeXjAlR9wK7ijHSZguFiwdAIV1OhapJYa9ftyGO2L1ohLsA5pAahff9fSKI7vwpgG_CuU6RKt6yrjh-ennFnlqZruTWGSzTDHv-VBag3orThNFl5wtDhvT7O6dzfJwSrVp_5FAcmPNA3PA5jQUlfdIkh9N2nW0-VvTrNRHHKkyVyjMFNSHp9ZkwWjNx8EAUF0wRZGgnbTEsA5Qs1s1jKlOlLW_9tt64_ivhyG8cYzYr5yA5DzdhqL8xPEJFbZFS83kO0MDm66VXB1qSg8JVqYZ5TWgOjGF25kXYP6AfPRDuENKbWzUG4BHjGeSlAUqV23d4MW0q3Kpj06X1imOI1fJDMax3ieom_SPyI5xu9wuCCZC7qbg1xo2OWOsewPXpjld5whfIhKViuS1oXu6wj6a9NFzRfgQuu4rla6V__u7JMUJlZcVvr_xaz5qQDhcuEpQi8Rce6hq8XOY3gNLvUWhk-V0av50ttRblmGi2BtFr32-yQ0wez-Ga4Qq3ISHESpbb5CTsIS_6VFfMV-zUTPFkRp-tPNM7EMl06LD6-OubzvJLtMC9_6kba-M3J3885k7QcEmMb3TaAsbKyRKWX4coCFSnu6RoZRETqV9tC8ueX0edaq-22OVDRSMnlq7]--></g></svg>