<svg xmlns="http://www.w3.org/2000/svg" xmlns:xlink="http://www.w3.org/1999/xlink" contentStyleType="text/css" height="2303px" preserveAspectRatio="none" style="width:1049px;height:2303px;background:#FFFFFF;" version="1.1" viewBox="0 0 1049 2303" width="1049px" zoomAndPan="magnify"><title>Activity Diagram - AI Explanation Generation Subprocess (Sprint 3)</title><defs/><g><text fill="#000000" font-family="sans-serif" font-size="14" font-weight="bold" lengthAdjust="spacing" textLength="531.3506" x="257.6758" y="32.9951">Activity Diagram - AI Explanation Generation Subprocess (Sprint 3)</text><ellipse cx="371.7546" cy="57.2969" fill="#222222" rx="10" ry="10" style="stroke:#222222;stroke-width:1;"/><rect fill="#E7F5FF" height="31.6406" rx="12.5" ry="12.5" style="stroke:#1E40AF;stroke-width:0.5;" width="140.2734" x="301.6179" y="87.2969"/><text fill="#000000" font-family="sans-serif" font-size="10" lengthAdjust="spacing" textLength="120.2734" x="311.6179" y="106.5791">Critical finding detected</text><rect fill="#E7F5FF" height="43.2813" rx="12.5" ry="12.5" style="stroke:#1E40AF;stroke-width:0.5;" width="194.9512" x="274.279" y="138.9375"/><text fill="#000000" font-family="sans-serif" font-size="10" lengthAdjust="spacing" textLength="137.7734" x="284.279" y="158.2197">Extract vulnerability details</text><text fill="#000000" font-family="sans-serif" font-size="10" lengthAdjust="spacing" textLength="174.9512" x="284.279" y="169.8604">(issue_type, CWE ID, code snippet)</text><rect fill="none" height="315.9609" style="stroke:#000000;stroke-width:1.5;" width="609.7422" x="66.8835" y="192.2188"/><path d="M251.7194,192.2188 L251.7194,201.5156 L241.7194,211.5156 L66.8835,211.5156 " fill="none" style="stroke:#000000;stroke-width:1.5;"/><text fill="#000000" font-family="sans-serif" font-size="14" lengthAdjust="spacing" textLength="174.8359" x="69.8835" y="206.2139">MCP Context Enrichment</text><rect fill="#555555" height="6" rx="2.5" ry="2.5" style="stroke:#555555;stroke-width:1;" width="589.7422" x="76.8835" y="228.5156"/><rect fill="#E7F5FF" height="31.6406" rx="12.5" ry="12.5" style="stroke:#1E40AF;stroke-width:0.5;" width="151.3379" x="99.8508" y="260.3359"/><text fill="#000000" font-family="sans-serif" font-size="10" lengthAdjust="spacing" textLength="131.3379" x="109.8508" y="279.6182">Query OWASP MCP Server</text><rect fill="#E7F5FF" height="31.6406" rx="12.5" ry="12.5" style="stroke:#1E40AF;stroke-width:0.5;" width="129.4873" x="110.7761" y="317.7969"/><text fill="#000000" font-family="sans-serif" font-size="10" lengthAdjust="spacing" textLength="109.4873" x="120.7761" y="337.0791">Fetch CWE definitions</text><rect fill="#E7F5FF" height="31.6406" rx="12.5" ry="12.5" style="stroke:#1E40AF;stroke-width:0.5;" width="168.0518" x="91.4938" y="375.2578"/><text fill="#000000" font-family="sans-serif" font-size="10" lengthAdjust="spacing" textLength="148.0518" x="101.4938" y="394.54">Get OWASP Top 10 mappings</text><rect fill="#E7F5FF" height="31.6406" rx="12.5" ry="12.5" style="stroke:#1E40AF;stroke-width:0.5;" width="169.2725" x="90.8835" y="432.7188"/><text fill="#000000" font-family="sans-serif" font-size="10" lengthAdjust="spacing" textLength="149.2725" x="100.8835" y="452.001">Retrieve mitigation strategies</text><rect fill="#E7F5FF" height="31.6406" rx="12.5" ry="12.5" style="stroke:#1E40AF;stroke-width:0.5;" width="134.502" x="310.9611" y="260.3359"/><text fill="#000000" font-family="sans-serif" font-size="10" lengthAdjust="spacing" textLength="114.502" x="320.9611" y="279.6182">Query CVE MCP Server</text><rect fill="#E7F5FF" height="31.6406" rx="12.5" ry="12.5" style="stroke:#1E40AF;stroke-width:0.5;" width="155.3809" x="300.5217" y="317.7969"/><text fill="#000000" font-family="sans-serif" font-size="10" lengthAdjust="spacing" textLength="135.3809" x="310.5217" y="337.0791">Search NIST NVD database</text><rect fill="#E7F5FF" height="31.6406" rx="12.5" ry="12.5" style="stroke:#1E40AF;stroke-width:0.5;" width="180.1123" x="288.1559" y="375.2578"/><text fill="#000000" font-family="sans-serif" font-size="10" lengthAdjust="spacing" textLength="160.1123" x="298.1559" y="394.54">Get real-world exploit examples</text><rect fill="#E7F5FF" height="31.6406" rx="12.5" ry="12.5" style="stroke:#1E40AF;stroke-width:0.5;" width="112.8369" x="321.7936" y="432.7188"/><text fill="#000000" font-family="sans-serif" font-size="10" lengthAdjust="spacing" textLength="92.8369" x="331.7936" y="452.001">Fetch CVSS scores</text><rect fill="#E7F5FF" height="43.2813" rx="12.5" ry="12.5" style="stroke:#1E40AF;stroke-width:0.5;" width="152.6709" x="498.1115" y="254.5156"/><text fill="#000000" font-family="sans-serif" font-size="10" lengthAdjust="spacing" textLength="132.6709" x="508.1115" y="273.7979">Query Custom MCP Server</text><text fill="#000000" font-family="sans-serif" font-size="10" lengthAdjust="spacing" textLength="80.6738" x="508.1115" y="285.4385">(CodeGuard KB)</text><rect fill="#E7F5FF" height="31.6406" rx="12.5" ry="12.5" style="stroke:#1E40AF;stroke-width:0.5;" width="149.3115" x="499.7912" y="323.6172"/><text fill="#000000" font-family="sans-serif" font-size="10" lengthAdjust="spacing" textLength="129.3115" x="509.7912" y="342.8994">Lookup team conventions</text><rect fill="#E7F5FF" height="31.6406" rx="12.5" ry="12.5" style="stroke:#1E40AF;stroke-width:0.5;" width="138.5303" x="505.1818" y="381.0781"/><text fill="#000000" font-family="sans-serif" font-size="10" lengthAdjust="spacing" textLength="118.5303" x="515.1818" y="400.3604">Get custom fix patterns</text><rect fill="#E7F5FF" height="31.6406" rx="12.5" ry="12.5" style="stroke:#1E40AF;stroke-width:0.5;" width="156.3574" x="496.2682" y="438.5391"/><text fill="#000000" font-family="sans-serif" font-size="10" lengthAdjust="spacing" textLength="136.3574" x="506.2682" y="457.8213">Retrieve approved libraries</text><rect fill="#555555" height="6" rx="2.5" ry="2.5" style="stroke:#555555;stroke-width:1;" width="589.7422" x="76.8835" y="490.1797"/><rect fill="#E7F5FF" height="43.2813" rx="12.5" ry="12.5" style="stroke:#1E40AF;stroke-width:0.5;" width="182.2803" x="280.6144" y="528.1797"/><text fill="#000000" font-family="sans-serif" font-size="10" lengthAdjust="spacing" textLength="162.2803" x="290.6144" y="547.4619">Combine all MCP context strings</text><text fill="#000000" font-family="sans-serif" font-size="10" lengthAdjust="spacing" textLength="141.6992" x="290.6144" y="559.1025">into single enriched_context</text><rect fill="#E7F5FF" height="78.2031" rx="12.5" ry="12.5" style="stroke:#1E40AF;stroke-width:0.5;" width="171.9043" x="285.8024" y="591.4609"/><text fill="#000000" font-family="sans-serif" font-size="10" lengthAdjust="spacing" textLength="151.9043" x="295.8024" y="610.7432">Build Gemini prompt template</text><text fill="#000000" font-family="sans-serif" font-size="10" lengthAdjust="spacing" textLength="24.585" x="295.8024" y="622.3838">with:</text><text fill="#000000" font-family="sans-serif" font-size="10" lengthAdjust="spacing" textLength="108.7793" x="295.8024" y="634.0244">&#8226; Vulnerability details</text><text fill="#000000" font-family="sans-serif" font-size="10" lengthAdjust="spacing" textLength="119.0869" x="295.8024" y="645.665">&#8226; MCP-enriched context</text><text fill="#000000" font-family="sans-serif" font-size="10" lengthAdjust="spacing" textLength="141.6504" x="295.8024" y="657.3057">&#8226; Instruction for explanation</text><rect fill="#E7F5FF" height="43.2813" rx="12.5" ry="12.5" style="stroke:#1E40AF;stroke-width:0.5;" width="241.9727" x="250.7682" y="689.6641"/><text fill="#000000" font-family="sans-serif" font-size="10" lengthAdjust="spacing" textLength="92.4756" x="260.7682" y="708.9463">Check RedisCache</text><text fill="#000000" font-family="sans-serif" font-size="10" lengthAdjust="spacing" textLength="221.9727" x="260.7682" y="720.5869">(key = SHA256(issue_type + code_snippet))</text><polygon fill="#FEF3C7" points="329.5231,752.9453,413.986,752.9453,425.986,764.9453,413.986,776.9453,329.5231,776.9453,317.5231,764.9453,329.5231,752.9453" style="stroke:#1E40AF;stroke-width:0.5;"/><text fill="#000000" font-family="sans-serif" font-size="10" lengthAdjust="spacing" textLength="84.4629" x="329.5231" y="768.4072">Cache hit found?</text><text fill="#000000" font-family="sans-serif" font-size="11" lengthAdjust="spacing" textLength="19.0083" x="298.5148" y="762.3511">yes</text><text fill="#000000" font-family="sans-serif" font-size="11" lengthAdjust="spacing" textLength="87.6025" x="425.986" y="762.3511">no - Cache miss</text><rect fill="#E7F5FF" height="43.2813" rx="12.5" ry="12.5" style="stroke:#1E40AF;stroke-width:0.5;" width="173.3545" x="20.0747" y="786.9453"/><text fill="#000000" font-family="sans-serif" font-size="10" lengthAdjust="spacing" textLength="153.3545" x="30.0747" y="806.2275">Retrieve cached AIExplanation</text><text fill="#000000" font-family="sans-serif" font-size="10" lengthAdjust="spacing" textLength="54.1064" x="30.0747" y="817.8682">from Redis</text><rect fill="#E7F5FF" height="31.6406" rx="12.5" ry="12.5" style="stroke:#1E40AF;stroke-width:0.5;" width="191.5039" x="11" y="850.2266"/><text fill="#000000" font-family="sans-serif" font-size="10" lengthAdjust="spacing" textLength="171.5039" x="21" y="869.5088">Return AIExplanation immediately</text><ellipse cx="106.752" cy="926.8672" fill="none" rx="10" ry="10" style="stroke:#222222;stroke-width:1.5;"/><line style="stroke:#222222;stroke-width:2.5;" x1="100.5648" x2="112.9391" y1="920.68" y2="933.0544"/><line style="stroke:#222222;stroke-width:2.5;" x1="112.9391" x2="100.5648" y1="920.68" y2="933.0544"/><rect fill="#E7F5FF" height="43.2813" rx="12.5" ry="12.5" style="stroke:#1E40AF;stroke-width:0.5;" width="119.4434" x="577.0355" y="786.9453"/><text fill="#000000" font-family="sans-serif" font-size="10" lengthAdjust="spacing" textLength="99.4434" x="587.0355" y="806.2275">Prepare API request</text><text fill="#000000" font-family="sans-serif" font-size="10" lengthAdjust="spacing" textLength="98.1885" x="587.0355" y="817.8682">to Gemini/Vertex AI</text><polygon fill="#FEF3C7" points="559.7601,850.2266,713.7543,850.2266,725.7543,862.2266,713.7543,874.2266,559.7601,874.2266,547.7601,862.2266,559.7601,850.2266" style="stroke:#1E40AF;stroke-width:0.5;"/><text fill="#000000" font-family="sans-serif" font-size="10" lengthAdjust="spacing" textLength="153.9941" x="559.7601" y="865.6885">Environment = DEVELOPMENT</text><text fill="#000000" font-family="sans-serif" font-size="11" lengthAdjust="spacing" textLength="19.0083" x="528.7518" y="859.6323">yes</text><text fill="#000000" font-family="sans-serif" font-size="11" lengthAdjust="spacing" textLength="73.9868" x="725.7543" y="859.6323">PRODUCTION</text><rect fill="#E7F5FF" height="43.2813" rx="12.5" ry="12.5" style="stroke:#1E40AF;stroke-width:0.5;" width="144.8633" x="465.3285" y="884.2266"/><text fill="#000000" font-family="sans-serif" font-size="10" lengthAdjust="spacing" textLength="124.8633" x="475.3285" y="903.5088">Use Gemini 1.5 Flash API</text><text fill="#000000" font-family="sans-serif" font-size="10" lengthAdjust="spacing" textLength="113.457" x="475.3285" y="915.1494">(Free tier, low latency)</text><rect fill="#E7F5FF" height="43.2813" rx="12.5" ry="12.5" style="stroke:#1E40AF;stroke-width:0.5;" width="199.7119" x="635.8983" y="884.2266"/><text fill="#000000" font-family="sans-serif" font-size="10" lengthAdjust="spacing" textLength="145.1611" x="645.8983" y="903.5088">Use Vertex AI Gemini 1.5 Pro</text><text fill="#000000" font-family="sans-serif" font-size="10" lengthAdjust="spacing" textLength="179.7119" x="645.8983" y="915.1494">(Higher quality, 200 credits budget)</text><polygon fill="#FEF3C7" points="636.7572,933.5078,648.7572,945.5078,636.7572,957.5078,624.7572,945.5078,636.7572,933.5078" style="stroke:#1E40AF;stroke-width:0.5;"/><rect fill="#E7F5FF" height="66.5625" rx="12.5" ry="12.5" style="stroke:#1E40AF;stroke-width:0.5;" width="193.501" x="540.0067" y="977.5078"/><text fill="#000000" font-family="sans-serif" font-size="10" lengthAdjust="spacing" textLength="122.3828" x="550.0067" y="996.79">Set request parameters:</text><text fill="#000000" font-family="sans-serif" font-size="10" lengthAdjust="spacing" textLength="173.501" x="550.0067" y="1008.4307">&#8226; Temperature: 0.3 (deterministic)</text><text fill="#000000" font-family="sans-serif" font-size="10" lengthAdjust="spacing" textLength="98.457" x="550.0067" y="1020.0713">&#8226; Max tokens: 1024</text><text fill="#000000" font-family="sans-serif" font-size="10" lengthAdjust="spacing" textLength="113.5596" x="550.0067" y="1031.7119">&#8226; Timeout: 10 seconds</text><rect fill="#E7F5FF" height="31.6406" rx="12.5" ry="12.5" style="stroke:#1E40AF;stroke-width:0.5;" width="170.2051" x="551.6547" y="1119.7808"/><text fill="#000000" font-family="sans-serif" font-size="10" lengthAdjust="spacing" textLength="150.2051" x="561.6547" y="1139.063">Call AI API (generate_content)</text><polygon fill="#FEF3C7" points="578.0219,1171.4214,695.4926,1171.4214,707.4926,1183.4214,695.4926,1195.4214,578.0219,1195.4214,566.0219,1183.4214,578.0219,1171.4214" style="stroke:#1E40AF;stroke-width:0.5;"/><text fill="#000000" font-family="sans-serif" font-size="10" lengthAdjust="spacing" textLength="117.4707" x="578.0219" y="1186.8833">API request successful?</text><text fill="#000000" font-family="sans-serif" font-size="11" lengthAdjust="spacing" textLength="19.0083" x="547.0135" y="1180.8271">yes</text><text fill="#000000" font-family="sans-serif" font-size="11" lengthAdjust="spacing" textLength="13.7017" x="707.4926" y="1180.8271">no</text><rect fill="#E7F5FF" height="43.2813" rx="12.5" ry="12.5" style="stroke:#1E40AF;stroke-width:0.5;" width="285.0781" x="304.4604" y="1205.4214"/><text fill="#000000" font-family="sans-serif" font-size="10" lengthAdjust="spacing" textLength="116.2451" x="314.4604" y="1224.7036">Receive JSON response</text><text fill="#000000" font-family="sans-serif" font-size="10" lengthAdjust="spacing" textLength="265.0781" x="314.4604" y="1236.3442">{explanation, attack_example, fix_code, references}</text><rect fill="#E7F5FF" height="43.2813" rx="12.5" ry="12.5" style="stroke:#1E40AF;stroke-width:0.5;" width="136.1133" x="378.9429" y="1280.3433"/><text fill="#000000" font-family="sans-serif" font-size="10" lengthAdjust="spacing" textLength="104.2773" x="388.9429" y="1299.6255">Parse JSON response</text><text fill="#000000" font-family="sans-serif" font-size="10" lengthAdjust="spacing" textLength="116.1133" x="388.9429" y="1311.2661">to AIExplanation object</text><rect fill="#E7F5FF" height="43.2813" rx="12.5" ry="12.5" style="stroke:#1E40AF;stroke-width:0.5;" width="170.6104" x="361.6943" y="1358.6245"/><text fill="#000000" font-family="sans-serif" font-size="10" lengthAdjust="spacing" textLength="133.1641" x="371.6943" y="1377.9067">Validate explanation fields</text><text fill="#000000" font-family="sans-serif" font-size="10" lengthAdjust="spacing" textLength="150.6104" x="371.6943" y="1389.5474">(non-empty, proper structure)</text><polygon fill="#FEF3C7" points="399.9805,1433.5464,494.0186,1433.5464,506.0186,1445.5464,494.0186,1457.5464,399.9805,1457.5464,387.9805,1445.5464,399.9805,1433.5464" style="stroke:#1E40AF;stroke-width:0.5;"/><text fill="#000000" font-family="sans-serif" font-size="10" lengthAdjust="spacing" textLength="94.0381" x="399.9805" y="1449.0083">Validation passed?</text><text fill="#000000" font-family="sans-serif" font-size="11" lengthAdjust="spacing" textLength="19.0083" x="368.9722" y="1442.9521">yes</text><text fill="#000000" font-family="sans-serif" font-size="11" lengthAdjust="spacing" textLength="13.7017" x="506.0186" y="1442.9521">no</text><rect fill="#E7F5FF" height="43.2813" rx="12.5" ry="12.5" style="stroke:#1E40AF;stroke-width:0.5;" width="168.2666" x="274.5093" y="1467.5464"/><text fill="#000000" font-family="sans-serif" font-size="10" lengthAdjust="spacing" textLength="97.9883" x="284.5093" y="1486.8286">Format code blocks</text><text fill="#000000" font-family="sans-serif" font-size="10" lengthAdjust="spacing" textLength="148.2666" x="284.5093" y="1498.4692">(syntax highlighting markers)</text><rect fill="#E7F5FF" height="43.2813" rx="12.5" ry="12.5" style="stroke:#1E40AF;stroke-width:0.5;" width="179.1064" x="269.0894" y="1542.4683"/><text fill="#000000" font-family="sans-serif" font-size="10" lengthAdjust="spacing" textLength="159.1064" x="279.0894" y="1561.7505">Extract CWE/OWASP references</text><text fill="#000000" font-family="sans-serif" font-size="10" lengthAdjust="spacing" textLength="97.1289" x="279.0894" y="1573.3911">from MCP response</text><rect fill="#E7F5FF" height="113.125" rx="12.5" ry="12.5" style="stroke:#1E40AF;stroke-width:0.5;" width="162.8906" x="277.1973" y="1620.7495"/><text fill="#000000" font-family="sans-serif" font-size="10" lengthAdjust="spacing" textLength="142.8906" x="287.1973" y="1640.0317">Create AIExplanation object:</text><text fill="#000000" font-family="sans-serif" font-size="10" lengthAdjust="spacing" textLength="87.8125" x="287.1973" y="1651.6724">&#8226; explanation: str</text><text fill="#000000" font-family="sans-serif" font-size="10" lengthAdjust="spacing" textLength="108.4717" x="287.1973" y="1663.313">&#8226; attack_example: str</text><text fill="#000000" font-family="sans-serif" font-size="10" lengthAdjust="spacing" textLength="70.2002" x="287.1973" y="1674.9536">&#8226; fix_code: str</text><text fill="#000000" font-family="sans-serif" font-size="10" lengthAdjust="spacing" textLength="101.8848" x="287.1973" y="1686.5942">&#8226; cwe_reference: str</text><text fill="#000000" font-family="sans-serif" font-size="10" lengthAdjust="spacing" textLength="110.0439" x="287.1973" y="1698.2349">&#8226; owasp_category: str</text><text fill="#000000" font-family="sans-serif" font-size="10" lengthAdjust="spacing" textLength="89.0527" x="287.1973" y="1709.8755">&#8226; model_used: str</text><text fill="#000000" font-family="sans-serif" font-size="10" lengthAdjust="spacing" textLength="136.2646" x="287.1973" y="1721.5161">&#8226; generated_at: timestamp</text><rect fill="#E7F5FF" height="66.5625" rx="12.5" ry="12.5" style="stroke:#1E40AF;stroke-width:0.5;" width="184.2773" x="266.5039" y="1753.8745"/><text fill="#000000" font-family="sans-serif" font-size="10" lengthAdjust="spacing" textLength="77.3779" x="276.5039" y="1773.1567">Cache in Redis:</text><text fill="#000000" font-family="sans-serif" font-size="10" lengthAdjust="spacing" textLength="100.4736" x="276.5039" y="1784.7974">&#8226; key: SHA256 hash</text><text fill="#000000" font-family="sans-serif" font-size="10" lengthAdjust="spacing" textLength="144.292" x="276.5039" y="1796.438">&#8226; value: JSON(AIExplanation)</text><text fill="#000000" font-family="sans-serif" font-size="10" lengthAdjust="spacing" textLength="164.2773" x="276.5039" y="1808.0786">&#8226; TTL: 86400 seconds (24 hours)</text><rect fill="#E7F5FF" height="31.6406" rx="12.5" ry="12.5" style="stroke:#1E40AF;stroke-width:0.5;" width="118.2324" x="476.2402" y="1467.5464"/><text fill="#000000" font-family="sans-serif" font-size="10" lengthAdjust="spacing" textLength="98.2324" x="486.2402" y="1486.8286">Log validation error</text><rect fill="#E7F5FF" height="31.6406" rx="12.5" ry="12.5" style="stroke:#1E40AF;stroke-width:0.5;" width="129.1504" x="470.7813" y="1530.8276"/><text fill="#000000" font-family="sans-serif" font-size="10" lengthAdjust="spacing" textLength="109.1504" x="480.7813" y="1550.1099">Use fallback template</text><rect fill="#E7F5FF" height="31.6406" rx="12.5" ry="12.5" style="stroke:#1E40AF;stroke-width:0.5;" width="140.249" x="756.3904" y="1205.4214"/><text fill="#000000" font-family="sans-serif" font-size="10" lengthAdjust="spacing" textLength="120.249" x="766.3904" y="1224.7036">Increment retry counter</text><polygon fill="#FEF3C7" points="784.0906,1268.7026,868.9392,1268.7026,880.9392,1280.7026,868.9392,1292.7026,784.0906,1292.7026,772.0906,1280.7026,784.0906,1268.7026" style="stroke:#1E40AF;stroke-width:0.5;"/><text fill="#000000" font-family="sans-serif" font-size="10" lengthAdjust="spacing" textLength="84.8486" x="784.0906" y="1284.1646">Retry count &lt; 3?</text><text fill="#000000" font-family="sans-serif" font-size="11" lengthAdjust="spacing" textLength="19.0083" x="753.0823" y="1278.1084">yes</text><text fill="#000000" font-family="sans-serif" font-size="11" lengthAdjust="spacing" textLength="13.7017" x="880.9392" y="1278.1084">no</text><rect fill="#E7F5FF" height="43.2813" rx="12.5" ry="12.5" style="stroke:#1E40AF;stroke-width:0.5;" width="178.2813" x="639.9316" y="1302.7026"/><text fill="#000000" font-family="sans-serif" font-size="10" lengthAdjust="spacing" textLength="152.3242" x="649.9316" y="1321.9849">Calculate exponential backoff:</text><text fill="#000000" font-family="sans-serif" font-size="10" lengthAdjust="spacing" textLength="158.2813" x="649.9316" y="1333.6255">delay = 2^retry_count seconds</text><rect fill="#E7F5FF" height="31.6406" rx="12.5" ry="12.5" style="stroke:#1E40AF;stroke-width:0.5;" width="86.084" x="686.0303" y="1380.9839"/><text fill="#000000" font-family="sans-serif" font-size="10" lengthAdjust="spacing" textLength="66.084" x="696.0303" y="1400.2661">Sleep (delay)</text><rect fill="#E7F5FF" height="31.6406" rx="12.5" ry="12.5" style="stroke:#1E40AF;stroke-width:0.5;" width="116.7432" x="865.5859" y="1302.7026"/><text fill="#000000" font-family="sans-serif" font-size="10" lengthAdjust="spacing" textLength="96.7432" x="875.5859" y="1321.9849">Log final API failure</text><rect fill="#E7F5FF" height="31.6406" rx="12.5" ry="12.5" style="stroke:#1E40AF;stroke-width:0.5;" width="159.7852" x="844.0649" y="1369.3433"/><text fill="#000000" font-family="sans-serif" font-size="10" lengthAdjust="spacing" textLength="139.7852" x="854.0649" y="1388.6255">Use static template fallback</text><rect fill="#E7F5FF" height="31.6406" rx="12.5" ry="12.5" style="stroke:#1E40AF;stroke-width:0.5;" width="171.4893" x="838.2129" y="1432.6245"/><text fill="#000000" font-family="sans-serif" font-size="10" lengthAdjust="spacing" textLength="151.4893" x="848.2129" y="1451.9067">Record event: gemini_fallback</text><polygon fill="#FEF3C7" points="600.7318,1064.0703,672.7826,1064.0703,684.7826,1076.0703,672.7826,1088.0703,600.7318,1088.0703,588.7318,1076.0703,600.7318,1064.0703" style="stroke:#1E40AF;stroke-width:0.5;"/><text fill="#000000" font-family="sans-serif" font-size="11" lengthAdjust="spacing" textLength="19.0083" x="640.7572" y="1098.2808">yes</text><text fill="#000000" font-family="sans-serif" font-size="10" lengthAdjust="spacing" textLength="72.0508" x="600.7318" y="1079.5322">Need to retry?</text><rect fill="#E7F5FF" height="43.2813" rx="12.5" ry="12.5" style="stroke:#1E40AF;stroke-width:0.5;" width="164.6338" x="289.4377" y="1880.437"/><text fill="#000000" font-family="sans-serif" font-size="10" lengthAdjust="spacing" textLength="105.8887" x="299.4377" y="1899.7192">Return AIExplanation</text><text fill="#000000" font-family="sans-serif" font-size="10" lengthAdjust="spacing" textLength="144.6338" x="299.4377" y="1911.3599">(either generated or cached)</text><path d="M402.7546,1933.7183 L402.7546,2108.7456 L382.7546,2112.7456 L402.7546,2116.7456 L402.7546,2291.7729 A0,0 0 0 0 402.7546,2291.7729 L804.1823,2291.7729 A0,0 0 0 0 804.1823,2291.7729 L804.1823,1943.7183 L794.1823,1933.7183 L402.7546,1933.7183 A0,0 0 0 0 402.7546,1933.7183 " fill="#FEFFDD" style="stroke:#181818;stroke-width:0.5;"/><path d="M794.1823,1933.7183 L794.1823,1943.7183 L804.1823,1943.7183 L794.1823,1933.7183 " fill="#FEFFDD" style="stroke:#181818;stroke-width:0.5;"/><text fill="#000000" font-family="sans-serif" font-size="13" font-weight="bold" lengthAdjust="spacing" textLength="117.3872" x="408.7546" y="1950.7852">Cache Strategy:</text><text fill="#000000" font-family="sans-serif" font-size="13" lengthAdjust="spacing" textLength="380.4277" x="408.7546" y="1965.918">&#8226; Key: SHA256(issue_type + code_snippet + line_number)</text><text fill="#000000" font-family="sans-serif" font-size="13" lengthAdjust="spacing" textLength="100.6611" x="408.7546" y="1981.0508">&#8226; TTL: 24 hours</text><text fill="#000000" font-family="sans-serif" font-size="13" lengthAdjust="spacing" textLength="153.0103" x="408.7546" y="1996.1836">&#8226; Hit rate target: &gt;70%</text><text fill="#000000" font-family="sans-serif" font-size="13" lengthAdjust="spacing" textLength="174.8906" x="408.7546" y="2011.3164">&#8226; Saves API calls and costs</text><text fill="#000000" font-family="sans-serif" font-size="13" lengthAdjust="spacing" textLength="4.1323" x="408.7546" y="2026.4492">&#160;</text><text fill="#000000" font-family="sans-serif" font-size="13" font-weight="bold" lengthAdjust="spacing" textLength="136.373" x="408.7546" y="2041.582">Cost Optimization:</text><text fill="#000000" font-family="sans-serif" font-size="13" lengthAdjust="spacing" textLength="297.1719" x="408.7546" y="2056.7148">&#8226; Gemini Flash (Dev): ~$0.00015 per request</text><text fill="#000000" font-family="sans-serif" font-size="13" lengthAdjust="spacing" textLength="285.0732" x="408.7546" y="2071.8477">&#8226; Vertex AI Pro (Prod): ~$0.003 per request</text><text fill="#000000" font-family="sans-serif" font-size="13" lengthAdjust="spacing" textLength="199.4751" x="408.7546" y="2086.9805">&#8226; Cache hit saves cost entirely</text><text fill="#000000" font-family="sans-serif" font-size="13" lengthAdjust="spacing" textLength="200.624" x="408.7546" y="2102.1133">&#8226; Budget: $200 for 3-6 months</text><text fill="#000000" font-family="sans-serif" font-size="13" lengthAdjust="spacing" textLength="4.1323" x="408.7546" y="2117.2461">&#160;</text><text fill="#000000" font-family="sans-serif" font-size="13" font-weight="bold" lengthAdjust="spacing" textLength="134.291" x="408.7546" y="2132.3789">Fallback Strategy:</text><text fill="#000000" font-family="sans-serif" font-size="13" lengthAdjust="spacing" textLength="225.2529" x="408.7546" y="2147.5117">&#8226; On API error: use static template</text><text fill="#000000" font-family="sans-serif" font-size="13" lengthAdjust="spacing" textLength="306.1982" x="408.7546" y="2162.6445">&#8226; Static template: generic but always available</text><text fill="#000000" font-family="sans-serif" font-size="13" lengthAdjust="spacing" textLength="281.0615" x="408.7546" y="2177.7773">&#8226; User sees explanation (degraded quality)</text><text fill="#000000" font-family="sans-serif" font-size="13" lengthAdjust="spacing" textLength="173.5005" x="408.7546" y="2192.9102">&#8226; No impact on availability</text><text fill="#000000" font-family="sans-serif" font-size="13" lengthAdjust="spacing" textLength="4.1323" x="408.7546" y="2208.043">&#160;</text><text fill="#000000" font-family="sans-serif" font-size="13" font-weight="bold" lengthAdjust="spacing" textLength="190.9121" x="408.7546" y="2223.1758">MCP Enrichment Benefits:</text><text fill="#000000" font-family="sans-serif" font-size="13" lengthAdjust="spacing" textLength="180.0322" x="408.7546" y="2238.3086">&#8226; Real-time OWASP context</text><text fill="#000000" font-family="sans-serif" font-size="13" lengthAdjust="spacing" textLength="177.9312" x="408.7546" y="2253.4414">&#8226; CVE database integration</text><text fill="#000000" font-family="sans-serif" font-size="13" lengthAdjust="spacing" textLength="185.2563" x="408.7546" y="2268.5742">&#8226; Team-specific conventions</text><text fill="#000000" font-family="sans-serif" font-size="13" lengthAdjust="spacing" textLength="193.0068" x="408.7546" y="2283.707">&#8226; Improved answer relevance</text><ellipse cx="371.7546" cy="2112.7456" fill="none" rx="11" ry="11" style="stroke:#222222;stroke-width:1;"/><ellipse cx="371.7546" cy="2112.7456" fill="#222222" rx="6" ry="6" style="stroke:#222222;stroke-width:1;"/><line style="stroke:#181818;stroke-width:1;" x1="371.7546" x2="371.7546" y1="67.2969" y2="87.2969"/><polygon fill="#181818" points="367.7546,77.2969,371.7546,87.2969,375.7546,77.2969,371.7546,81.2969" style="stroke:#181818;stroke-width:1;"/><line style="stroke:#181818;stroke-width:1;" x1="371.7546" x2="371.7546" y1="118.9375" y2="138.9375"/><polygon fill="#181818" points="367.7546,128.9375,371.7546,138.9375,375.7546,128.9375,371.7546,132.9375" style="stroke:#181818;stroke-width:1;"/><line style="stroke:#181818;stroke-width:1;" x1="175.5197" x2="175.5197" y1="291.9766" y2="317.7969"/><polygon fill="#181818" points="171.5197,307.7969,175.5197,317.7969,179.5197,307.7969,175.5197,311.7969" style="stroke:#181818;stroke-width:1;"/><line style="stroke:#181818;stroke-width:1;" x1="175.5197" x2="175.5197" y1="349.4375" y2="375.2578"/><polygon fill="#181818" points="171.5197,365.2578,175.5197,375.2578,179.5197,365.2578,175.5197,369.2578" style="stroke:#181818;stroke-width:1;"/><line style="stroke:#181818;stroke-width:1;" x1="175.5197" x2="175.5197" y1="406.8984" y2="432.7188"/><polygon fill="#181818" points="171.5197,422.7188,175.5197,432.7188,179.5197,422.7188,175.5197,426.7188" style="stroke:#181818;stroke-width:1;"/><line style="stroke:#181818;stroke-width:1;" x1="378.2121" x2="378.2121" y1="291.9766" y2="317.7969"/><polygon fill="#181818" points="374.2121,307.7969,378.2121,317.7969,382.2121,307.7969,378.2121,311.7969" style="stroke:#181818;stroke-width:1;"/><line style="stroke:#181818;stroke-width:1;" x1="378.2121" x2="378.2121" y1="349.4375" y2="375.2578"/><polygon fill="#181818" points="374.2121,365.2578,378.2121,375.2578,382.2121,365.2578,378.2121,369.2578" style="stroke:#181818;stroke-width:1;"/><line style="stroke:#181818;stroke-width:1;" x1="378.2121" x2="378.2121" y1="406.8984" y2="432.7188"/><polygon fill="#181818" points="374.2121,422.7188,378.2121,432.7188,382.2121,422.7188,378.2121,426.7188" style="stroke:#181818;stroke-width:1;"/><line style="stroke:#181818;stroke-width:1;" x1="574.447" x2="574.447" y1="297.7969" y2="323.6172"/><polygon fill="#181818" points="570.447,313.6172,574.447,323.6172,578.447,313.6172,574.447,317.6172" style="stroke:#181818;stroke-width:1;"/><line style="stroke:#181818;stroke-width:1;" x1="574.447" x2="574.447" y1="355.2578" y2="381.0781"/><polygon fill="#181818" points="570.447,371.0781,574.447,381.0781,578.447,371.0781,574.447,375.0781" style="stroke:#181818;stroke-width:1;"/><line style="stroke:#181818;stroke-width:1;" x1="574.447" x2="574.447" y1="412.7188" y2="438.5391"/><polygon fill="#181818" points="570.447,428.5391,574.447,438.5391,578.447,428.5391,574.447,432.5391" style="stroke:#181818;stroke-width:1;"/><line style="stroke:#181818;stroke-width:1;" x1="175.5197" x2="175.5197" y1="234.5156" y2="260.3359"/><polygon fill="#181818" points="171.5197,250.3359,175.5197,260.3359,179.5197,250.3359,175.5197,254.3359" style="stroke:#181818;stroke-width:1;"/><line style="stroke:#181818;stroke-width:1;" x1="378.2121" x2="378.2121" y1="234.5156" y2="260.3359"/><polygon fill="#181818" points="374.2121,250.3359,378.2121,260.3359,382.2121,250.3359,378.2121,254.3359" style="stroke:#181818;stroke-width:1;"/><line style="stroke:#181818;stroke-width:1;" x1="574.447" x2="574.447" y1="234.5156" y2="254.5156"/><polygon fill="#181818" points="570.447,244.5156,574.447,254.5156,578.447,244.5156,574.447,248.5156" style="stroke:#181818;stroke-width:1;"/><line style="stroke:#181818;stroke-width:1;" x1="175.5197" x2="175.5197" y1="464.3594" y2="490.1797"/><polygon fill="#181818" points="171.5197,480.1797,175.5197,490.1797,179.5197,480.1797,175.5197,484.1797" style="stroke:#181818;stroke-width:1;"/><line style="stroke:#181818;stroke-width:1;" x1="378.2121" x2="378.2121" y1="464.3594" y2="490.1797"/><polygon fill="#181818" points="374.2121,480.1797,378.2121,490.1797,382.2121,480.1797,378.2121,484.1797" style="stroke:#181818;stroke-width:1;"/><line style="stroke:#181818;stroke-width:1;" x1="574.447" x2="574.447" y1="470.1797" y2="490.1797"/><polygon fill="#181818" points="570.447,480.1797,574.447,490.1797,578.447,480.1797,574.447,484.1797" style="stroke:#181818;stroke-width:1;"/><line style="stroke:#181818;stroke-width:1;" x1="371.7546" x2="371.7546" y1="182.2188" y2="228.5156"/><polygon fill="#181818" points="367.7546,218.5156,371.7546,228.5156,375.7546,218.5156,371.7546,222.5156" style="stroke:#181818;stroke-width:1;"/><line style="stroke:#181818;stroke-width:1;" x1="371.7546" x2="371.7546" y1="496.1797" y2="528.1797"/><polygon fill="#181818" points="367.7546,518.1797,371.7546,528.1797,375.7546,518.1797,371.7546,522.1797" style="stroke:#181818;stroke-width:1;"/><line style="stroke:#181818;stroke-width:1;" x1="371.7546" x2="371.7546" y1="571.4609" y2="591.4609"/><polygon fill="#181818" points="367.7546,581.4609,371.7546,591.4609,375.7546,581.4609,371.7546,585.4609" style="stroke:#181818;stroke-width:1;"/><line style="stroke:#181818;stroke-width:1;" x1="371.7546" x2="371.7546" y1="669.6641" y2="689.6641"/><polygon fill="#181818" points="367.7546,679.6641,371.7546,689.6641,375.7546,679.6641,371.7546,683.6641" style="stroke:#181818;stroke-width:1;"/><line style="stroke:#181818;stroke-width:1;" x1="106.752" x2="106.752" y1="830.2266" y2="850.2266"/><polygon fill="#181818" points="102.752,840.2266,106.752,850.2266,110.752,840.2266,106.752,844.2266" style="stroke:#181818;stroke-width:1;"/><line style="stroke:#181818;stroke-width:1;" x1="106.752" x2="106.752" y1="881.8672" y2="916.8672"/><polygon fill="#181818" points="102.752,906.8672,106.752,916.8672,110.752,906.8672,106.752,910.8672" style="stroke:#181818;stroke-width:1;"/><line style="stroke:#181818;stroke-width:1;" x1="547.7601" x2="537.7601" y1="862.2266" y2="862.2266"/><line style="stroke:#181818;stroke-width:1;" x1="537.7601" x2="537.7601" y1="862.2266" y2="884.2266"/><polygon fill="#181818" points="533.7601,874.2266,537.7601,884.2266,541.7601,874.2266,537.7601,878.2266" style="stroke:#181818;stroke-width:1;"/><line style="stroke:#181818;stroke-width:1;" x1="725.7543" x2="735.7543" y1="862.2266" y2="862.2266"/><line style="stroke:#181818;stroke-width:1;" x1="735.7543" x2="735.7543" y1="862.2266" y2="884.2266"/><polygon fill="#181818" points="731.7543,874.2266,735.7543,884.2266,739.7543,874.2266,735.7543,878.2266" style="stroke:#181818;stroke-width:1;"/><line style="stroke:#181818;stroke-width:1;" x1="537.7601" x2="537.7601" y1="927.5078" y2="945.5078"/><line style="stroke:#181818;stroke-width:1;" x1="537.7601" x2="624.7572" y1="945.5078" y2="945.5078"/><polygon fill="#181818" points="614.7572,941.5078,624.7572,945.5078,614.7572,949.5078,618.7572,945.5078" style="stroke:#181818;stroke-width:1;"/><line style="stroke:#181818;stroke-width:1;" x1="735.7543" x2="735.7543" y1="927.5078" y2="945.5078"/><line style="stroke:#181818;stroke-width:1;" x1="735.7543" x2="648.7572" y1="945.5078" y2="945.5078"/><polygon fill="#181818" points="658.7572,941.5078,648.7572,945.5078,658.7572,949.5078,654.7572,945.5078" style="stroke:#181818;stroke-width:1;"/><line style="stroke:#181818;stroke-width:1;" x1="636.7572" x2="636.7572" y1="830.2266" y2="850.2266"/><polygon fill="#181818" points="632.7572,840.2266,636.7572,850.2266,640.7572,840.2266,636.7572,844.2266" style="stroke:#181818;stroke-width:1;"/><line style="stroke:#181818;stroke-width:1;" x1="636.7572" x2="636.7572" y1="957.5078" y2="977.5078"/><polygon fill="#181818" points="632.7572,967.5078,636.7572,977.5078,640.7572,967.5078,636.7572,971.5078" style="stroke:#181818;stroke-width:1;"/><line style="stroke:#181818;stroke-width:1;" x1="446.9995" x2="446.9995" y1="1248.7026" y2="1280.3433"/><polygon fill="#181818" points="442.9995,1270.3433,446.9995,1280.3433,450.9995,1270.3433,446.9995,1274.3433" style="stroke:#181818;stroke-width:1;"/><line style="stroke:#181818;stroke-width:1;" x1="446.9995" x2="446.9995" y1="1323.6245" y2="1358.6245"/><polygon fill="#181818" points="442.9995,1348.6245,446.9995,1358.6245,450.9995,1348.6245,446.9995,1352.6245" style="stroke:#181818;stroke-width:1;"/><line style="stroke:#181818;stroke-width:1;" x1="358.6426" x2="358.6426" y1="1510.8276" y2="1542.4683"/><polygon fill="#181818" points="354.6426,1532.4683,358.6426,1542.4683,362.6426,1532.4683,358.6426,1536.4683" style="stroke:#181818;stroke-width:1;"/><line style="stroke:#181818;stroke-width:1;" x1="358.6426" x2="358.6426" y1="1585.7495" y2="1620.7495"/><polygon fill="#181818" points="354.6426,1610.7495,358.6426,1620.7495,362.6426,1610.7495,358.6426,1614.7495" style="stroke:#181818;stroke-width:1;"/><line style="stroke:#181818;stroke-width:1;" x1="358.6426" x2="358.6426" y1="1733.8745" y2="1753.8745"/><polygon fill="#181818" points="354.6426,1743.8745,358.6426,1753.8745,362.6426,1743.8745,358.6426,1747.8745" style="stroke:#181818;stroke-width:1;"/><line style="stroke:#181818;stroke-width:1;" x1="358.6426" x2="358.6426" y1="1820.437" y2="1834.437"/><line style="stroke:#181818;stroke-width:1;" x1="358.6426" x2="234.5039" y1="1834.437" y2="1834.437"/><polygon fill="#181818" points="244.5039,1830.437,234.5039,1834.437,244.5039,1838.437,240.5039,1834.437" style="stroke:#181818;stroke-width:1;"/><line style="stroke:#181818;stroke-width:1;" x1="535.3564" x2="535.3564" y1="1499.187" y2="1530.8276"/><polygon fill="#181818" points="531.3564,1520.8276,535.3564,1530.8276,539.3564,1520.8276,535.3564,1524.8276" style="stroke:#181818;stroke-width:1;"/><line style="stroke:#181818;stroke-width:1;" x1="535.3564" x2="535.3564" y1="1562.4683" y2="1597.4683"/><line style="stroke:#181818;stroke-width:1;" x1="535.3564" x2="234.5039" y1="1597.4683" y2="1597.4683"/><polygon fill="#181818" points="244.5039,1593.4683,234.5039,1597.4683,244.5039,1601.4683,240.5039,1597.4683" style="stroke:#181818;stroke-width:1;"/><line style="stroke:#181818;stroke-width:1;" x1="387.9805" x2="358.6426" y1="1445.5464" y2="1445.5464"/><line style="stroke:#181818;stroke-width:1;" x1="358.6426" x2="358.6426" y1="1445.5464" y2="1467.5464"/><polygon fill="#181818" points="354.6426,1457.5464,358.6426,1467.5464,362.6426,1457.5464,358.6426,1461.5464" style="stroke:#181818;stroke-width:1;"/><line style="stroke:#181818;stroke-width:1;" x1="506.0186" x2="535.3564" y1="1445.5464" y2="1445.5464"/><line style="stroke:#181818;stroke-width:1;" x1="535.3564" x2="535.3564" y1="1445.5464" y2="1467.5464"/><polygon fill="#181818" points="531.3564,1457.5464,535.3564,1467.5464,539.3564,1457.5464,535.3564,1461.5464" style="stroke:#181818;stroke-width:1;"/><line style="stroke:#181818;stroke-width:1;" x1="446.9995" x2="446.9995" y1="1401.9058" y2="1433.5464"/><polygon fill="#181818" points="442.9995,1423.5464,446.9995,1433.5464,450.9995,1423.5464,446.9995,1427.5464" style="stroke:#181818;stroke-width:1;"/><line style="stroke:#181818;stroke-width:1;" x1="729.0723" x2="729.0723" y1="1345.9839" y2="1380.9839"/><polygon fill="#181818" points="725.0723,1370.9839,729.0723,1380.9839,733.0723,1370.9839,729.0723,1374.9839" style="stroke:#181818;stroke-width:1;"/><line style="stroke:#181818;stroke-width:1;" x1="923.9575" x2="923.9575" y1="1334.3433" y2="1369.3433"/><polygon fill="#181818" points="919.9575,1359.3433,923.9575,1369.3433,927.9575,1359.3433,923.9575,1363.3433" style="stroke:#181818;stroke-width:1;"/><line style="stroke:#181818;stroke-width:1;" x1="923.9575" x2="923.9575" y1="1400.9839" y2="1432.6245"/><polygon fill="#181818" points="919.9575,1422.6245,923.9575,1432.6245,927.9575,1422.6245,923.9575,1426.6245" style="stroke:#181818;stroke-width:1;"/><line style="stroke:#181818;stroke-width:1;" x1="923.9575" x2="923.9575" y1="1464.2651" y2="1499.2651"/><line style="stroke:#181818;stroke-width:1;" x1="923.9575" x2="234.5039" y1="1499.2651" y2="1499.2651"/><polygon fill="#181818" points="244.5039,1495.2651,234.5039,1499.2651,244.5039,1503.2651,240.5039,1499.2651" style="stroke:#181818;stroke-width:1;"/><line style="stroke:#181818;stroke-width:1;" x1="772.0906" x2="729.0723" y1="1280.7026" y2="1280.7026"/><line style="stroke:#181818;stroke-width:1;" x1="729.0723" x2="729.0723" y1="1280.7026" y2="1302.7026"/><polygon fill="#181818" points="725.0723,1292.7026,729.0723,1302.7026,733.0723,1292.7026,729.0723,1296.7026" style="stroke:#181818;stroke-width:1;"/><line style="stroke:#181818;stroke-width:1;" x1="880.9392" x2="923.9575" y1="1280.7026" y2="1280.7026"/><line style="stroke:#181818;stroke-width:1;" x1="923.9575" x2="923.9575" y1="1280.7026" y2="1302.7026"/><polygon fill="#181818" points="919.9575,1292.7026,923.9575,1302.7026,927.9575,1292.7026,923.9575,1296.7026" style="stroke:#181818;stroke-width:1;"/><line style="stroke:#181818;stroke-width:1;" x1="729.0723" x2="729.0723" y1="1412.6245" y2="1848.437"/><line style="stroke:#181818;stroke-width:1;" x1="729.0723" x2="1023.7021" y1="1848.437" y2="1848.437"/><polygon fill="#181818" points="1019.7021,1483.5269,1023.7021,1473.5269,1027.7021,1483.5269,1023.7021,1479.5269" style="stroke:#181818;stroke-width:1;"/><line style="stroke:#181818;stroke-width:1;" x1="1023.7021" x2="1023.7021" y1="1076.0703" y2="1848.437"/><line style="stroke:#181818;stroke-width:1;" x1="1023.7021" x2="684.7826" y1="1076.0703" y2="1076.0703"/><polygon fill="#181818" points="694.7826,1072.0703,684.7826,1076.0703,694.7826,1080.0703,690.7826,1076.0703" style="stroke:#181818;stroke-width:1;"/><line style="stroke:#181818;stroke-width:1;" x1="826.5149" x2="826.5149" y1="1237.062" y2="1268.7026"/><polygon fill="#181818" points="822.5149,1258.7026,826.5149,1268.7026,830.5149,1258.7026,826.5149,1262.7026" style="stroke:#181818;stroke-width:1;"/><line style="stroke:#181818;stroke-width:1;" x1="566.0219" x2="446.9995" y1="1183.4214" y2="1183.4214"/><line style="stroke:#181818;stroke-width:1;" x1="446.9995" x2="446.9995" y1="1183.4214" y2="1205.4214"/><polygon fill="#181818" points="442.9995,1195.4214,446.9995,1205.4214,450.9995,1195.4214,446.9995,1199.4214" style="stroke:#181818;stroke-width:1;"/><line style="stroke:#181818;stroke-width:1;" x1="707.4926" x2="826.5149" y1="1183.4214" y2="1183.4214"/><line style="stroke:#181818;stroke-width:1;" x1="826.5149" x2="826.5149" y1="1183.4214" y2="1205.4214"/><polygon fill="#181818" points="822.5149,1195.4214,826.5149,1205.4214,830.5149,1195.4214,826.5149,1199.4214" style="stroke:#181818;stroke-width:1;"/><line style="stroke:#181818;stroke-width:1;" x1="636.7572" x2="636.7572" y1="1151.4214" y2="1171.4214"/><polygon fill="#181818" points="632.7572,1161.4214,636.7572,1171.4214,640.7572,1161.4214,636.7572,1165.4214" style="stroke:#181818;stroke-width:1;"/><line style="stroke:#181818;stroke-width:1;" x1="636.7572" x2="636.7572" y1="1088.0703" y2="1119.7808"/><polygon fill="#181818" points="632.7572,1109.7808,636.7572,1119.7808,640.7572,1109.7808,636.7572,1113.7808" style="stroke:#181818;stroke-width:1;"/><line style="stroke:#181818;stroke-width:1;" x1="588.7318" x2="234.5039" y1="1076.0703" y2="1076.0703"/><polygon fill="#181818" points="230.5039,1472.5269,234.5039,1482.5269,238.5039,1472.5269,234.5039,1476.5269" style="stroke:#181818;stroke-width:1;"/><line style="stroke:#181818;stroke-width:1;" x1="234.5039" x2="234.5039" y1="1076.0703" y2="1865.437"/><line style="stroke:#181818;stroke-width:1;" x1="234.5039" x2="371.7546" y1="1865.437" y2="1865.437"/><line style="stroke:#181818;stroke-width:1;" x1="371.7546" x2="371.7546" y1="1865.437" y2="1880.437"/><polygon fill="#181818" points="367.7546,1870.437,371.7546,1880.437,375.7546,1870.437,371.7546,1874.437" style="stroke:#181818;stroke-width:1;"/><line style="stroke:#181818;stroke-width:1;" x1="636.7572" x2="636.7572" y1="1044.0703" y2="1064.0703"/><polygon fill="#181818" points="632.7572,1054.0703,636.7572,1064.0703,640.7572,1054.0703,636.7572,1058.0703" style="stroke:#181818;stroke-width:1;"/><line style="stroke:#181818;stroke-width:1;" x1="317.5231" x2="106.752" y1="764.9453" y2="764.9453"/><line style="stroke:#181818;stroke-width:1;" x1="106.752" x2="106.752" y1="764.9453" y2="786.9453"/><polygon fill="#181818" points="102.752,776.9453,106.752,786.9453,110.752,776.9453,106.752,780.9453" style="stroke:#181818;stroke-width:1;"/><line style="stroke:#181818;stroke-width:1;" x1="425.986" x2="636.7572" y1="764.9453" y2="764.9453"/><line style="stroke:#181818;stroke-width:1;" x1="636.7572" x2="636.7572" y1="764.9453" y2="786.9453"/><polygon fill="#181818" points="632.7572,776.9453,636.7572,786.9453,640.7572,776.9453,636.7572,780.9453" style="stroke:#181818;stroke-width:1;"/><line style="stroke:#181818;stroke-width:1;" x1="371.7546" x2="371.7546" y1="732.9453" y2="752.9453"/><polygon fill="#181818" points="367.7546,742.9453,371.7546,752.9453,375.7546,742.9453,371.7546,746.9453" style="stroke:#181818;stroke-width:1;"/><line style="stroke:#181818;stroke-width:1;" x1="371.7546" x2="371.7546" y1="1923.7183" y2="2101.7456"/><polygon fill="#181818" points="367.7546,2091.7456,371.7546,2101.7456,375.7546,2091.7456,371.7546,2095.7456" style="stroke:#181818;stroke-width:1;"/><!--SRC=[VLVRSXit4dtdLtGbsIhIApcqv4kAtjsKH94s4qTIH4LvKIqBd6cI26U02O2XnAIIohVif-sNxEaP33KofNNPfWGq-dBwz8L-hKsXdCffhfBrqjdIf4ERMKTVZgi_7R-JK4dG6nssfvzBZjwDtpmjQLtABagz6htkdpmbDROcJFLlJA_wJzoUQPLRa-uP7O_6nyDtdKxG8MCwYT84yQKyFwIJ2OtkYqmP5RGrz84Dk_h7QJald4tOU-fE2wTDeEDUf-E3Sg7J6GoT3ZfH6IsqIRLPKig1ay3fUroExeE3QxGfCz4trvbOXOJIcRyrNUrzoREmBVY0XZ-FQ79sG8bDcRpHHS6X1oK845wB9r_yCBoa8UBd-q0ZutIoojc4B-Zt3j72kZK-Y0O_bkosTF7poVIIvCMKtORT-_fop25PLRPIXiULOX_lFd28pwvj0NmfLqM1a9hxAmvEyuOfnxDbZOv7W86NcYiXSOBKKcdJTcLuCzftPChAmPFpoVIQpc_EA5L1pPNdbY-ELNPuPrsM4YCtLWTyghp8s3-EvcOw9PzOzt-TA7smUSiFm3y4r1zAvLBw_hGNLNwoTbqM51YqIApP0E3F84fgJGjzJuKAWPtP0mYuERlXb38zTyf5TDYaTPh-4DxOVAuDHBEiSYg9UGMW0lcj0T4iUVmCmdALR4vdKKguTLfg0FE1SsIHO2ul0hm6EiZ7hRdJOJMuDV_zwpzqypJvv0g63nlTZGVrpSJ0aJAfSWoVgmJ4uX3ZmnKdQxhYLFkXmck0kUOj_PEc7q-Ethnj4Pl-NZ5wrZ1QAAqNrAsUqGevNKYTVjkZi693tItxNgUDPQ8gxquchVgyDGi4NDj_7wLBPnuBaSvp202ER1lXxt3ccRh6ek9h1t9uMjcxT8nAGs-ud81ulvRiWGGoK0FyzGqxW0C3eWb_9OIHsMXdZTGW8ZyRtOm-NLp-C3g__YmMQFy9PcEgNhryG-DC-PMO0cvZnqn1ipkWpDwHfCyasugEjRUNLnTdFmsl9nVdBMKxVzfgBvs5mezwkM97lvPA4dv0H_q-9Gv814_pCbrMRQM2Go_gO52CeGcQgeQA7kPyvCyrI2NDi7GyeFxBO-fAYtDYrQFrzIALr3q5ksRZ1sWTHw_ZMvspBOCSaMSmBFKHmBkL1h6xvupS0cQ7T6z10ktRi0sbEX2Z9AMxh7iorqLWGgpOwZz9HojpvCj4ElQYpBxTIqP5buGrkFNTzE8SRto12WU7Vs-n_81GsnWZizXo3gJWPqBb0xnOi4EMsF_nlb5vgPpVKuZ07bFIpd_1SDWzka6AqFYuNLwmmragqy5OSmZi9OUeR-I0wff48dgDYlWXyKTbeg9GtdFwLEZIDAtBLQZdp3opoLfi-Qq9oE0AtCdmByWaovLRWmOxMtZR33GCaA_hKV60HInAQMOD0gsNGtHp1FeK795dBGm64cbz-ZWBhOic7QsZv8vdEtzQv_PE-MAMoA2oRjkwoF4-cvN0gdNOy2oTAH0tWC6OzNdHZgLg7ThK3IYwZ_utYEsFLYZl-dIZiXAk22-wZsAFPNDz_Mb0txnztT_L1tMFNjFAbe-0dmEzTVojwM6jb7woIx7Kf9-TiwxbhpIC1Kf9jhRTZ7X6UUmA-sO64uCkKZMxgbX1e19rw9vWujN3FVs3Zf_X8OexARF8Vcjaq6AD4X_jOW5GaHeb8-NetvMzMQslrKMYdcd6N4XJWlWEicT0mie36z8f5fY2AAJFK4AcqT9s6ErGQucXTs1H9PRDO02oI1-SxSiz0shy2PzL0-pK1vqd1nZAaZ76KVSxIX96SJqGPOvY3oaw7MFXg9EYXU8NBsfoJkkzR3juyGAdmhJl7_Zv_7Z6hncsafafypcxNdnQaRHXPJpxYCaj9WXxC4RAWFxrhl-tU3TL6_OLobYCCq_Ao7RXWwzRFtp4BtHHeBRqRtN1xzoCuwoUaDqptlG6zETN_PVzVl_L6v8c67jyb7yOX9X-69REfhiNnq_8F-mTll9I_2BXdiEQ46LEgoaveAzaTChsStpu5ht2XDKkWd5JJlj0NvWgzAe81rJkiwf1wV7feCuoJkPbm5fufxP0RWEQgddMl057CGKOVhSd1hYFhp4fw167VfEuSuibg9263Qcegre3cp2aMJzyaw1JUB30dl0Gp9NiuD83upU3k2GsO6ApRnPtzCCWReX73M-mH1_wWXEzG5YjRJhUJ_Au9YlZxwfCPRnHwDrI5YIyxlmF]--></g></svg>