<svg xmlns="http://www.w3.org/2000/svg" xmlns:xlink="http://www.w3.org/1999/xlink" contentStyleType="text/css" height="2438px" preserveAspectRatio="none" style="width:1218px;height:2438px;background:#FFFFFF;" version="1.1" viewBox="0 0 1218 2438" width="1218px" zoomAndPan="magnify"><title>Activity Diagram - Complete Code Analysis Workflow</title><defs/><g><text fill="#000000" font-family="sans-serif" font-size="14" font-weight="bold" lengthAdjust="spacing" textLength="416.999" x="399.4001" y="32.9951">Activity Diagram - Complete Code Analysis Workflow</text><ellipse cx="670.3723" cy="57.2969" fill="#222222" rx="10" ry="10" style="stroke:#222222;stroke-width:1;"/><rect fill="#E7F5FF" height="32.8047" rx="12.5" ry="12.5" style="stroke:#1E40AF;stroke-width:0.5;" width="221.4321" x="559.6563" y="87.2969"/><text fill="#000000" font-family="sans-serif" font-size="11" lengthAdjust="spacing" textLength="201.4321" x="569.6563" y="107.5073">Developer navigates to Upload page</text><rect fill="#E7F5FF" height="32.8047" rx="12.5" ry="12.5" style="stroke:#1E40AF;stroke-width:0.5;" width="213.1499" x="563.7974" y="140.1016"/><text fill="#000000" font-family="sans-serif" font-size="11" lengthAdjust="spacing" textLength="193.1499" x="573.7974" y="160.312">Select .py file from local filesystem</text><rect fill="#E7F5FF" height="32.8047" rx="12.5" ry="12.5" style="stroke:#1E40AF;stroke-width:0.5;" width="174.6069" x="583.0688" y="192.9063"/><text fill="#000000" font-family="sans-serif" font-size="11" lengthAdjust="spacing" textLength="154.6069" x="593.0688" y="213.1167">Click "Analyze Code" button</text><polygon fill="#FEF3C7" points="612.6868,245.7109,728.0579,245.7109,740.0579,258.5156,728.0579,271.3203,612.6868,271.3203,600.6868,258.5156,612.6868,245.7109" style="stroke:#1E40AF;stroke-width:0.5;"/><text fill="#000000" font-family="sans-serif" font-size="11" lengthAdjust="spacing" textLength="54.8872" x="612.6868" y="255.9214">File valid?</text><text fill="#000000" font-family="sans-serif" font-size="11" lengthAdjust="spacing" textLength="115.3711" x="612.6868" y="268.7261">(.py, &#8804;10 MB, UTF-8)</text><text fill="#000000" font-family="sans-serif" font-size="11" lengthAdjust="spacing" textLength="19.0083" x="581.6785" y="255.9214">yes</text><text fill="#000000" font-family="sans-serif" font-size="11" lengthAdjust="spacing" textLength="13.7017" x="740.0579" y="255.9214">no</text><rect fill="#E7F5FF" height="45.6094" rx="12.5" ry="12.5" style="stroke:#1E40AF;stroke-width:0.5;" width="231.6372" x="302.6831" y="281.3203"/><text fill="#000000" font-family="sans-serif" font-size="11" lengthAdjust="spacing" textLength="211.6372" x="312.6831" y="301.5308">Create CodeReview entity in database</text><text fill="#000000" font-family="sans-serif" font-size="11" lengthAdjust="spacing" textLength="107.9268" x="312.6831" y="314.3354">(status='PENDING')</text><rect fill="#E7F5FF" height="45.6094" rx="12.5" ry="12.5" style="stroke:#1E40AF;stroke-width:0.5;" width="216.3188" x="310.3423" y="361.9297"/><text fill="#000000" font-family="sans-serif" font-size="11" lengthAdjust="spacing" textLength="138.1392" x="320.3423" y="382.1401">Initialize AnalysisContext</text><text fill="#000000" font-family="sans-serif" font-size="11" lengthAdjust="spacing" textLength="196.3188" x="320.3423" y="394.9448">(analysis_id, code_content, user_id)</text><rect fill="#E7F5FF" height="45.6094" rx="12.5" ry="12.5" style="stroke:#1E40AF;stroke-width:0.5;" width="177.04" x="329.9817" y="442.5391"/><text fill="#000000" font-family="sans-serif" font-size="11" lengthAdjust="spacing" textLength="157.04" x="339.9817" y="462.7495">OrchestratorAgent.analyze()</text><text fill="#000000" font-family="sans-serif" font-size="11" lengthAdjust="spacing" textLength="43.3877" x="339.9817" y="475.5542">invoked</text><rect fill="none" height="291.5156" style="stroke:#000000;stroke-width:1.5;" width="817.0034" x="11" y="498.1484"/><path d="M192.1104,498.1484 L192.1104,507.4453 L182.1104,517.4453 L11,517.4453 " fill="none" style="stroke:#000000;stroke-width:1.5;"/><text fill="#000000" font-family="sans-serif" font-size="14" lengthAdjust="spacing" textLength="171.1104" x="14" y="512.1436">Parallel Agent Execution</text><rect fill="#555555" height="6" rx="2.5" ry="2.5" style="stroke:#555555;stroke-width:1;" width="797.0034" x="21" y="534.4453"/><rect fill="#E7F5FF" height="32.8047" rx="12.5" ry="12.5" style="stroke:#1E40AF;stroke-width:0.5;" width="152.3706" x="37.6702" y="560.4453"/><text fill="#000000" font-family="sans-serif" font-size="11" lengthAdjust="spacing" textLength="132.3706" x="47.6702" y="580.6558">SecurityAgent.analyze()</text><rect fill="#E7F5FF" height="32.8047" rx="12.5" ry="12.5" style="stroke:#1E40AF;stroke-width:0.5;" width="110.9702" x="58.3704" y="613.25"/><text fill="#000000" font-family="sans-serif" font-size="11" lengthAdjust="spacing" textLength="90.9702" x="68.3704" y="633.4604">&#8226; Parse AST tree</text><rect fill="#E7F5FF" height="32.8047" rx="12.5" ry="12.5" style="stroke:#1E40AF;stroke-width:0.5;" width="147.7192" x="39.9958" y="666.0547"/><text fill="#000000" font-family="sans-serif" font-size="11" lengthAdjust="spacing" textLength="127.7192" x="49.9958" y="686.2651">&#8226; Detect vulnerabilities</text><rect fill="#E7F5FF" height="32.8047" rx="12.5" ry="12.5" style="stroke:#1E40AF;stroke-width:0.5;" width="161.7109" x="33" y="718.8594"/><text fill="#000000" font-family="sans-serif" font-size="11" lengthAdjust="spacing" textLength="141.7109" x="43" y="739.0698">&#8226; Return security findings</text><rect fill="#E7F5FF" height="32.8047" rx="12.5" ry="12.5" style="stroke:#1E40AF;stroke-width:0.5;" width="146.5054" x="245.804" y="560.4453"/><text fill="#000000" font-family="sans-serif" font-size="11" lengthAdjust="spacing" textLength="126.5054" x="255.804" y="580.6558">QualityAgent.analyze()</text><rect fill="#E7F5FF" height="32.8047" rx="12.5" ry="12.5" style="stroke:#1E40AF;stroke-width:0.5;" width="192.6914" x="222.7109" y="613.25"/><text fill="#000000" font-family="sans-serif" font-size="11" lengthAdjust="spacing" textLength="172.6914" x="232.7109" y="633.4604">&#8226; Calculate complexity (Radon)</text><rect fill="#E7F5FF" height="32.8047" rx="12.5" ry="12.5" style="stroke:#1E40AF;stroke-width:0.5;" width="161.0933" x="238.51" y="666.0547"/><text fill="#000000" font-family="sans-serif" font-size="11" lengthAdjust="spacing" textLength="141.0933" x="248.51" y="686.2651">&#8226; Detect code duplication</text><rect fill="#E7F5FF" height="32.8047" rx="12.5" ry="12.5" style="stroke:#1E40AF;stroke-width:0.5;" width="155.4214" x="241.3459" y="718.8594"/><text fill="#000000" font-family="sans-serif" font-size="11" lengthAdjust="spacing" textLength="135.4214" x="251.3459" y="739.0698">&#8226; Return quality findings</text><rect fill="#E7F5FF" height="32.8047" rx="12.5" ry="12.5" style="stroke:#1E40AF;stroke-width:0.5;" width="177.4912" x="448.8728" y="560.4453"/><text fill="#000000" font-family="sans-serif" font-size="11" lengthAdjust="spacing" textLength="157.4912" x="458.8728" y="580.6558">PerformanceAgent.analyze()</text><rect fill="#E7F5FF" height="32.8047" rx="12.5" ry="12.5" style="stroke:#1E40AF;stroke-width:0.5;" width="140.4199" x="467.4084" y="613.25"/><text fill="#000000" font-family="sans-serif" font-size="11" lengthAdjust="spacing" textLength="120.4199" x="477.4084" y="633.4604">&#8226; Detect nested loops</text><rect fill="#E7F5FF" height="32.8047" rx="12.5" ry="12.5" style="stroke:#1E40AF;stroke-width:0.5;" width="179.79" x="447.7234" y="666.0547"/><text fill="#000000" font-family="sans-serif" font-size="11" lengthAdjust="spacing" textLength="159.79" x="457.7234" y="686.2651">&#8226; Identify inefficient patterns</text><rect fill="#E7F5FF" height="32.8047" rx="12.5" ry="12.5" style="stroke:#1E40AF;stroke-width:0.5;" width="188.4321" x="443.4023" y="718.8594"/><text fill="#000000" font-family="sans-serif" font-size="11" lengthAdjust="spacing" textLength="168.4321" x="453.4023" y="739.0698">&#8226; Return performance findings</text><rect fill="#E7F5FF" height="32.8047" rx="12.5" ry="12.5" style="stroke:#1E40AF;stroke-width:0.5;" width="134.8286" x="664.5046" y="560.4453"/><text fill="#000000" font-family="sans-serif" font-size="11" lengthAdjust="spacing" textLength="114.8286" x="674.5046" y="580.6558">StyleAgent.analyze()</text><rect fill="#E7F5FF" height="32.8047" rx="12.5" ry="12.5" style="stroke:#1E40AF;stroke-width:0.5;" width="141" x="661.4189" y="613.25"/><text fill="#000000" font-family="sans-serif" font-size="11" lengthAdjust="spacing" textLength="121" x="671.4189" y="633.4604">&#8226; Check PEP 8 (pylint)</text><rect fill="#E7F5FF" height="32.8047" rx="12.5" ry="12.5" style="stroke:#1E40AF;stroke-width:0.5;" width="135.731" x="664.0535" y="666.0547"/><text fill="#000000" font-family="sans-serif" font-size="11" lengthAdjust="spacing" textLength="115.731" x="674.0535" y="686.2651">&#8226; Validate docstrings</text><rect fill="#E7F5FF" height="32.8047" rx="12.5" ry="12.5" style="stroke:#1E40AF;stroke-width:0.5;" width="144.1689" x="659.8345" y="718.8594"/><text fill="#000000" font-family="sans-serif" font-size="11" lengthAdjust="spacing" textLength="124.1689" x="669.8345" y="739.0698">&#8226; Return style findings</text><rect fill="#555555" height="6" rx="2.5" ry="2.5" style="stroke:#555555;stroke-width:1;" width="797.0034" x="21" y="771.6641"/><rect fill="#E7F5FF" height="32.8047" rx="12.5" ry="12.5" style="stroke:#1E40AF;stroke-width:0.5;" width="211.3936" x="312.8049" y="809.6641"/><text fill="#000000" font-family="sans-serif" font-size="11" lengthAdjust="spacing" textLength="191.3936" x="322.8049" y="829.8745">Aggregate findings from all agents</text><rect fill="#E7F5FF" height="45.6094" rx="12.5" ry="12.5" style="stroke:#1E40AF;stroke-width:0.5;" width="147.7998" x="344.6018" y="862.4688"/><text fill="#000000" font-family="sans-serif" font-size="11" lengthAdjust="spacing" textLength="127.7998" x="354.6018" y="882.6792">Calculate quality_score</text><text fill="#000000" font-family="sans-serif" font-size="11" lengthAdjust="spacing" textLength="86.6519" x="354.6018" y="895.4839">(0-100 formula)</text><rect fill="none" height="1099.9849" style="stroke:#000000;stroke-width:1.5;" width="677.4072" x="130.198" y="975.3979"/><path d="M323.6609,975.3979 L323.6609,984.6948 L313.6609,994.6948 L130.198,994.6948 " fill="none" style="stroke:#000000;stroke-width:1.5;"/><text fill="#000000" font-family="sans-serif" font-size="14" lengthAdjust="spacing" textLength="183.4629" x="133.198" y="989.3931">AI Explanation Generation</text><rect fill="#E7F5FF" height="32.8047" rx="12.5" ry="12.5" style="stroke:#1E40AF;stroke-width:0.5;" width="194.7754" x="321.114" y="1055.6948"/><text fill="#000000" font-family="sans-serif" font-size="11" lengthAdjust="spacing" textLength="174.7754" x="331.114" y="1075.9053">Extract CWE ID from issue_type</text><rect fill="#555555" height="6" rx="2.5" ry="2.5" style="stroke:#555555;stroke-width:1;" width="556.6074" x="140.198" y="1108.4995"/><rect fill="#E7F5FF" height="45.6094" rx="12.5" ry="12.5" style="stroke:#1E40AF;stroke-width:0.5;" width="163.2202" x="154.198" y="1134.4995"/><text fill="#000000" font-family="sans-serif" font-size="11" lengthAdjust="spacing" textLength="143.2202" x="164.198" y="1154.71">Query OWASP MCP server</text><text fill="#000000" font-family="sans-serif" font-size="11" lengthAdjust="spacing" textLength="122.939" x="164.198" y="1167.5146">(mitigation strategies)</text><rect fill="#E7F5FF" height="45.6094" rx="12.5" ry="12.5" style="stroke:#1E40AF;stroke-width:0.5;" width="144.7007" x="345.4182" y="1134.4995"/><text fill="#000000" font-family="sans-serif" font-size="11" lengthAdjust="spacing" textLength="124.7007" x="355.4182" y="1154.71">Query CVE MCP server</text><text fill="#000000" font-family="sans-serif" font-size="11" lengthAdjust="spacing" textLength="102.7651" x="355.4182" y="1167.5146">(exploit examples)</text><rect fill="#E7F5FF" height="45.6094" rx="12.5" ry="12.5" style="stroke:#1E40AF;stroke-width:0.5;" width="164.6865" x="518.1189" y="1134.4995"/><text fill="#000000" font-family="sans-serif" font-size="11" lengthAdjust="spacing" textLength="144.6865" x="528.1189" y="1154.71">Query Custom MCP server</text><text fill="#000000" font-family="sans-serif" font-size="11" lengthAdjust="spacing" textLength="107.4165" x="528.1189" y="1167.5146">(team conventions)</text><rect fill="#555555" height="6" rx="2.5" ry="2.5" style="stroke:#555555;stroke-width:1;" width="556.6074" x="140.198" y="1200.1089"/><rect fill="#E7F5FF" height="32.8047" rx="12.5" ry="12.5" style="stroke:#1E40AF;stroke-width:0.5;" width="182.1587" x="327.4224" y="1226.1089"/><text fill="#000000" font-family="sans-serif" font-size="11" lengthAdjust="spacing" textLength="162.1587" x="337.4224" y="1246.3193">Combine MCP context strings</text><rect fill="#E7F5FF" height="45.6094" rx="12.5" ry="12.5" style="stroke:#1E40AF;stroke-width:0.5;" width="160.7764" x="338.1135" y="1278.9136"/><text fill="#000000" font-family="sans-serif" font-size="11" lengthAdjust="spacing" textLength="140.7764" x="348.1135" y="1299.124">Build Gemini prompt with</text><text fill="#000000" font-family="sans-serif" font-size="11" lengthAdjust="spacing" textLength="121.0107" x="348.1135" y="1311.9287">MCP-enriched context</text><rect fill="#E7F5FF" height="45.6094" rx="12.5" ry="12.5" style="stroke:#1E40AF;stroke-width:0.5;" width="121.7231" x="357.6401" y="1344.5229"/><text fill="#000000" font-family="sans-serif" font-size="11" lengthAdjust="spacing" textLength="101.7231" x="367.6401" y="1364.7334">Check RedisCache</text><text fill="#000000" font-family="sans-serif" font-size="11" lengthAdjust="spacing" textLength="75.5015" x="367.6401" y="1377.5381">(SHA256 key)</text><polygon fill="#FEF3C7" points="389.5596,1410.1323,447.4438,1410.1323,459.4438,1422.1323,447.4438,1434.1323,389.5596,1434.1323,377.5596,1422.1323,389.5596,1410.1323" style="stroke:#1E40AF;stroke-width:0.5;"/><text fill="#000000" font-family="sans-serif" font-size="11" lengthAdjust="spacing" textLength="57.8843" x="389.5596" y="1425.9404">Cache hit?</text><text fill="#000000" font-family="sans-serif" font-size="11" lengthAdjust="spacing" textLength="19.0083" x="358.5513" y="1419.5381">yes</text><text fill="#000000" font-family="sans-serif" font-size="11" lengthAdjust="spacing" textLength="13.7017" x="459.4438" y="1419.5381">no</text><rect fill="#E7F5FF" height="32.8047" rx="12.5" ry="12.5" style="stroke:#1E40AF;stroke-width:0.5;" width="179.5322" x="186.7354" y="1444.1323"/><text fill="#000000" font-family="sans-serif" font-size="11" lengthAdjust="spacing" textLength="159.5322" x="196.7354" y="1464.3428">Return cached AIExplanation</text><rect fill="#E7F5FF" height="45.6094" rx="12.5" ry="12.5" style="stroke:#1E40AF;stroke-width:0.5;" width="126.0308" x="497.4866" y="1444.1323"/><text fill="#000000" font-family="sans-serif" font-size="11" lengthAdjust="spacing" textLength="84.02" x="507.4866" y="1464.3428">Call Gemini API</text><text fill="#000000" font-family="sans-serif" font-size="11" lengthAdjust="spacing" textLength="106.0308" x="507.4866" y="1477.1475">(generate_content)</text><polygon fill="#FEF3C7" points="525.6194,1509.7417,595.3845,1509.7417,607.3845,1521.7417,595.3845,1533.7417,525.6194,1533.7417,513.6194,1521.7417,525.6194,1509.7417" style="stroke:#1E40AF;stroke-width:0.5;"/><text fill="#000000" font-family="sans-serif" font-size="11" lengthAdjust="spacing" textLength="69.7651" x="525.6194" y="1525.5498">API success?</text><text fill="#000000" font-family="sans-serif" font-size="11" lengthAdjust="spacing" textLength="19.0083" x="494.6111" y="1519.1475">yes</text><text fill="#000000" font-family="sans-serif" font-size="11" lengthAdjust="spacing" textLength="138.9341" x="607.3845" y="1519.1475">no - Rate limit or timeout</text><rect fill="#E7F5FF" height="45.6094" rx="12.5" ry="12.5" style="stroke:#1E40AF;stroke-width:0.5;" width="147.7246" x="396.2676" y="1543.7417"/><text fill="#000000" font-family="sans-serif" font-size="11" lengthAdjust="spacing" textLength="114.7051" x="406.2676" y="1563.9521">Parse JSON response</text><text fill="#000000" font-family="sans-serif" font-size="11" lengthAdjust="spacing" textLength="127.7246" x="406.2676" y="1576.7568">to AIExplanation object</text><rect fill="#E7F5FF" height="45.6094" rx="12.5" ry="12.5" style="stroke:#1E40AF;stroke-width:0.5;" width="101.4097" x="419.425" y="1617.9604"/><text fill="#000000" font-family="sans-serif" font-size="11" lengthAdjust="spacing" textLength="81.4097" x="429.425" y="1638.1709">Cache in Redis</text><text fill="#000000" font-family="sans-serif" font-size="11" lengthAdjust="spacing" textLength="80.0669" x="429.425" y="1650.9756">(TTL 24 hours)</text><rect fill="#E7F5FF" height="45.6094" rx="12.5" ry="12.5" style="stroke:#1E40AF;stroke-width:0.5;" width="157.4624" x="572.1428" y="1609.3511"/><text fill="#000000" font-family="sans-serif" font-size="11" lengthAdjust="spacing" textLength="137.4624" x="582.1428" y="1629.5615">Wait exponential backoff</text><text fill="#000000" font-family="sans-serif" font-size="11" lengthAdjust="spacing" textLength="99.8916" x="582.1428" y="1642.3662">(2^retry seconds)</text><rect fill="#E7F5FF" height="32.8047" rx="12.5" ry="12.5" style="stroke:#1E40AF;stroke-width:0.5;" width="93.0522" x="604.3479" y="1689.9604"/><text fill="#000000" font-family="sans-serif" font-size="11" lengthAdjust="spacing" textLength="73.0522" x="614.3479" y="1710.1709">Retry API call</text><polygon fill="#FEF3C7" points="650.874,1543.7417,662.874,1555.7417,650.874,1567.7417,638.874,1555.7417,650.874,1543.7417" style="stroke:#1E40AF;stroke-width:0.5;"/><polygon fill="#FEF3C7" points="621.4727,1742.7651,680.2754,1742.7651,692.2754,1754.7651,680.2754,1766.7651,621.4727,1766.7651,609.4727,1754.7651,621.4727,1742.7651" style="stroke:#1E40AF;stroke-width:0.5;"/><text fill="#000000" font-family="sans-serif" font-size="11" lengthAdjust="spacing" textLength="58.8027" x="621.4727" y="1758.5732">Retry &lt; 3?</text><text fill="#000000" font-family="sans-serif" font-size="11" lengthAdjust="spacing" textLength="19.0083" x="692.2754" y="1752.1709">yes</text><rect fill="#E7F5FF" height="32.8047" rx="12.5" ry="12.5" style="stroke:#1E40AF;stroke-width:0.5;" width="173.7637" x="563.9922" y="1808.1641"/><text fill="#000000" font-family="sans-serif" font-size="11" lengthAdjust="spacing" textLength="153.7637" x="573.9922" y="1828.3745">Use static template fallback</text><rect fill="#E7F5FF" height="32.8047" rx="12.5" ry="12.5" style="stroke:#1E40AF;stroke-width:0.5;" width="164.0796" x="568.8342" y="1860.9688"/><text fill="#000000" font-family="sans-serif" font-size="11" lengthAdjust="spacing" textLength="144.0796" x="578.8342" y="1881.1792">Log gemini_fallback event</text><polygon fill="#FEF3C7" points="560.502,1899.7734,572.502,1911.7734,560.502,1923.7734,548.502,1911.7734,560.502,1899.7734" style="stroke:#1E40AF;stroke-width:0.5;"/><polygon fill="#FEF3C7" points="418.5017,1929.7734,430.5017,1941.7734,418.5017,1953.7734,406.5017,1941.7734,418.5017,1929.7734" style="stroke:#1E40AF;stroke-width:0.5;"/><rect fill="#E7F5FF" height="45.6094" rx="12.5" ry="12.5" style="stroke:#1E40AF;stroke-width:0.5;" width="135.1992" x="350.9021" y="1973.7734"/><text fill="#000000" font-family="sans-serif" font-size="11" lengthAdjust="spacing" textLength="115.1992" x="360.9021" y="1993.9839">Attach AIExplanation</text><text fill="#000000" font-family="sans-serif" font-size="11" lengthAdjust="spacing" textLength="89.8262" x="360.9021" y="2006.7886">to finding object</text><polygon fill="#FEF3C7" points="418.5017,1011.6948,430.5017,1023.6948,418.5017,1035.6948,406.5017,1023.6948,418.5017,1011.6948" style="stroke:#1E40AF;stroke-width:0.5;"/><polygon fill="#FEF3C7" points="358.0984,2039.3828,478.905,2039.3828,490.905,2051.3828,478.905,2063.3828,358.0984,2063.3828,346.0984,2051.3828,358.0984,2039.3828" style="stroke:#1E40AF;stroke-width:0.5;"/><text fill="#000000" font-family="sans-serif" font-size="11" lengthAdjust="spacing" textLength="120.8066" x="358.0984" y="2055.1909">More critical findings?</text><text fill="#000000" font-family="sans-serif" font-size="11" lengthAdjust="spacing" textLength="19.0083" x="490.905" y="2048.7886">yes</text><polygon fill="#FEF3C7" points="360.7678,928.0781,476.2356,928.0781,488.2356,940.8828,476.2356,953.6875,360.7678,953.6875,348.7678,940.8828,360.7678,928.0781" style="stroke:#1E40AF;stroke-width:0.5;"/><text fill="#000000" font-family="sans-serif" font-size="11" lengthAdjust="spacing" textLength="19.0083" x="422.5017" y="963.8979">yes</text><text fill="#000000" font-family="sans-serif" font-size="11" lengthAdjust="spacing" textLength="115.4678" x="360.7678" y="938.2886">Critical findings exist</text><text fill="#000000" font-family="sans-serif" font-size="11" lengthAdjust="spacing" textLength="92.0928" x="360.7678" y="951.0933">AND AI enabled?</text><polygon fill="#FEF3C7" points="418.5017,2099.2817,430.5017,2111.2817,418.5017,2123.2817,406.5017,2111.2817,418.5017,2099.2817" style="stroke:#1E40AF;stroke-width:0.5;"/><text fill="#000000" font-family="sans-serif" font-size="11" lengthAdjust="spacing" textLength="13.7017" x="424.5017" y="2096.6875">no</text><rect fill="#E7F5FF" height="45.6094" rx="12.5" ry="12.5" style="stroke:#1E40AF;stroke-width:0.5;" width="197.187" x="319.9082" y="2143.2817"/><text fill="#000000" font-family="sans-serif" font-size="11" lengthAdjust="spacing" textLength="177.187" x="329.9082" y="2163.4922">Persist CodeReview to database</text><text fill="#000000" font-family="sans-serif" font-size="11" lengthAdjust="spacing" textLength="125.3291" x="329.9082" y="2176.2969">(status='COMPLETED')</text><rect fill="#E7F5FF" height="45.6094" rx="12.5" ry="12.5" style="stroke:#1E40AF;stroke-width:0.5;" width="134.7642" x="351.1196" y="2208.8911"/><text fill="#000000" font-family="sans-serif" font-size="11" lengthAdjust="spacing" textLength="114.7642" x="361.1196" y="2229.1016">Persist all findings to</text><text fill="#000000" font-family="sans-serif" font-size="11" lengthAdjust="spacing" textLength="112.2559" x="361.1196" y="2241.9063">agent_findings table</text><rect fill="#E7F5FF" height="45.6094" rx="12.5" ry="12.5" style="stroke:#1E40AF;stroke-width:0.5;" width="209.8735" x="313.5649" y="2274.5005"/><text fill="#000000" font-family="sans-serif" font-size="11" lengthAdjust="spacing" textLength="189.8735" x="323.5649" y="2294.7109">Emit ANALYSIS_COMPLETED event</text><text fill="#000000" font-family="sans-serif" font-size="11" lengthAdjust="spacing" textLength="81.6406" x="323.5649" y="2307.5156">via WebSocket</text><rect fill="#E7F5FF" height="45.6094" rx="12.5" ry="12.5" style="stroke:#1E40AF;stroke-width:0.5;" width="224.6118" x="306.1958" y="2340.1099"/><text fill="#000000" font-family="sans-serif" font-size="11" lengthAdjust="spacing" textLength="175.0225" x="316.1958" y="2360.3203">Return AnalysisDTO to frontend</text><text fill="#000000" font-family="sans-serif" font-size="11" lengthAdjust="spacing" textLength="204.6118" x="316.1958" y="2373.125">{analysis_id, quality_score, findings}</text><ellipse cx="418.5017" cy="2416.7192" fill="none" rx="11" ry="11" style="stroke:#222222;stroke-width:1;"/><ellipse cx="418.5017" cy="2416.7192" fill="#222222" rx="6" ry="6" style="stroke:#222222;stroke-width:1;"/><path d="M1003.2788,281.3203 L1003.2788,320.1523 L983.2788,324.1523 L1003.2788,328.1523 L1003.2788,366.9844 A0,0 0 0 0 1003.2788,366.9844 L1206.7993,366.9844 A0,0 0 0 0 1206.7993,366.9844 L1206.7993,291.3203 L1196.7993,281.3203 L1003.2788,281.3203 A0,0 0 0 0 1003.2788,281.3203 " fill="#FEFFDD" style="stroke:#181818;stroke-width:0.5;"/><path d="M1196.7993,281.3203 L1196.7993,291.3203 L1206.7993,291.3203 L1196.7993,281.3203 " fill="#FEFFDD" style="stroke:#181818;stroke-width:0.5;"/><text fill="#000000" font-family="sans-serif" font-size="13" font-weight="bold" lengthAdjust="spacing" textLength="129.1875" x="1009.2788" y="298.3872">Validation Errors:</text><text fill="#000000" font-family="sans-serif" font-size="13" lengthAdjust="spacing" textLength="162.9189" x="1009.2788" y="313.52">&#8226; File too large (&gt;10 MB)</text><text fill="#000000" font-family="sans-serif" font-size="13" lengthAdjust="spacing" textLength="182.5205" x="1009.2788" y="328.6528">&#8226; Invalid extension (not .py)</text><text fill="#000000" font-family="sans-serif" font-size="13" lengthAdjust="spacing" textLength="140.1436" x="1009.2788" y="343.7856">&#8226; Empty file (0 bytes)</text><text fill="#000000" font-family="sans-serif" font-size="13" lengthAdjust="spacing" textLength="160.8623" x="1009.2788" y="358.9185">&#8226; Invalid UTF-8 encoding</text><rect fill="#E7F5FF" height="45.6094" rx="12.5" ry="12.5" style="stroke:#1E40AF;stroke-width:0.5;" width="145.2754" x="838.0034" y="301.3477"/><text fill="#000000" font-family="sans-serif" font-size="11" lengthAdjust="spacing" textLength="93.5215" x="848.0034" y="321.5581">Return HTTP 422</text><text fill="#000000" font-family="sans-serif" font-size="11" lengthAdjust="spacing" textLength="125.2754" x="848.0034" y="334.3628">(Unprocessable Entity)</text><ellipse cx="910.6411" cy="412.9844" fill="none" rx="11" ry="11" style="stroke:#222222;stroke-width:1;"/><ellipse cx="910.6411" cy="412.9844" fill="#222222" rx="6" ry="6" style="stroke:#222222;stroke-width:1;"/><line style="stroke:#181818;stroke-width:1;" x1="670.3723" x2="670.3723" y1="67.2969" y2="87.2969"/><polygon fill="#181818" points="666.3723,77.2969,670.3723,87.2969,674.3723,77.2969,670.3723,81.2969" style="stroke:#181818;stroke-width:1;"/><line style="stroke:#181818;stroke-width:1;" x1="670.3723" x2="670.3723" y1="120.1016" y2="140.1016"/><polygon fill="#181818" points="666.3723,130.1016,670.3723,140.1016,674.3723,130.1016,670.3723,134.1016" style="stroke:#181818;stroke-width:1;"/><line style="stroke:#181818;stroke-width:1;" x1="670.3723" x2="670.3723" y1="172.9063" y2="192.9063"/><polygon fill="#181818" points="666.3723,182.9063,670.3723,192.9063,674.3723,182.9063,670.3723,186.9063" style="stroke:#181818;stroke-width:1;"/><line style="stroke:#181818;stroke-width:1;" x1="418.5017" x2="418.5017" y1="326.9297" y2="361.9297"/><polygon fill="#181818" points="414.5017,351.9297,418.5017,361.9297,422.5017,351.9297,418.5017,355.9297" style="stroke:#181818;stroke-width:1;"/><line style="stroke:#181818;stroke-width:1;" x1="418.5017" x2="418.5017" y1="407.5391" y2="442.5391"/><polygon fill="#181818" points="414.5017,432.5391,418.5017,442.5391,422.5017,432.5391,418.5017,436.5391" style="stroke:#181818;stroke-width:1;"/><line style="stroke:#181818;stroke-width:1;" x1="113.8555" x2="113.8555" y1="593.25" y2="613.25"/><polygon fill="#181818" points="109.8555,603.25,113.8555,613.25,117.8555,603.25,113.8555,607.25" style="stroke:#181818;stroke-width:1;"/><line style="stroke:#181818;stroke-width:1;" x1="113.8555" x2="113.8555" y1="646.0547" y2="666.0547"/><polygon fill="#181818" points="109.8555,656.0547,113.8555,666.0547,117.8555,656.0547,113.8555,660.0547" style="stroke:#181818;stroke-width:1;"/><line style="stroke:#181818;stroke-width:1;" x1="113.8555" x2="113.8555" y1="698.8594" y2="718.8594"/><polygon fill="#181818" points="109.8555,708.8594,113.8555,718.8594,117.8555,708.8594,113.8555,712.8594" style="stroke:#181818;stroke-width:1;"/><line style="stroke:#181818;stroke-width:1;" x1="319.0566" x2="319.0566" y1="593.25" y2="613.25"/><polygon fill="#181818" points="315.0566,603.25,319.0566,613.25,323.0566,603.25,319.0566,607.25" style="stroke:#181818;stroke-width:1;"/><line style="stroke:#181818;stroke-width:1;" x1="319.0566" x2="319.0566" y1="646.0547" y2="666.0547"/><polygon fill="#181818" points="315.0566,656.0547,319.0566,666.0547,323.0566,656.0547,319.0566,660.0547" style="stroke:#181818;stroke-width:1;"/><line style="stroke:#181818;stroke-width:1;" x1="319.0566" x2="319.0566" y1="698.8594" y2="718.8594"/><polygon fill="#181818" points="315.0566,708.8594,319.0566,718.8594,323.0566,708.8594,319.0566,712.8594" style="stroke:#181818;stroke-width:1;"/><line style="stroke:#181818;stroke-width:1;" x1="537.6184" x2="537.6184" y1="593.25" y2="613.25"/><polygon fill="#181818" points="533.6184,603.25,537.6184,613.25,541.6184,603.25,537.6184,607.25" style="stroke:#181818;stroke-width:1;"/><line style="stroke:#181818;stroke-width:1;" x1="537.6184" x2="537.6184" y1="646.0547" y2="666.0547"/><polygon fill="#181818" points="533.6184,656.0547,537.6184,666.0547,541.6184,656.0547,537.6184,660.0547" style="stroke:#181818;stroke-width:1;"/><line style="stroke:#181818;stroke-width:1;" x1="537.6184" x2="537.6184" y1="698.8594" y2="718.8594"/><polygon fill="#181818" points="533.6184,708.8594,537.6184,718.8594,541.6184,708.8594,537.6184,712.8594" style="stroke:#181818;stroke-width:1;"/><line style="stroke:#181818;stroke-width:1;" x1="731.9189" x2="731.9189" y1="593.25" y2="613.25"/><polygon fill="#181818" points="727.9189,603.25,731.9189,613.25,735.9189,603.25,731.9189,607.25" style="stroke:#181818;stroke-width:1;"/><line style="stroke:#181818;stroke-width:1;" x1="731.9189" x2="731.9189" y1="646.0547" y2="666.0547"/><polygon fill="#181818" points="727.9189,656.0547,731.9189,666.0547,735.9189,656.0547,731.9189,660.0547" style="stroke:#181818;stroke-width:1;"/><line style="stroke:#181818;stroke-width:1;" x1="731.9189" x2="731.9189" y1="698.8594" y2="718.8594"/><polygon fill="#181818" points="727.9189,708.8594,731.9189,718.8594,735.9189,708.8594,731.9189,712.8594" style="stroke:#181818;stroke-width:1;"/><line style="stroke:#181818;stroke-width:1;" x1="113.8555" x2="113.8555" y1="540.4453" y2="560.4453"/><polygon fill="#181818" points="109.8555,550.4453,113.8555,560.4453,117.8555,550.4453,113.8555,554.4453" style="stroke:#181818;stroke-width:1;"/><line style="stroke:#181818;stroke-width:1;" x1="319.0566" x2="319.0566" y1="540.4453" y2="560.4453"/><polygon fill="#181818" points="315.0566,550.4453,319.0566,560.4453,323.0566,550.4453,319.0566,554.4453" style="stroke:#181818;stroke-width:1;"/><line style="stroke:#181818;stroke-width:1;" x1="537.6184" x2="537.6184" y1="540.4453" y2="560.4453"/><polygon fill="#181818" points="533.6184,550.4453,537.6184,560.4453,541.6184,550.4453,537.6184,554.4453" style="stroke:#181818;stroke-width:1;"/><line style="stroke:#181818;stroke-width:1;" x1="731.9189" x2="731.9189" y1="540.4453" y2="560.4453"/><polygon fill="#181818" points="727.9189,550.4453,731.9189,560.4453,735.9189,550.4453,731.9189,554.4453" style="stroke:#181818;stroke-width:1;"/><line style="stroke:#181818;stroke-width:1;" x1="113.8555" x2="113.8555" y1="751.6641" y2="771.6641"/><polygon fill="#181818" points="109.8555,761.6641,113.8555,771.6641,117.8555,761.6641,113.8555,765.6641" style="stroke:#181818;stroke-width:1;"/><line style="stroke:#181818;stroke-width:1;" x1="319.0566" x2="319.0566" y1="751.6641" y2="771.6641"/><polygon fill="#181818" points="315.0566,761.6641,319.0566,771.6641,323.0566,761.6641,319.0566,765.6641" style="stroke:#181818;stroke-width:1;"/><line style="stroke:#181818;stroke-width:1;" x1="537.6184" x2="537.6184" y1="751.6641" y2="771.6641"/><polygon fill="#181818" points="533.6184,761.6641,537.6184,771.6641,541.6184,761.6641,537.6184,765.6641" style="stroke:#181818;stroke-width:1;"/><line style="stroke:#181818;stroke-width:1;" x1="731.9189" x2="731.9189" y1="751.6641" y2="771.6641"/><polygon fill="#181818" points="727.9189,761.6641,731.9189,771.6641,735.9189,761.6641,731.9189,765.6641" style="stroke:#181818;stroke-width:1;"/><line style="stroke:#181818;stroke-width:1;" x1="418.5017" x2="418.5017" y1="488.1484" y2="534.4453"/><polygon fill="#181818" points="414.5017,524.4453,418.5017,534.4453,422.5017,524.4453,418.5017,528.4453" style="stroke:#181818;stroke-width:1;"/><line style="stroke:#181818;stroke-width:1;" x1="418.5017" x2="418.5017" y1="777.6641" y2="809.6641"/><polygon fill="#181818" points="414.5017,799.6641,418.5017,809.6641,422.5017,799.6641,418.5017,803.6641" style="stroke:#181818;stroke-width:1;"/><line style="stroke:#181818;stroke-width:1;" x1="418.5017" x2="418.5017" y1="842.4688" y2="862.4688"/><polygon fill="#181818" points="414.5017,852.4688,418.5017,862.4688,422.5017,852.4688,418.5017,856.4688" style="stroke:#181818;stroke-width:1;"/><line style="stroke:#181818;stroke-width:1;" x1="235.8081" x2="235.8081" y1="1114.4995" y2="1134.4995"/><polygon fill="#181818" points="231.8081,1124.4995,235.8081,1134.4995,239.8081,1124.4995,235.8081,1128.4995" style="stroke:#181818;stroke-width:1;"/><line style="stroke:#181818;stroke-width:1;" x1="417.7686" x2="417.7686" y1="1114.4995" y2="1134.4995"/><polygon fill="#181818" points="413.7686,1124.4995,417.7686,1134.4995,421.7686,1124.4995,417.7686,1128.4995" style="stroke:#181818;stroke-width:1;"/><line style="stroke:#181818;stroke-width:1;" x1="600.4622" x2="600.4622" y1="1114.4995" y2="1134.4995"/><polygon fill="#181818" points="596.4622,1124.4995,600.4622,1134.4995,604.4622,1124.4995,600.4622,1128.4995" style="stroke:#181818;stroke-width:1;"/><line style="stroke:#181818;stroke-width:1;" x1="235.8081" x2="235.8081" y1="1180.1089" y2="1200.1089"/><polygon fill="#181818" points="231.8081,1190.1089,235.8081,1200.1089,239.8081,1190.1089,235.8081,1194.1089" style="stroke:#181818;stroke-width:1;"/><line style="stroke:#181818;stroke-width:1;" x1="417.7686" x2="417.7686" y1="1180.1089" y2="1200.1089"/><polygon fill="#181818" points="413.7686,1190.1089,417.7686,1200.1089,421.7686,1190.1089,417.7686,1194.1089" style="stroke:#181818;stroke-width:1;"/><line style="stroke:#181818;stroke-width:1;" x1="600.4622" x2="600.4622" y1="1180.1089" y2="1200.1089"/><polygon fill="#181818" points="596.4622,1190.1089,600.4622,1200.1089,604.4622,1190.1089,600.4622,1194.1089" style="stroke:#181818;stroke-width:1;"/><line style="stroke:#181818;stroke-width:1;" x1="418.5017" x2="418.5017" y1="1088.4995" y2="1108.4995"/><polygon fill="#181818" points="414.5017,1098.4995,418.5017,1108.4995,422.5017,1098.4995,418.5017,1102.4995" style="stroke:#181818;stroke-width:1;"/><line style="stroke:#181818;stroke-width:1;" x1="418.5017" x2="418.5017" y1="1206.1089" y2="1226.1089"/><polygon fill="#181818" points="414.5017,1216.1089,418.5017,1226.1089,422.5017,1216.1089,418.5017,1220.1089" style="stroke:#181818;stroke-width:1;"/><line style="stroke:#181818;stroke-width:1;" x1="418.5017" x2="418.5017" y1="1258.9136" y2="1278.9136"/><polygon fill="#181818" points="414.5017,1268.9136,418.5017,1278.9136,422.5017,1268.9136,418.5017,1272.9136" style="stroke:#181818;stroke-width:1;"/><line style="stroke:#181818;stroke-width:1;" x1="418.5017" x2="418.5017" y1="1324.5229" y2="1344.5229"/><polygon fill="#181818" points="414.5017,1334.5229,418.5017,1344.5229,422.5017,1334.5229,418.5017,1338.5229" style="stroke:#181818;stroke-width:1;"/><line style="stroke:#181818;stroke-width:1;" x1="470.1299" x2="470.1299" y1="1589.3511" y2="1617.9604"/><polygon fill="#181818" points="466.1299,1607.9604,470.1299,1617.9604,474.1299,1607.9604,470.1299,1611.9604" style="stroke:#181818;stroke-width:1;"/><line style="stroke:#181818;stroke-width:1;" x1="650.874" x2="650.874" y1="1654.9604" y2="1689.9604"/><polygon fill="#181818" points="646.874,1679.9604,650.874,1689.9604,654.874,1679.9604,650.874,1683.9604" style="stroke:#181818;stroke-width:1;"/><line style="stroke:#181818;stroke-width:1;" x1="650.874" x2="650.874" y1="1567.7417" y2="1609.3511"/><polygon fill="#181818" points="646.874,1599.3511,650.874,1609.3511,654.874,1599.3511,650.874,1603.3511" style="stroke:#181818;stroke-width:1;"/><line style="stroke:#181818;stroke-width:1;" x1="692.2754" x2="741.6052" y1="1754.7651" y2="1754.7651"/><polygon fill="#181818" points="737.6052,1676.0581,741.6052,1666.0581,745.6052,1676.0581,741.6052,1672.0581" style="stroke:#181818;stroke-width:1;"/><line style="stroke:#181818;stroke-width:1;" x1="741.6052" x2="741.6052" y1="1555.7417" y2="1754.7651"/><line style="stroke:#181818;stroke-width:1;" x1="741.6052" x2="662.874" y1="1555.7417" y2="1555.7417"/><polygon fill="#181818" points="672.874,1551.7417,662.874,1555.7417,672.874,1559.7417,668.874,1555.7417" style="stroke:#181818;stroke-width:1;"/><line style="stroke:#181818;stroke-width:1;" x1="650.874" x2="650.874" y1="1722.7651" y2="1742.7651"/><polygon fill="#181818" points="646.874,1732.7651,650.874,1742.7651,654.874,1732.7651,650.874,1736.7651" style="stroke:#181818;stroke-width:1;"/><line style="stroke:#181818;stroke-width:1;" x1="650.874" x2="650.874" y1="1766.7651" y2="1808.1641"/><polygon fill="#181818" points="646.874,1798.1641,650.874,1808.1641,654.874,1798.1641,650.874,1802.1641" style="stroke:#181818;stroke-width:1;"/><text fill="#000000" font-family="sans-serif" font-size="11" lengthAdjust="spacing" textLength="13.7017" x="654.874" y="1788.0698">no</text><line style="stroke:#181818;stroke-width:1;" x1="650.874" x2="650.874" y1="1840.9688" y2="1860.9688"/><polygon fill="#181818" points="646.874,1850.9688,650.874,1860.9688,654.874,1850.9688,650.874,1854.9688" style="stroke:#181818;stroke-width:1;"/><line style="stroke:#181818;stroke-width:1;" x1="513.6194" x2="470.1299" y1="1521.7417" y2="1521.7417"/><line style="stroke:#181818;stroke-width:1;" x1="470.1299" x2="470.1299" y1="1521.7417" y2="1543.7417"/><polygon fill="#181818" points="466.1299,1533.7417,470.1299,1543.7417,474.1299,1533.7417,470.1299,1537.7417" style="stroke:#181818;stroke-width:1;"/><line style="stroke:#181818;stroke-width:1;" x1="607.3845" x2="650.874" y1="1521.7417" y2="1521.7417"/><line style="stroke:#181818;stroke-width:1;" x1="650.874" x2="650.874" y1="1521.7417" y2="1543.7417"/><polygon fill="#181818" points="646.874,1533.7417,650.874,1543.7417,654.874,1533.7417,650.874,1537.7417" style="stroke:#181818;stroke-width:1;"/><line style="stroke:#181818;stroke-width:1;" x1="470.1299" x2="470.1299" y1="1663.5698" y2="1911.7734"/><line style="stroke:#181818;stroke-width:1;" x1="470.1299" x2="548.502" y1="1911.7734" y2="1911.7734"/><polygon fill="#181818" points="538.502,1907.7734,548.502,1911.7734,538.502,1915.7734,542.502,1911.7734" style="stroke:#181818;stroke-width:1;"/><line style="stroke:#181818;stroke-width:1;" x1="650.874" x2="650.874" y1="1893.7734" y2="1911.7734"/><line style="stroke:#181818;stroke-width:1;" x1="650.874" x2="572.502" y1="1911.7734" y2="1911.7734"/><polygon fill="#181818" points="582.502,1907.7734,572.502,1911.7734,582.502,1915.7734,578.502,1911.7734" style="stroke:#181818;stroke-width:1;"/><line style="stroke:#181818;stroke-width:1;" x1="560.502" x2="560.502" y1="1489.7417" y2="1509.7417"/><polygon fill="#181818" points="556.502,1499.7417,560.502,1509.7417,564.502,1499.7417,560.502,1503.7417" style="stroke:#181818;stroke-width:1;"/><line style="stroke:#181818;stroke-width:1;" x1="377.5596" x2="276.5015" y1="1422.1323" y2="1422.1323"/><line style="stroke:#181818;stroke-width:1;" x1="276.5015" x2="276.5015" y1="1422.1323" y2="1444.1323"/><polygon fill="#181818" points="272.5015,1434.1323,276.5015,1444.1323,280.5015,1434.1323,276.5015,1438.1323" style="stroke:#181818;stroke-width:1;"/><line style="stroke:#181818;stroke-width:1;" x1="459.4438" x2="560.502" y1="1422.1323" y2="1422.1323"/><line style="stroke:#181818;stroke-width:1;" x1="560.502" x2="560.502" y1="1422.1323" y2="1444.1323"/><polygon fill="#181818" points="556.502,1434.1323,560.502,1444.1323,564.502,1434.1323,560.502,1438.1323" style="stroke:#181818;stroke-width:1;"/><line style="stroke:#181818;stroke-width:1;" x1="276.5015" x2="276.5015" y1="1476.937" y2="1941.7734"/><line style="stroke:#181818;stroke-width:1;" x1="276.5015" x2="406.5017" y1="1941.7734" y2="1941.7734"/><polygon fill="#181818" points="396.5017,1937.7734,406.5017,1941.7734,396.5017,1945.7734,400.5017,1941.7734" style="stroke:#181818;stroke-width:1;"/><line style="stroke:#181818;stroke-width:1;" x1="560.502" x2="560.502" y1="1923.7734" y2="1941.7734"/><line style="stroke:#181818;stroke-width:1;" x1="560.502" x2="430.5017" y1="1941.7734" y2="1941.7734"/><polygon fill="#181818" points="440.5017,1937.7734,430.5017,1941.7734,440.5017,1945.7734,436.5017,1941.7734" style="stroke:#181818;stroke-width:1;"/><line style="stroke:#181818;stroke-width:1;" x1="418.5017" x2="418.5017" y1="1390.1323" y2="1410.1323"/><polygon fill="#181818" points="414.5017,1400.1323,418.5017,1410.1323,422.5017,1400.1323,418.5017,1404.1323" style="stroke:#181818;stroke-width:1;"/><line style="stroke:#181818;stroke-width:1;" x1="418.5017" x2="418.5017" y1="1953.7734" y2="1973.7734"/><polygon fill="#181818" points="414.5017,1963.7734,418.5017,1973.7734,422.5017,1963.7734,418.5017,1967.7734" style="stroke:#181818;stroke-width:1;"/><line style="stroke:#181818;stroke-width:1;" x1="418.5017" x2="418.5017" y1="1035.6948" y2="1055.6948"/><polygon fill="#181818" points="414.5017,1045.6948,418.5017,1055.6948,422.5017,1045.6948,418.5017,1049.6948" style="stroke:#181818;stroke-width:1;"/><line style="stroke:#181818;stroke-width:1;" x1="490.905" x2="785.6052" y1="2051.3828" y2="2051.3828"/><polygon fill="#181818" points="781.6052,1537.937,785.6052,1527.937,789.6052,1537.937,785.6052,1533.937" style="stroke:#181818;stroke-width:1;"/><line style="stroke:#181818;stroke-width:1;" x1="785.6052" x2="785.6052" y1="1023.6948" y2="2051.3828"/><line style="stroke:#181818;stroke-width:1;" x1="785.6052" x2="430.5017" y1="1023.6948" y2="1023.6948"/><polygon fill="#181818" points="440.5017,1019.6948,430.5017,1023.6948,440.5017,1027.6948,436.5017,1023.6948" style="stroke:#181818;stroke-width:1;"/><line style="stroke:#181818;stroke-width:1;" x1="418.5017" x2="418.5017" y1="2019.3828" y2="2039.3828"/><polygon fill="#181818" points="414.5017,2029.3828,418.5017,2039.3828,422.5017,2029.3828,418.5017,2033.3828" style="stroke:#181818;stroke-width:1;"/><line style="stroke:#181818;stroke-width:1;" x1="418.5017" x2="418.5017" y1="953.6875" y2="1011.6948"/><polygon fill="#181818" points="414.5017,1001.6948,418.5017,1011.6948,422.5017,1001.6948,418.5017,1005.6948" style="stroke:#181818;stroke-width:1;"/><line style="stroke:#181818;stroke-width:1;" x1="488.2356" x2="817.6052" y1="940.8828" y2="940.8828"/><polygon fill="#181818" points="813.6052,1515.7886,817.6052,1525.7886,821.6052,1515.7886,817.6052,1519.7886" style="stroke:#181818;stroke-width:1;"/><line style="stroke:#181818;stroke-width:1;" x1="817.6052" x2="817.6052" y1="940.8828" y2="2111.2817"/><line style="stroke:#181818;stroke-width:1;" x1="817.6052" x2="430.5017" y1="2111.2817" y2="2111.2817"/><polygon fill="#181818" points="440.5017,2107.2817,430.5017,2111.2817,440.5017,2115.2817,436.5017,2111.2817" style="stroke:#181818;stroke-width:1;"/><line style="stroke:#181818;stroke-width:1;" x1="418.5017" x2="418.5017" y1="2063.3828" y2="2099.2817"/><polygon fill="#181818" points="414.5017,2089.2817,418.5017,2099.2817,422.5017,2089.2817,418.5017,2093.2817" style="stroke:#181818;stroke-width:1;"/><line style="stroke:#181818;stroke-width:1;" x1="418.5017" x2="418.5017" y1="908.0781" y2="928.0781"/><polygon fill="#181818" points="414.5017,918.0781,418.5017,928.0781,422.5017,918.0781,418.5017,922.0781" style="stroke:#181818;stroke-width:1;"/><line style="stroke:#181818;stroke-width:1;" x1="418.5017" x2="418.5017" y1="2123.2817" y2="2143.2817"/><polygon fill="#181818" points="414.5017,2133.2817,418.5017,2143.2817,422.5017,2133.2817,418.5017,2137.2817" style="stroke:#181818;stroke-width:1;"/><line style="stroke:#181818;stroke-width:1;" x1="418.5017" x2="418.5017" y1="2188.8911" y2="2208.8911"/><polygon fill="#181818" points="414.5017,2198.8911,418.5017,2208.8911,422.5017,2198.8911,418.5017,2202.8911" style="stroke:#181818;stroke-width:1;"/><line style="stroke:#181818;stroke-width:1;" x1="418.5017" x2="418.5017" y1="2254.5005" y2="2274.5005"/><polygon fill="#181818" points="414.5017,2264.5005,418.5017,2274.5005,422.5017,2264.5005,418.5017,2268.5005" style="stroke:#181818;stroke-width:1;"/><line style="stroke:#181818;stroke-width:1;" x1="418.5017" x2="418.5017" y1="2320.1099" y2="2340.1099"/><polygon fill="#181818" points="414.5017,2330.1099,418.5017,2340.1099,422.5017,2330.1099,418.5017,2334.1099" style="stroke:#181818;stroke-width:1;"/><line style="stroke:#181818;stroke-width:1;" x1="418.5017" x2="418.5017" y1="2385.7192" y2="2405.7192"/><polygon fill="#181818" points="414.5017,2395.7192,418.5017,2405.7192,422.5017,2395.7192,418.5017,2399.7192" style="stroke:#181818;stroke-width:1;"/><line style="stroke:#181818;stroke-width:1;" x1="910.6411" x2="910.6411" y1="346.957" y2="401.9844"/><polygon fill="#181818" points="906.6411,391.9844,910.6411,401.9844,914.6411,391.9844,910.6411,395.9844" style="stroke:#181818;stroke-width:1;"/><line style="stroke:#181818;stroke-width:1;" x1="600.6868" x2="418.5017" y1="258.5156" y2="258.5156"/><line style="stroke:#181818;stroke-width:1;" x1="418.5017" x2="418.5017" y1="258.5156" y2="281.3203"/><polygon fill="#181818" points="414.5017,271.3203,418.5017,281.3203,422.5017,271.3203,418.5017,275.3203" style="stroke:#181818;stroke-width:1;"/><line style="stroke:#181818;stroke-width:1;" x1="740.0579" x2="910.6411" y1="258.5156" y2="258.5156"/><line style="stroke:#181818;stroke-width:1;" x1="910.6411" x2="910.6411" y1="258.5156" y2="301.3477"/><polygon fill="#181818" points="906.6411,291.3477,910.6411,301.3477,914.6411,291.3477,910.6411,295.3477" style="stroke:#181818;stroke-width:1;"/><line style="stroke:#181818;stroke-width:1;" x1="670.3723" x2="670.3723" y1="225.7109" y2="245.7109"/><polygon fill="#181818" points="666.3723,235.7109,670.3723,245.7109,674.3723,235.7109,670.3723,239.7109" style="stroke:#181818;stroke-width:1;"/><!--SRC=[ZLPjRnf74FxEhnYv7mAM7TbkqaHscuZ0aL3vXHeSgv9LQxaRZgsFtUlk7ZQ98lLh_qRLNvPVqcVl1JXCdV89sDcPPsQUPtRidLIfC696On7UnKPdAkheH1lwhfT_6dPf8K8dvz8jtcrQ1gzwBxTRQXEnAQqEWnS7xMrMFQtSK7vYEZpSSjgLOgPLz2XeB-XzttdLQ3Zf4gPsQKqmZ_trVUheMPgmOto9OA14ih3IqhKsTvD4tpSQrWdZ6etZBiyvqIaRKc8kO-7OajDqbIPQH9IAc4zWDUI4GqVFqmLD929EZ9vHeaEHvB_jmZgUUSDE8iCxsia3VYgYxz0uSquh7Ci9DNl-_bmaCdfxevhmk4TV__hdy83EtktHrQYt_xhL8ZTbHSq5srQ3wBXZM9IfNF9SyZsnSZvVgIWIJeo5PVX2IYwpFpqR1EVT_ldxPwqJNFRt-qewYOYVLfNeeEpyu71BbF_SocYFGeIu3VsPSdkKMJRuU-ddmeHJjiu8fqqxXibpKUJPRDqegURwZgFI5cq4GgaLxGpGqIJXXF8h53nmcFcJ7VeCGw89Uf9_GOGXpWmos_1-Kfr__VDlWZ-BH8OZSeQvTjH5nz6cUPOeDc8i4q1WMpEvP9SPHROCXFQfIAguDF9OICH2gkhEBnaAzpIWZaZ2BF4T2dFMFNY_pKiHQTNQ1iyNcQ8i1LM4ByGsV7yKORy9Ry06Vyw42lafY6LaXUvn1EBgj5wLVkGPDV6Cuib4Xj9tAXNEiL5RwvUkuduJuz0jaYVHTQOCqGo20RscPhf8f79rWuzUBhx0aGx1lrMmZQRwG1jmM4KLmxwKD6x7iM6lzALfeMUm5C01qrQ4NtMsxCUj3RNnMZlOFpmuy8vdEAy4ukNT0QjaCHTAt-23XT3Qvrrgzu57Z1EEtcvelAOOc0KFQO9YvR_VisVpkcI83AUO2UKF80qU84jqk7CTKBzRv2EjpVZMBTAbI7AKnMTDTINFsIpeuhez7D1PPm21c3aRP3e3gBW0aakVOqYgTL9pLEltchlEnw3kZ96MbWur4Luf_zjFPXqIghboZ46FKJNtpDLgtTLQppUoFiQxC0R7SrTXCGDfWr7hvkyocKHem4mgIIcAcZgwbsvwe-1WdvMHc8XHvMcRXuBRbnnXvWeO0_dmG_levGzqnulMbXivYRmbJQLxJ9FIRSduKEJns_qrlgpL8S6WR2fTkzdnD2ypQW_wm1CN_5eE_ZLKQxWAPBX1DWj3jlQ_iFcfb8_eduSNvo2gJT4Tv8rNjOQJzFXt3AMJsjMwdw8EUENo-W7gQ7HAHozegZDZQp2hLF7qNtgz9XAy9QmAJivOPwuES4CzPRHhaJCJS3sb866_5Ud9176FVZFiG4Gy6rX7wg4VmIxQ0sjVB8o2v6HBSBgV-aMWMLZ-ID-Zd5XG7XTp_utIJzNe2edxbr-6X1qapQVL144z-AVkdUgOufm6jvKviHTJhQoOOPF6zbyhZhUTGwFgtStxNSx0ZKxN2t26WKhXvjHyN8rL7VmShw0qYZSG-ujRtuyGUyjYrBau6vm6ew2xMesgkruKoudjz8tA7uBRrLz-QbUN0i-jzddxzDTXVtYxz5gKxqRDfQ1h7WzrUCUkkbCAjjg_kgCB3n9psaikkb6VQtjOxRdPMoBxKdh3D4pzjtM1Ln4-Z4O3Ud5qXBol54QMbwe7Jq6-CrQPAmsU61bF2ndixfPlh1TcO8mszdXtDp_o3so-j3gjAH4cHiWt-RxQMfxtLRxHGZt8ndeVG9NlookR0CEpN9-R1pHUkAgtwmxo1HZTnOw4X8j6vrZN4Yzw_oy0]--></g></svg>