<svg xmlns="http://www.w3.org/2000/svg" xmlns:xlink="http://www.w3.org/1999/xlink" contentStyleType="text/css" height="1992px" preserveAspectRatio="none" style="width:822px;height:1992px;background:#FFFFFF;" version="1.1" viewBox="0 0 822 1992" width="822px" zoomAndPan="magnify"><title>Activity Diagram - MCP Context Enrichment (Model Context Protocol)</title><defs/><g><text fill="#000000" font-family="sans-serif" font-size="14" font-weight="bold" lengthAdjust="spacing" textLength="546.7178" x="136.4136" y="32.9951">Activity Diagram - MCP Context Enrichment (Model Context Protocol)</text><ellipse cx="413.7725" cy="57.2969" fill="#222222" rx="10" ry="10" style="stroke:#222222;stroke-width:1;"/><rect fill="#E7F5FF" height="31.6406" rx="12.5" ry="12.5" style="stroke:#1E40AF;stroke-width:0.5;" width="242.1484" x="292.6982" y="87.2969"/><text fill="#000000" font-family="sans-serif" font-size="10" lengthAdjust="spacing" textLength="222.1484" x="302.6982" y="106.5791">MCPContextEnricher.enrich_context(finding)</text><rect fill="#E7F5FF" height="78.2031" rx="12.5" ry="12.5" style="stroke:#1E40AF;stroke-width:0.5;" width="133.3057" x="347.1196" y="138.9375"/><text fill="#000000" font-family="sans-serif" font-size="10" lengthAdjust="spacing" textLength="113.3057" x="357.1196" y="158.2197">Extract finding details:</text><text fill="#000000" font-family="sans-serif" font-size="10" lengthAdjust="spacing" textLength="46.0938" x="357.1196" y="169.8604">&#8226; CWE ID</text><text fill="#000000" font-family="sans-serif" font-size="10" lengthAdjust="spacing" textLength="62.1045" x="357.1196" y="181.501">&#8226; issue_type</text><text fill="#000000" font-family="sans-serif" font-size="10" lengthAdjust="spacing" textLength="49.2383" x="357.1196" y="193.1416">&#8226; severity</text><text fill="#000000" font-family="sans-serif" font-size="10" lengthAdjust="spacing" textLength="75.2881" x="357.1196" y="204.7822">&#8226; code_snippet</text><rect fill="none" height="643.125" style="stroke:#000000;stroke-width:1.5;" width="800.5449" x="11" y="227.1406"/><path d="M227.1787,227.1406 L227.1787,236.4375 L217.1787,246.4375 L11,246.4375 " fill="none" style="stroke:#000000;stroke-width:1.5;"/><text fill="#000000" font-family="sans-serif" font-size="14" lengthAdjust="spacing" textLength="206.1787" x="14" y="241.1357">MCP Server Queries (Parallel)</text><rect fill="#555555" height="6" rx="2.5" ry="2.5" style="stroke:#555555;stroke-width:1;" width="780.5449" x="21" y="263.4375"/><rect fill="none" height="517.4688" style="stroke:#000000;stroke-width:1.5;" width="200.3906" x="33" y="301.1172"/><path d="M179.876,301.1172 L179.876,310.4141 L169.876,320.4141 L33,320.4141 " fill="none" style="stroke:#000000;stroke-width:1.5;"/><text fill="#000000" font-family="sans-serif" font-size="14" lengthAdjust="spacing" textLength="136.876" x="36" y="315.1123">OWASP MCP Server</text><rect fill="#E7F5FF" height="43.2813" rx="12.5" ry="12.5" style="stroke:#1E40AF;stroke-width:0.5;" width="132.1338" x="67.1284" y="337.4141"/><text fill="#000000" font-family="sans-serif" font-size="10" lengthAdjust="spacing" textLength="112.1338" x="77.1284" y="356.6963">Initialize ClientSession</text><text fill="#000000" font-family="sans-serif" font-size="10" lengthAdjust="spacing" textLength="88.7402" x="77.1284" y="368.3369">for OWASP server</text><rect fill="#E7F5FF" height="54.9219" rx="12.5" ry="12.5" style="stroke:#1E40AF;stroke-width:0.5;" width="169.9414" x="48.2246" y="415.6953"/><text fill="#000000" font-family="sans-serif" font-size="10" lengthAdjust="spacing" textLength="60.5176" x="58.2246" y="434.9775">Build query:</text><text fill="#000000" font-family="sans-serif" font-size="10" lengthAdjust="spacing" textLength="121.1621" x="58.2246" y="446.6182">&#8226; cwe_id: finding.cwe_id</text><text fill="#000000" font-family="sans-serif" font-size="10" lengthAdjust="spacing" textLength="149.9414" x="58.2246" y="458.2588">&#8226; attack_vector: code_snippet</text><rect fill="#E7F5FF" height="54.9219" rx="12.5" ry="12.5" style="stroke:#1E40AF;stroke-width:0.5;" width="132.0166" x="67.187" y="505.6172"/><text fill="#000000" font-family="sans-serif" font-size="10" lengthAdjust="spacing" textLength="94.7852" x="77.187" y="524.8994">Send MCP request:</text><text fill="#000000" font-family="sans-serif" font-size="10" lengthAdjust="spacing" textLength="112.0166" x="77.187" y="536.54">call_tool('lookup_cwe',</text><text fill="#000000" font-family="sans-serif" font-size="10" lengthAdjust="spacing" textLength="96.626" x="77.187" y="548.1807">params={cwe_id})</text><rect fill="#E7F5FF" height="124.7656" rx="12.5" ry="12.5" style="stroke:#1E40AF;stroke-width:0.5;" width="180.3906" x="43" y="595.5391"/><text fill="#000000" font-family="sans-serif" font-size="10" lengthAdjust="spacing" textLength="91.7871" x="53" y="614.8213">Receive response:</text><text fill="#000000" font-family="sans-serif" font-size="10" lengthAdjust="spacing" textLength="6.3623" x="53" y="626.4619">{</text><text fill="#000000" font-family="sans-serif" font-size="10" lengthAdjust="spacing" textLength="76.1572" x="59.3574" y="638.1025">cwe_name: str,</text><text fill="#000000" font-family="sans-serif" font-size="10" lengthAdjust="spacing" textLength="78.5693" x="59.3574" y="649.7432">description: str,</text><text fill="#000000" font-family="sans-serif" font-size="10" lengthAdjust="spacing" textLength="97.7539" x="59.3574" y="661.3838">severity_rating: str,</text><text fill="#000000" font-family="sans-serif" font-size="10" lengthAdjust="spacing" textLength="154.0332" x="59.3574" y="673.0244">mitigation_strategies: List[str],</text><text fill="#000000" font-family="sans-serif" font-size="10" lengthAdjust="spacing" textLength="104.1455" x="59.3574" y="684.665">owasp_category: str,</text><text fill="#000000" font-family="sans-serif" font-size="10" lengthAdjust="spacing" textLength="129.8877" x="59.3574" y="696.3057">example_attacks: List[str]</text><text fill="#000000" font-family="sans-serif" font-size="10" lengthAdjust="spacing" textLength="6.3623" x="53" y="707.9463">}</text><rect fill="#E7F5FF" height="43.2813" rx="12.5" ry="12.5" style="stroke:#1E40AF;stroke-width:0.5;" width="136.9727" x="64.709" y="755.3047"/><text fill="#000000" font-family="sans-serif" font-size="10" lengthAdjust="spacing" textLength="116.9727" x="74.709" y="774.5869">Format OWASP context</text><text fill="#000000" font-family="sans-serif" font-size="10" lengthAdjust="spacing" textLength="106.9727" x="74.709" y="786.2275">into markdown string</text><rect fill="none" height="552.8281" style="stroke:#000000;stroke-width:1.5;" width="229.0186" x="261.3906" y="279.4375"/><path d="M384.6963,279.4375 L384.6963,288.7344 L374.6963,298.7344 L261.3906,298.7344 " fill="none" style="stroke:#000000;stroke-width:1.5;"/><text fill="#000000" font-family="sans-serif" font-size="14" lengthAdjust="spacing" textLength="113.3057" x="264.3906" y="293.4326">CVE MCP Server</text><rect fill="#E7F5FF" height="43.2813" rx="12.5" ry="12.5" style="stroke:#1E40AF;stroke-width:0.5;" width="132.1338" x="309.833" y="315.7344"/><text fill="#000000" font-family="sans-serif" font-size="10" lengthAdjust="spacing" textLength="112.1338" x="319.833" y="335.0166">Initialize ClientSession</text><text fill="#000000" font-family="sans-serif" font-size="10" lengthAdjust="spacing" textLength="71.9043" x="319.833" y="346.6572">for CVE server</text><rect fill="#E7F5FF" height="54.9219" rx="12.5" ry="12.5" style="stroke:#1E40AF;stroke-width:0.5;" width="141.1621" x="305.3188" y="394.0156"/><text fill="#000000" font-family="sans-serif" font-size="10" lengthAdjust="spacing" textLength="60.5176" x="315.3188" y="413.2979">Build query:</text><text fill="#000000" font-family="sans-serif" font-size="10" lengthAdjust="spacing" textLength="121.1621" x="315.3188" y="424.9385">&#8226; cwe_id: finding.cwe_id</text><text fill="#000000" font-family="sans-serif" font-size="10" lengthAdjust="spacing" textLength="82.4219" x="315.3188" y="436.5791">&#8226; search_limit: 5</text><rect fill="#E7F5FF" height="54.9219" rx="12.5" ry="12.5" style="stroke:#1E40AF;stroke-width:0.5;" width="157.8906" x="296.9546" y="483.9375"/><text fill="#000000" font-family="sans-serif" font-size="10" lengthAdjust="spacing" textLength="94.7852" x="306.9546" y="503.2197">Send MCP request:</text><text fill="#000000" font-family="sans-serif" font-size="10" lengthAdjust="spacing" textLength="109.7021" x="306.9546" y="514.8604">call_tool('search_cve',</text><text fill="#000000" font-family="sans-serif" font-size="10" lengthAdjust="spacing" textLength="137.8906" x="306.9546" y="526.501">params={cwe_id, limit: 5})</text><rect fill="#E7F5FF" height="101.4844" rx="12.5" ry="12.5" style="stroke:#1E40AF;stroke-width:0.5;" width="209.0186" x="271.3906" y="573.8594"/><text fill="#000000" font-family="sans-serif" font-size="10" lengthAdjust="spacing" textLength="91.7871" x="281.3906" y="593.1416">Receive response:</text><text fill="#000000" font-family="sans-serif" font-size="10" lengthAdjust="spacing" textLength="6.3623" x="281.3906" y="604.7822">{</text><text fill="#000000" font-family="sans-serif" font-size="10" lengthAdjust="spacing" textLength="33.2275" x="287.748" y="616.4229">cves: [</text><text fill="#000000" font-family="sans-serif" font-size="10" lengthAdjust="spacing" textLength="136.6406" x="294.1055" y="628.0635">{cve_id, score, description,</text><text fill="#000000" font-family="sans-serif" font-size="10" lengthAdjust="spacing" textLength="173.125" x="297.2842" y="639.7041">affected_versions, exploit_details}</text><text fill="#000000" font-family="sans-serif" font-size="10" lengthAdjust="spacing" textLength="3.9014" x="287.748" y="651.3447">]</text><text fill="#000000" font-family="sans-serif" font-size="10" lengthAdjust="spacing" textLength="6.3623" x="281.3906" y="662.9854">}</text><rect fill="#E7F5FF" height="31.6406" rx="12.5" ry="12.5" style="stroke:#1E40AF;stroke-width:0.5;" width="159.8486" x="295.9756" y="710.3438"/><text fill="#000000" font-family="sans-serif" font-size="10" lengthAdjust="spacing" textLength="139.8486" x="305.9756" y="729.626">Extract top 3 CVE examples</text><rect fill="#E7F5FF" height="43.2813" rx="12.5" ry="12.5" style="stroke:#1E40AF;stroke-width:0.5;" width="137.1094" x="307.3452" y="776.9844"/><text fill="#000000" font-family="sans-serif" font-size="10" lengthAdjust="spacing" textLength="100.1367" x="317.3452" y="796.2666">Format CVE context</text><text fill="#000000" font-family="sans-serif" font-size="10" lengthAdjust="spacing" textLength="117.1094" x="317.3452" y="807.9072">with real-world exploits</text><rect fill="none" height="505.8281" style="stroke:#000000;stroke-width:1.5;" width="271.1357" x="518.4092" y="306.9375"/><path d="M784.5449,306.9375 L784.5449,316.2344 L774.5449,326.2344 L518.4092,326.2344 " fill="none" style="stroke:#000000;stroke-width:1.5;"/><text fill="#000000" font-family="sans-serif" font-size="14" lengthAdjust="spacing" textLength="256.1357" x="521.4092" y="320.9326">Custom MCP Server (CodeGuard KB)</text><rect fill="#E7F5FF" height="43.2813" rx="12.5" ry="12.5" style="stroke:#1E40AF;stroke-width:0.5;" width="132.1338" x="590.4102" y="343.2344"/><text fill="#000000" font-family="sans-serif" font-size="10" lengthAdjust="spacing" textLength="112.1338" x="600.4102" y="362.5166">Initialize ClientSession</text><text fill="#000000" font-family="sans-serif" font-size="10" lengthAdjust="spacing" textLength="70.3516" x="600.4102" y="374.1572">for custom KB</text><rect fill="#E7F5FF" height="54.9219" rx="12.5" ry="12.5" style="stroke:#1E40AF;stroke-width:0.5;" width="185.625" x="563.6646" y="421.5156"/><text fill="#000000" font-family="sans-serif" font-size="10" lengthAdjust="spacing" textLength="60.5176" x="573.6646" y="440.7979">Build query:</text><text fill="#000000" font-family="sans-serif" font-size="10" lengthAdjust="spacing" textLength="159.3066" x="573.6646" y="452.4385">&#8226; issue_type: finding.issue_type</text><text fill="#000000" font-family="sans-serif" font-size="10" lengthAdjust="spacing" textLength="165.625" x="573.6646" y="464.0791">&#8226; repo_conventions: team_config</text><rect fill="#E7F5FF" height="54.9219" rx="12.5" ry="12.5" style="stroke:#1E40AF;stroke-width:0.5;" width="166.3232" x="573.3154" y="511.4375"/><text fill="#000000" font-family="sans-serif" font-size="10" lengthAdjust="spacing" textLength="94.7852" x="583.3154" y="530.7197">Send MCP request:</text><text fill="#000000" font-family="sans-serif" font-size="10" lengthAdjust="spacing" textLength="146.3232" x="583.3154" y="542.3604">call_tool('lookup_fix_pattern',</text><text fill="#000000" font-family="sans-serif" font-size="10" lengthAdjust="spacing" textLength="115.6982" x="583.3154" y="554.001">params={issue_type})</text><rect fill="#E7F5FF" height="113.125" rx="12.5" ry="12.5" style="stroke:#1E40AF;stroke-width:0.5;" width="167.4756" x="572.7393" y="601.3594"/><text fill="#000000" font-family="sans-serif" font-size="10" lengthAdjust="spacing" textLength="91.7871" x="582.7393" y="620.6416">Receive response:</text><text fill="#000000" font-family="sans-serif" font-size="10" lengthAdjust="spacing" textLength="6.3623" x="582.7393" y="632.2822">{</text><text fill="#000000" font-family="sans-serif" font-size="10" lengthAdjust="spacing" textLength="114.5752" x="589.0967" y="643.9229">preferred_solution: str,</text><text fill="#000000" font-family="sans-serif" font-size="10" lengthAdjust="spacing" textLength="141.1182" x="589.0967" y="655.5635">approved_libraries: List[str],</text><text fill="#000000" font-family="sans-serif" font-size="10" lengthAdjust="spacing" textLength="109.4287" x="589.0967" y="667.2041">team_convention: str,</text><text fill="#000000" font-family="sans-serif" font-size="10" lengthAdjust="spacing" textLength="83.4033" x="589.0967" y="678.8447">example_fix: str,</text><text fill="#000000" font-family="sans-serif" font-size="10" lengthAdjust="spacing" textLength="139.9316" x="589.0967" y="690.4854">learning_resources: List[url]</text><text fill="#000000" font-family="sans-serif" font-size="10" lengthAdjust="spacing" textLength="6.3623" x="582.7393" y="702.126">}</text><rect fill="#E7F5FF" height="43.2813" rx="12.5" ry="12.5" style="stroke:#1E40AF;stroke-width:0.5;" width="153.418" x="579.7681" y="749.4844"/><text fill="#000000" font-family="sans-serif" font-size="10" lengthAdjust="spacing" textLength="133.418" x="589.7681" y="768.7666">Format custom KB context</text><text fill="#000000" font-family="sans-serif" font-size="10" lengthAdjust="spacing" textLength="113.2617" x="589.7681" y="780.4072">with team preferences</text><rect fill="#555555" height="6" rx="2.5" ry="2.5" style="stroke:#555555;stroke-width:1;" width="780.5449" x="21" y="852.2656"/><rect fill="#E7F5FF" height="78.2031" rx="12.5" ry="12.5" style="stroke:#1E40AF;stroke-width:0.5;" width="198.7744" x="314.3853" y="890.2656"/><text fill="#000000" font-family="sans-serif" font-size="10" lengthAdjust="spacing" textLength="138.1689" x="324.3853" y="909.5479">Combine all MCP responses</text><text fill="#000000" font-family="sans-serif" font-size="10" lengthAdjust="spacing" textLength="178.7744" x="324.3853" y="921.1885">into single_enriched_context string:</text><text fill="#000000" font-family="sans-serif" font-size="10" lengthAdjust="spacing" textLength="139.7412" x="324.3853" y="932.8291">contexts = [owasp_context,</text><text fill="#000000" font-family="sans-serif" font-size="10" lengthAdjust="spacing" textLength="63.6133" x="362.5298" y="944.4697">cve_context,</text><text fill="#000000" font-family="sans-serif" font-size="10" lengthAdjust="spacing" textLength="83.5938" x="362.5298" y="956.1104">custom_context]</text><rect fill="#E7F5FF" height="241.1719" rx="12.5" ry="12.5" style="stroke:#1E40AF;stroke-width:0.5;" width="210.8154" x="308.3647" y="988.4688"/><text fill="#000000" font-family="sans-serif" font-size="10" lengthAdjust="spacing" textLength="144.9023" x="318.3647" y="1007.751">Build comprehensive prompt</text><text fill="#000000" font-family="sans-serif" font-size="10" lengthAdjust="spacing" textLength="112.5244" x="318.3647" y="1019.3916">with enriched context:</text><text fill="#000000" font-family="sans-serif" font-size="10" lengthAdjust="spacing" textLength="153.4131" x="318.3647" y="1031.0322">\"\"\"You are a security expert.</text><text fill="#000000" font-family="sans-serif" font-size="10" lengthAdjust="spacing" textLength="3.1787" x="318.3647" y="1042.6729">&#160;</text><text fill="#000000" font-family="sans-serif" font-size="10" lengthAdjust="spacing" textLength="135.5078" x="318.3647" y="1054.3135">Vulnerability: {issue_type}</text><text fill="#000000" font-family="sans-serif" font-size="10" lengthAdjust="spacing" textLength="3.1787" x="318.3647" y="1065.9541">&#160;</text><text fill="#000000" font-family="sans-serif" font-size="10" lengthAdjust="spacing" textLength="28.9697" x="318.3647" y="1077.5947">Code:</text><text fill="#000000" font-family="sans-serif" font-size="10" lengthAdjust="spacing" textLength="78.9355" x="318.3647" y="1089.2354">{code_snippet}</text><text fill="#000000" font-family="sans-serif" font-size="10" lengthAdjust="spacing" textLength="3.1787" x="318.3647" y="1100.876">&#160;</text><text fill="#000000" font-family="sans-serif" font-size="10" lengthAdjust="spacing" textLength="109.5459" x="318.3647" y="1112.5166">Context from OWASP:</text><text fill="#000000" font-family="sans-serif" font-size="10" lengthAdjust="spacing" textLength="87.5732" x="318.3647" y="1124.1572">{owasp_context}</text><text fill="#000000" font-family="sans-serif" font-size="10" lengthAdjust="spacing" textLength="3.1787" x="318.3647" y="1135.7979">&#160;</text><text fill="#000000" font-family="sans-serif" font-size="10" lengthAdjust="spacing" textLength="108.125" x="318.3647" y="1147.4385">Real-world examples:</text><text fill="#000000" font-family="sans-serif" font-size="10" lengthAdjust="spacing" textLength="73.1592" x="318.3647" y="1159.0791">{cve_context}</text><text fill="#000000" font-family="sans-serif" font-size="10" lengthAdjust="spacing" textLength="3.1787" x="318.3647" y="1170.7197">&#160;</text><text fill="#000000" font-family="sans-serif" font-size="10" lengthAdjust="spacing" textLength="90.1953" x="318.3647" y="1182.3604">Team convention:</text><text fill="#000000" font-family="sans-serif" font-size="10" lengthAdjust="spacing" textLength="92.417" x="318.3647" y="1194.001">{custom_context}</text><text fill="#000000" font-family="sans-serif" font-size="10" lengthAdjust="spacing" textLength="3.1787" x="318.3647" y="1205.6416">&#160;</text><text fill="#000000" font-family="sans-serif" font-size="10" lengthAdjust="spacing" textLength="190.8154" x="318.3647" y="1217.2822">Provide pedagogical explanation.\"\"\"</text><polygon fill="#FEF3C7" points="343.2524,1249.6406,484.2925,1249.6406,496.2925,1261.6406,484.2925,1273.6406,343.2524,1273.6406,331.2524,1261.6406,343.2524,1249.6406" style="stroke:#1E40AF;stroke-width:0.5;"/><text fill="#000000" font-family="sans-serif" font-size="10" lengthAdjust="spacing" textLength="141.04" x="343.2524" y="1265.1025">Prompt size &lt; 8192 tokens?</text><text fill="#000000" font-family="sans-serif" font-size="11" lengthAdjust="spacing" textLength="19.0083" x="312.2441" y="1259.0464">yes</text><text fill="#000000" font-family="sans-serif" font-size="11" lengthAdjust="spacing" textLength="76.4092" x="496.2925" y="1259.0464">no - Too large</text><rect fill="#E7F5FF" height="31.6406" rx="12.5" ry="12.5" style="stroke:#1E40AF;stroke-width:0.5;" width="164.8389" x="230.0859" y="1283.6406"/><text fill="#000000" font-family="sans-serif" font-size="10" lengthAdjust="spacing" textLength="144.8389" x="240.0859" y="1302.9229">Prompt is within Gemini limit</text><rect fill="#E7F5FF" height="43.2813" rx="12.5" ry="12.5" style="stroke:#1E40AF;stroke-width:0.5;" width="200.2295" x="414.9248" y="1283.6406"/><text fill="#000000" font-family="sans-serif" font-size="10" lengthAdjust="spacing" textLength="165.5908" x="424.9248" y="1302.9229">Truncate least important context</text><text fill="#000000" font-family="sans-serif" font-size="10" lengthAdjust="spacing" textLength="180.2295" x="424.9248" y="1314.5635">(prioritize OWASP &gt; CVE &gt; Custom)</text><polygon fill="#FEF3C7" points="413.7725,1332.9219,425.7725,1344.9219,413.7725,1356.9219,401.7725,1344.9219,413.7725,1332.9219" style="stroke:#1E40AF;stroke-width:0.5;"/><rect fill="#E7F5FF" height="66.5625" rx="12.5" ry="12.5" style="stroke:#1E40AF;stroke-width:0.5;" width="206.2598" x="310.6426" y="1376.9219"/><text fill="#000000" font-family="sans-serif" font-size="10" lengthAdjust="spacing" textLength="186.2598" x="320.6426" y="1396.2041">Log MCP query performance metrics:</text><text fill="#000000" font-family="sans-serif" font-size="10" lengthAdjust="spacing" textLength="74.043" x="320.6426" y="1407.8447">&#8226; Total latency</text><text fill="#000000" font-family="sans-serif" font-size="10" lengthAdjust="spacing" textLength="100.5469" x="320.6426" y="1419.4854">&#8226; Per-server latency</text><text fill="#000000" font-family="sans-serif" font-size="10" lengthAdjust="spacing" textLength="79.8828" x="320.6426" y="1431.126">&#8226; Cache hit rate</text><rect fill="#E7F5FF" height="43.2813" rx="12.5" ry="12.5" style="stroke:#1E40AF;stroke-width:0.5;" width="143.5693" x="341.9878" y="1463.4844"/><text fill="#000000" font-family="sans-serif" font-size="10" lengthAdjust="spacing" textLength="123.5693" x="351.9878" y="1482.7666">Return enriched_context</text><text fill="#000000" font-family="sans-serif" font-size="10" lengthAdjust="spacing" textLength="106.8359" x="351.9878" y="1494.4072">to AIExplainerService</text><path d="M444.7725,1516.7656 L444.7725,1744.7578 L424.7725,1748.7578 L444.7725,1752.7578 L444.7725,1980.75 A0,0 0 0 0 444.7725,1980.75 L726.5342,1980.75 A0,0 0 0 0 726.5342,1980.75 L726.5342,1526.7656 L716.5342,1516.7656 L444.7725,1516.7656 A0,0 0 0 0 444.7725,1516.7656 " fill="#FEFFDD" style="stroke:#181818;stroke-width:0.5;"/><path d="M716.5342,1516.7656 L716.5342,1526.7656 L726.5342,1526.7656 L716.5342,1516.7656 " fill="#FEFFDD" style="stroke:#181818;stroke-width:0.5;"/><text fill="#000000" font-family="sans-serif" font-size="13" font-weight="bold" lengthAdjust="spacing" textLength="185.8721" x="450.7725" y="1533.8325">MCP Server Architecture:</text><text fill="#000000" font-family="sans-serif" font-size="13" lengthAdjust="spacing" textLength="260.7617" x="450.7725" y="1548.9653">&#8226; OWASP MCP: npm package, Port 3001</text><text fill="#000000" font-family="sans-serif" font-size="13" lengthAdjust="spacing" textLength="238.875" x="450.7725" y="1564.0981">&#8226; CVE MCP: npm package, Port 3002</text><text fill="#000000" font-family="sans-serif" font-size="13" lengthAdjust="spacing" textLength="219.1592" x="450.7725" y="1579.231">&#8226; Custom MCP: Python, Port 3003</text><text fill="#000000" font-family="sans-serif" font-size="13" lengthAdjust="spacing" textLength="4.1323" x="450.7725" y="1594.3638">&#160;</text><text fill="#000000" font-family="sans-serif" font-size="13" font-weight="bold" lengthAdjust="spacing" textLength="184.6978" x="450.7725" y="1609.4966">Communication Protocol:</text><text fill="#000000" font-family="sans-serif" font-size="13" lengthAdjust="spacing" textLength="209.1172" x="450.7725" y="1624.6294">&#8226; Model Context Protocol (stdio)</text><text fill="#000000" font-family="sans-serif" font-size="13" lengthAdjust="spacing" textLength="99.29" x="450.7725" y="1639.7622">&#8226; JSON-RPC 2.0</text><text fill="#000000" font-family="sans-serif" font-size="13" lengthAdjust="spacing" textLength="178.0264" x="450.7725" y="1654.895">&#8226; Async/concurrent queries</text><text fill="#000000" font-family="sans-serif" font-size="13" lengthAdjust="spacing" textLength="4.1323" x="450.7725" y="1670.0278">&#160;</text><text fill="#000000" font-family="sans-serif" font-size="13" font-weight="bold" lengthAdjust="spacing" textLength="99.0488" x="450.7725" y="1685.1606">Performance:</text><text fill="#000000" font-family="sans-serif" font-size="13" lengthAdjust="spacing" textLength="194.3652" x="450.7725" y="1700.2935">&#8226; Per-server latency: &lt;500ms</text><text fill="#000000" font-family="sans-serif" font-size="13" lengthAdjust="spacing" textLength="203.436" x="450.7725" y="1715.4263">&#8226; Total enrichment time: &lt;1.5s</text><text fill="#000000" font-family="sans-serif" font-size="13" lengthAdjust="spacing" textLength="215.8013" x="450.7725" y="1730.5591">&#8226; Parallel execution key to speed</text><text fill="#000000" font-family="sans-serif" font-size="13" lengthAdjust="spacing" textLength="4.1323" x="450.7725" y="1745.6919">&#160;</text><text fill="#000000" font-family="sans-serif" font-size="13" font-weight="bold" lengthAdjust="spacing" textLength="112.4551" x="450.7725" y="1760.8247">Error Handling:</text><text fill="#000000" font-family="sans-serif" font-size="13" lengthAdjust="spacing" textLength="230.1533" x="450.7725" y="1775.9575">&#8226; If OWASP fails: continue with CVE</text><text fill="#000000" font-family="sans-serif" font-size="13" lengthAdjust="spacing" textLength="231.8862" x="450.7725" y="1791.0903">&#8226; If CVE fails: continue with Custom</text><text fill="#000000" font-family="sans-serif" font-size="13" lengthAdjust="spacing" textLength="149.8237" x="450.7725" y="1806.2231">&#8226; Graceful degradation</text><text fill="#000000" font-family="sans-serif" font-size="13" lengthAdjust="spacing" textLength="141.7749" x="450.7725" y="1821.356">&#8226; Never block on MCP</text><text fill="#000000" font-family="sans-serif" font-size="13" lengthAdjust="spacing" textLength="4.1323" x="450.7725" y="1836.4888">&#160;</text><text fill="#000000" font-family="sans-serif" font-size="13" font-weight="bold" lengthAdjust="spacing" textLength="131.5869" x="450.7725" y="1851.6216">Caching Strategy:</text><text fill="#000000" font-family="sans-serif" font-size="13" lengthAdjust="spacing" textLength="227.062" x="450.7725" y="1866.7544">&#8226; Cache MCP responses by CWE ID</text><text fill="#000000" font-family="sans-serif" font-size="13" lengthAdjust="spacing" textLength="86.5249" x="450.7725" y="1881.8872">&#8226; TTL: 7 days</text><text fill="#000000" font-family="sans-serif" font-size="13" lengthAdjust="spacing" textLength="191.3501" x="450.7725" y="1897.02">&#8226; Reduces redundant queries</text><text fill="#000000" font-family="sans-serif" font-size="13" lengthAdjust="spacing" textLength="4.1323" x="450.7725" y="1912.1528">&#160;</text><text fill="#000000" font-family="sans-serif" font-size="13" font-weight="bold" lengthAdjust="spacing" textLength="178.5659" x="450.7725" y="1927.2856">Context Quality Metrics:</text><text fill="#000000" font-family="sans-serif" font-size="13" lengthAdjust="spacing" textLength="200.186" x="450.7725" y="1942.4185">&#8226; OWASP completeness: 100%</text><text fill="#000000" font-family="sans-serif" font-size="13" lengthAdjust="spacing" textLength="219.3813" x="450.7725" y="1957.5513">&#8226; CVE relevance: ranked by score</text><text fill="#000000" font-family="sans-serif" font-size="13" lengthAdjust="spacing" textLength="237.1104" x="450.7725" y="1972.6841">&#8226; Custom relevance: team-validated</text><ellipse cx="413.7725" cy="1748.7578" fill="none" rx="11" ry="11" style="stroke:#222222;stroke-width:1;"/><ellipse cx="413.7725" cy="1748.7578" fill="#222222" rx="6" ry="6" style="stroke:#222222;stroke-width:1;"/><line style="stroke:#181818;stroke-width:1;" x1="413.7725" x2="413.7725" y1="67.2969" y2="87.2969"/><polygon fill="#181818" points="409.7725,77.2969,413.7725,87.2969,417.7725,77.2969,413.7725,81.2969" style="stroke:#181818;stroke-width:1;"/><line style="stroke:#181818;stroke-width:1;" x1="413.7725" x2="413.7725" y1="118.9375" y2="138.9375"/><polygon fill="#181818" points="409.7725,128.9375,413.7725,138.9375,417.7725,128.9375,413.7725,132.9375" style="stroke:#181818;stroke-width:1;"/><line style="stroke:#181818;stroke-width:1;" x1="133.1953" x2="133.1953" y1="380.6953" y2="415.6953"/><polygon fill="#181818" points="129.1953,405.6953,133.1953,415.6953,137.1953,405.6953,133.1953,409.6953" style="stroke:#181818;stroke-width:1;"/><line style="stroke:#181818;stroke-width:1;" x1="133.1953" x2="133.1953" y1="470.6172" y2="505.6172"/><polygon fill="#181818" points="129.1953,495.6172,133.1953,505.6172,137.1953,495.6172,133.1953,499.6172" style="stroke:#181818;stroke-width:1;"/><line style="stroke:#181818;stroke-width:1;" x1="133.1953" x2="133.1953" y1="560.5391" y2="595.5391"/><polygon fill="#181818" points="129.1953,585.5391,133.1953,595.5391,137.1953,585.5391,133.1953,589.5391" style="stroke:#181818;stroke-width:1;"/><line style="stroke:#181818;stroke-width:1;" x1="133.1953" x2="133.1953" y1="720.3047" y2="755.3047"/><polygon fill="#181818" points="129.1953,745.3047,133.1953,755.3047,137.1953,745.3047,133.1953,749.3047" style="stroke:#181818;stroke-width:1;"/><line style="stroke:#181818;stroke-width:1;" x1="375.8999" x2="375.8999" y1="359.0156" y2="394.0156"/><polygon fill="#181818" points="371.8999,384.0156,375.8999,394.0156,379.8999,384.0156,375.8999,388.0156" style="stroke:#181818;stroke-width:1;"/><line style="stroke:#181818;stroke-width:1;" x1="375.8999" x2="375.8999" y1="448.9375" y2="483.9375"/><polygon fill="#181818" points="371.8999,473.9375,375.8999,483.9375,379.8999,473.9375,375.8999,477.9375" style="stroke:#181818;stroke-width:1;"/><line style="stroke:#181818;stroke-width:1;" x1="375.8999" x2="375.8999" y1="538.8594" y2="573.8594"/><polygon fill="#181818" points="371.8999,563.8594,375.8999,573.8594,379.8999,563.8594,375.8999,567.8594" style="stroke:#181818;stroke-width:1;"/><line style="stroke:#181818;stroke-width:1;" x1="375.8999" x2="375.8999" y1="675.3438" y2="710.3438"/><polygon fill="#181818" points="371.8999,700.3438,375.8999,710.3438,379.8999,700.3438,375.8999,704.3438" style="stroke:#181818;stroke-width:1;"/><line style="stroke:#181818;stroke-width:1;" x1="375.8999" x2="375.8999" y1="741.9844" y2="776.9844"/><polygon fill="#181818" points="371.8999,766.9844,375.8999,776.9844,379.8999,766.9844,375.8999,770.9844" style="stroke:#181818;stroke-width:1;"/><line style="stroke:#181818;stroke-width:1;" x1="656.4771" x2="656.4771" y1="386.5156" y2="421.5156"/><polygon fill="#181818" points="652.4771,411.5156,656.4771,421.5156,660.4771,411.5156,656.4771,415.5156" style="stroke:#181818;stroke-width:1;"/><line style="stroke:#181818;stroke-width:1;" x1="656.4771" x2="656.4771" y1="476.4375" y2="511.4375"/><polygon fill="#181818" points="652.4771,501.4375,656.4771,511.4375,660.4771,501.4375,656.4771,505.4375" style="stroke:#181818;stroke-width:1;"/><line style="stroke:#181818;stroke-width:1;" x1="656.4771" x2="656.4771" y1="566.3594" y2="601.3594"/><polygon fill="#181818" points="652.4771,591.3594,656.4771,601.3594,660.4771,591.3594,656.4771,595.3594" style="stroke:#181818;stroke-width:1;"/><line style="stroke:#181818;stroke-width:1;" x1="656.4771" x2="656.4771" y1="714.4844" y2="749.4844"/><polygon fill="#181818" points="652.4771,739.4844,656.4771,749.4844,660.4771,739.4844,656.4771,743.4844" style="stroke:#181818;stroke-width:1;"/><line style="stroke:#181818;stroke-width:1;" x1="133.1953" x2="133.1953" y1="269.4375" y2="337.4141"/><polygon fill="#181818" points="129.1953,327.4141,133.1953,337.4141,137.1953,327.4141,133.1953,331.4141" style="stroke:#181818;stroke-width:1;"/><line style="stroke:#181818;stroke-width:1;" x1="375.8999" x2="375.8999" y1="269.4375" y2="315.7344"/><polygon fill="#181818" points="371.8999,305.7344,375.8999,315.7344,379.8999,305.7344,375.8999,309.7344" style="stroke:#181818;stroke-width:1;"/><line style="stroke:#181818;stroke-width:1;" x1="656.4771" x2="656.4771" y1="269.4375" y2="343.2344"/><polygon fill="#181818" points="652.4771,333.2344,656.4771,343.2344,660.4771,333.2344,656.4771,337.2344" style="stroke:#181818;stroke-width:1;"/><line style="stroke:#181818;stroke-width:1;" x1="133.1953" x2="133.1953" y1="798.5859" y2="852.2656"/><polygon fill="#181818" points="129.1953,842.2656,133.1953,852.2656,137.1953,842.2656,133.1953,846.2656" style="stroke:#181818;stroke-width:1;"/><line style="stroke:#181818;stroke-width:1;" x1="375.8999" x2="375.8999" y1="820.2656" y2="852.2656"/><polygon fill="#181818" points="371.8999,842.2656,375.8999,852.2656,379.8999,842.2656,375.8999,846.2656" style="stroke:#181818;stroke-width:1;"/><line style="stroke:#181818;stroke-width:1;" x1="656.4771" x2="656.4771" y1="792.7656" y2="852.2656"/><polygon fill="#181818" points="652.4771,842.2656,656.4771,852.2656,660.4771,842.2656,656.4771,846.2656" style="stroke:#181818;stroke-width:1;"/><line style="stroke:#181818;stroke-width:1;" x1="413.7725" x2="413.7725" y1="217.1406" y2="263.4375"/><polygon fill="#181818" points="409.7725,253.4375,413.7725,263.4375,417.7725,253.4375,413.7725,257.4375" style="stroke:#181818;stroke-width:1;"/><line style="stroke:#181818;stroke-width:1;" x1="413.7725" x2="413.7725" y1="858.2656" y2="890.2656"/><polygon fill="#181818" points="409.7725,880.2656,413.7725,890.2656,417.7725,880.2656,413.7725,884.2656" style="stroke:#181818;stroke-width:1;"/><line style="stroke:#181818;stroke-width:1;" x1="413.7725" x2="413.7725" y1="968.4688" y2="988.4688"/><polygon fill="#181818" points="409.7725,978.4688,413.7725,988.4688,417.7725,978.4688,413.7725,982.4688" style="stroke:#181818;stroke-width:1;"/><line style="stroke:#181818;stroke-width:1;" x1="331.2524" x2="312.5054" y1="1261.6406" y2="1261.6406"/><line style="stroke:#181818;stroke-width:1;" x1="312.5054" x2="312.5054" y1="1261.6406" y2="1283.6406"/><polygon fill="#181818" points="308.5054,1273.6406,312.5054,1283.6406,316.5054,1273.6406,312.5054,1277.6406" style="stroke:#181818;stroke-width:1;"/><line style="stroke:#181818;stroke-width:1;" x1="496.2925" x2="515.0396" y1="1261.6406" y2="1261.6406"/><line style="stroke:#181818;stroke-width:1;" x1="515.0396" x2="515.0396" y1="1261.6406" y2="1283.6406"/><polygon fill="#181818" points="511.0396,1273.6406,515.0396,1283.6406,519.0396,1273.6406,515.0396,1277.6406" style="stroke:#181818;stroke-width:1;"/><line style="stroke:#181818;stroke-width:1;" x1="312.5054" x2="312.5054" y1="1315.2813" y2="1344.9219"/><line style="stroke:#181818;stroke-width:1;" x1="312.5054" x2="401.7725" y1="1344.9219" y2="1344.9219"/><polygon fill="#181818" points="391.7725,1340.9219,401.7725,1344.9219,391.7725,1348.9219,395.7725,1344.9219" style="stroke:#181818;stroke-width:1;"/><line style="stroke:#181818;stroke-width:1;" x1="515.0396" x2="515.0396" y1="1326.9219" y2="1344.9219"/><line style="stroke:#181818;stroke-width:1;" x1="515.0396" x2="425.7725" y1="1344.9219" y2="1344.9219"/><polygon fill="#181818" points="435.7725,1340.9219,425.7725,1344.9219,435.7725,1348.9219,431.7725,1344.9219" style="stroke:#181818;stroke-width:1;"/><line style="stroke:#181818;stroke-width:1;" x1="413.7725" x2="413.7725" y1="1229.6406" y2="1249.6406"/><polygon fill="#181818" points="409.7725,1239.6406,413.7725,1249.6406,417.7725,1239.6406,413.7725,1243.6406" style="stroke:#181818;stroke-width:1;"/><line style="stroke:#181818;stroke-width:1;" x1="413.7725" x2="413.7725" y1="1356.9219" y2="1376.9219"/><polygon fill="#181818" points="409.7725,1366.9219,413.7725,1376.9219,417.7725,1366.9219,413.7725,1370.9219" style="stroke:#181818;stroke-width:1;"/><line style="stroke:#181818;stroke-width:1;" x1="413.7725" x2="413.7725" y1="1443.4844" y2="1463.4844"/><polygon fill="#181818" points="409.7725,1453.4844,413.7725,1463.4844,417.7725,1453.4844,413.7725,1457.4844" style="stroke:#181818;stroke-width:1;"/><line style="stroke:#181818;stroke-width:1;" x1="413.7725" x2="413.7725" y1="1506.7656" y2="1737.7578"/><polygon fill="#181818" points="409.7725,1727.7578,413.7725,1737.7578,417.7725,1727.7578,413.7725,1731.7578" style="stroke:#181818;stroke-width:1;"/><!--SRC=[hLV_Rjis4FxVJt7eCDGEainf5dHJsmsfwtHPVxb9q6Ae2uEHpWvXYLH9oeaN1DYpxD7s9Fj8KRRZk5jNp05YYxmZxxxxxeViLAfI657GkKYd4wChbVLqhWrzSnG-BRkG4AcJC-dcJzSb-m-F3ZPBQfEnYL9x_U-xXvkaZhHof_9tfhtkXjrdKXHQPNSkFUeVxVSUjbfEkfpfC4eJn2TUVOTUzGRKmz5yvQYlZ4ml2bQEsgzqnlbYPs2qqwdEEwsMTSAuLYk1OjojrTZiSlWnIklbzbYgJAf9vn6a-rVEm5QAQvIn4pAtoL3zzSUVr7lVf-DdzMzfRSKZDo-vVhOyOmERwwSKPesiacN93kS217WcjQ9xtf5JDX2cjnKqs59x08podFFEFRfk4OsrcUABQ4NjpVl3qm4jbMj9_qcE5MH4xZ7lvHAedBArK1eg74IreWrAZw9Ae_cqadb6ds36F7gONl98PadZ_sxzNEy9vn2sqOnJfqsovkBjWqzPPS5OmpZTEfoUmiEHqpflty-rdbRb26VVtnxM1B5FhkkhRZhhPvrmodB6ECgMMbd6MTT3HS5K9GfEo3gpxLSojgcHfGTikTZ4PMI4WqVBZGAeJOGN7c59E9uW5WczbDPzmCB78AGlXOMbVbS3f8KoNucYp7bKOxAgDbGtwnuSQLC85oCHMJTKKZbDXJ3JJ5ygVp2igpLl8WT8J8HKwqpelUj_3G-ysl_10il287bo2VmIElXlaO_AwMn3vBUfEVC_S63cG_R1_oIwnbCunwRQyFOg7RPh2HBZCTZB6KXiF3Hs6v4iSotTA6RwZPVS5CIcCZXTqdv0CtB0VYRSNcGHx4lfBc2zo7SkjG7QyLRxHG6lhDF5IioftKFkFQ-4oUZ5qyuNKo2j3thnzDyPiAnkInQiLpp3fVP5T8PxF9O9EHQ5NndBoLTLXB6y6fL8AJPgbH_BYx-S6QNXCHk3K5kTLxTBWYXBesVOokMv4MP3sZUEHDVkvZqiNIxcO3NIUJA24ReowUAyokJ_K0yMuLYZYRyysiygvHMEU0n3SxX1g-hfubmg9g0OWQqHiB6qM5W4I-jc1sVZ9R7IUFph1KjFw4EiS_LAaotnuzFgCpl1WsRpes-WDPLINS212rRMnmPe5sNZNMDFupGC6TxpVx_fYeI1FoWnQULBjiyIDcuN4kfTbIisubpcs4XebHD-soU43_rgKueRjTTZs51NO2zsozqWTxAQctLUX_EMlWUnCn-R5M9uaLiW12cC8JEPmN7En4HF99WUCbweq6zsQuS1bnoZ-GTq42uaxMFwOU_71wWnKq3tSuSS8AJsd6q7qK-YfBJaaPIAddCXbQphvgCMvvQfhJIcfJEjAHTcma7lp5JAjp1FL0lzejJ62KnF2zwrIoCr8FSsr6tgfr2_y3zuXxG3z-GO0Nwf9u5keLh0GpFsR0PFgM0mAsrcfJFju7MEQrKQXw81cvsw1TrUxmaGWYwa8z-6FOjEs5L6qJftXvxNXyTz3oMeRtmvbAdNW95bgwKqd3HoSk7WzjRMIiKyHDkH3hM_CfniRM7RNxmOgX9I9N8EhLnCq3a6m8VskzszA1TRxcUa7ZHIYpgTq63kBj1s5ZBxhP3-Mrl8sg9IO4IexSsykZHfypnBRUiogJjHwDVJDwztJWOzUh3RZKk7TgxIxu0JKiVuoVXJFLmszmwMWLfUTZSW2Jq-w7OB6mNg8F9otdRI3roFztOF6f5cTWN1aRR1godFoHUWaZbhxkyRWmxqYr1PxglFmeJZSOp2ECpPWP9ILHmexe5VolaeR9OAm4V1v-ZIFAvoj7-yEcG1vxZrse-2T9xhT4em4u5QH0KCzEF-QJq8pfVsrToyLL_fV1xV11gKpbucz90oCMz0EU6iGkM6JePt774t74s0trR25pHw5NDdZPg-ZkQCoA2D9tYZwdwxmaZ3ESz2G94tQegI2iF2x7ERa2jolhNip70bS45iV3_nETFw6m00]--></g></svg>